{
.appVersion = "3340";
DisplayStrings = (
"Life/space ain/quoteright t/space all/space bad"
);
classes = (
{
automatic = 1;
code = "A Aacute Acircumflex Adieresis Agrave B C Cacute Cdotaccent D E Eacute Ecircumflex Edieresis Edotaccent Egrave F G Gdotaccent H I Iacute Icircumflex Idieresis Idotaccent Igrave J K L Lacute M N Nacute O Oacute Ocircumflex Odieresis Ograve P Q R Racute S Sacute T U Uacute Ucircumflex Udieresis Ugrave V W Wacute Wcircumflex Wdieresis Wgrave X Y Yacute Ycircumflex Ydieresis Ygrave Z Zacute Zdotaccent C.loclDEU A.ss01 Aacute.ss01 Acircumflex.ss01 Adieresis.ss01 Agrave.ss01 M.ss01 W.ss01 Wacute.ss01 Wcircumflex.ss01 Wdieresis.ss01 Wgrave.ss01 Y.ss01 Yacute.ss01 Ycircumflex.ss01 Ydieresis.ss01 Ygrave.ss01 N.ss03 V.ss03";
name = Uppercase;
}
);
copyright = "Copyright (c) 2011-2021 by Jens Kutilek. All rights reserved.";
customParameters = (
{
name = "Disable Last Change";
value = 1;
},
{
name = license;
value = "SIL Open Font License";
},
{
name = licenseURL;
value = "https://scripts.sil.org/OFL";
},
{
name = vendorID;
value = JENS;
},
{
name = Axes;
value = (
{
Name = Weight;
Tag = wght;
}
);
}
);
date = "2021-01-21 08:35:00 +0000";
designer = "Jens Kutilek";
designerURL = "https://www.kutilek.de/";
familyName = "Grotesk 812";
featurePrefixes = (
{
automatic = 1;
code = "languagesystem DFLT dflt;\012\012languagesystem latn dflt;\012languagesystem latn AZE;\012languagesystem latn CRT;\012languagesystem latn KAZ;\012languagesystem latn TAT;\012languagesystem latn TRK;\012languagesystem latn DEU;\012";
name = Languagesystems;
}
);
features = (
{
automatic = 1;
code = "feature locl;\012feature case;\012feature salt;\012feature ss01;\012feature ss03;\012";
name = aalt;
},
{
automatic = 1;

glyphs = (
{
glyphname = A;
layers = (
{
anchors = (
{
name = top;
position = "{128, 672}";
}
);
background = {
anchors = (
{
name = top;
position = "{128, 672}";
}
);
paths = (
{
closed = 1;
nodes = (
"80 0 LINE",
"80 560 LINE",
"48 560 LINE",
"48 0 LINE"
);
},
{
closed = 1;
nodes = (
"208 0 LINE",
"208 560 LINE",
"176 560 LINE",
"176 0 LINE"
);
},
{
closed = 1;
nodes = (
"195 321 LINE",
"195 349 LINE",
"72 349 LINE",
"72 321 LINE"
);
},
{
closed = 1;
nodes = (
"80 560 LINE",
"80 600 LINE SMOOTH",
"80 636 OFFCURVE",
"101 648 OFFCURVE",
"128 648 CURVE",
"128 676 LINE",
"77 676 OFFCURVE",
"48 648 OFFCURVE",
"48 602 CURVE SMOOTH",
"48 560 LINE"
);
},
{
closed = 1;
nodes = (
"208 602 LINE SMOOTH",
"208 648 OFFCURVE",
"179 676 OFFCURVE",
"128 676 CURVE",
"128 648 LINE",
"155 648 OFFCURVE",
"176 636 OFFCURVE",
"176 600 CURVE SMOOTH",
"176 560 LINE",
"208 560 LINE"
);
}
);
};
layerId = "2FCEC9C4-D6B8-40A6-8432-FB04296B16B9";
paths = (
{
closed = 1;
nodes = (
"155 168 LINE",
"172 0 LINE",
"237 0 LINE",
"164 672 LINE",
"123 672 LINE"
);
},
{
closed = 1;
nodes = (
"86 140 LINE",
"170 140 LINE",
"170 196 LINE",
"86 196 LINE"
);
},
{
closed = 1;
nodes = (
"19 0 LINE",
"84 0 LINE",
"101 168 LINE",
"133 672 LINE",
"92 672 LINE"
);
},
{
closed = 1;
nodes = (
"96 532 LINE",
"160 532 LINE",
"160 672 LINE",
"96 672 LINE"
);
}
);
width = 256;
},
{
anchors = (
{
name = top;
position = "{128, 672}";
}
);
layerId = m002;
paths = (
{
closed = 1;
nodes = (
"155 168 LINE",
"172 0 LINE",
"237 0 LINE",
"164 672 LINE",
"123 672 LINE"
);
},
{
closed = 1;
nodes = (
"86 140 LINE",
"170 140 LINE",
"170 196 LINE",
"86 196 LINE"
);
},
{
closed = 1;
nodes = (
"19 0 LINE",
"84 0 LINE",
"101 168 LINE",
"133 672 LINE",
"92 672 LINE"
);
},
{
closed = 1;
nodes = (
"96 532 LINE",
"160 532 LINE",
"160 672 LINE",
"96 672 LINE"
);
}
);
width = 256;
},
{
anchors = (
{
name = top;
position = "{128, 672}";
}
);
layerId = m003;
paths = (
{
closed = 1;
nodes = (
"155 168 LINE",
"172 0 LINE",
"237 0 LINE",
"164 672 LINE",
"123 672 LINE"
);
},
{
closed = 1;
nodes = (
"86 140 LINE",
"170 140 LINE",
"170 196 LINE",
"86 196 LINE"
);
},
{
closed = 1;
nodes = (
"19 0 LINE",
"84 0 LINE",
"101 168 LINE",
"133 672 LINE",
"92 672 LINE"
);
},
{
closed = 1;
nodes = (
"96 532 LINE",
"160 532 LINE",
"160 672 LINE",
"96 672 LINE"
);
}
);
width = 256;
}
);
leftKerningGroup = A;
rightKerningGroup = A;
unicode = 0041;
},
{
color = 7;
glyphname = B;
layers = (
{
background = {
paths = (
{
closed = 1;
nodes = (
"80 0 LINE",
"80 672 LINE",
"48 672 LINE",
"48 0 LINE"
);
},
{
closed = 1;
nodes = (
"128 644 LINE",
"128 672 LINE",
"80 672 LINE",
"80 644 LINE"
);
},
{
closed = 1;
nodes = (
"128 350 LINE",
"128 378 LINE",
"80 378 LINE",
"80 350 LINE"
);
},
{
closed = 1;
nodes = (
"208 466 LINE",
"208 556 LINE",
"176 556 LINE",
"176 466 LINE"
);
},
{
closed = 1;
nodes = (
"208 116 LINE",
"208 262 LINE",
"176 262 LINE",
"176 116 LINE"
);
},
{
closed = 1;
nodes = (
"128 0 LINE",
"128 28 LINE",
"80 28 LINE",
"80 0 LINE"
);
},
{
closed = 1;
nodes = (
"208 598 LINE SMOOTH",
"208 644 OFFCURVE",
"179 672 OFFCURVE",
"128 672 CURVE",
"128 644 LINE",
"155 644 OFFCURVE",
"176 632 OFFCURVE",
"176 596 CURVE SMOOTH",
"176 556 LINE",
"208 556 LINE"
);
},
{
closed = 1;
nodes = (
"176 466 LINE",
"176 426 LINE SMOOTH",
"176 390 OFFCURVE",
"155 378 OFFCURVE",
"128 378 CURVE",
"128 350 LINE",
"179 350 OFFCURVE",
"208 378 OFFCURVE",
"208 424 CURVE SMOOTH",
"208 466 LINE"
);
},
{
closed = 1;
nodes = (
"176 116 LINE",
"176 76 LINE SMOOTH",
"176 40 OFFCURVE",
"155 28 OFFCURVE",
"128 28 CURVE",
"128 0 LINE",
"179 0 OFFCURVE",
"208 28 OFFCURVE",
"208 74 CURVE SMOOTH",
"208 116 LINE"
);
},
{
closed = 1;
nodes = (
"208 304 LINE SMOOTH",
"208 350 OFFCURVE",
"179 378 OFFCURVE",
"128 378 CURVE",
"128 350 LINE",
"155 350 OFFCURVE",
"176 338 OFFCURVE",
"176 302 CURVE SMOOTH",
"176 262 LINE",
"208 262 LINE"
);
}
);
};
components = (
{
name = _part.bogen;
transform = "{-1, 0, 0, 1, 224, 164}";
},
{
name = _part.bogen;
transform = "{-1, 0, 0, -1, 224, 508}";
},
{
name = _part.bogen;
piece = {
Optical = 34;
};
transform = "{-1, 0, 0, 1, 224, -151}";
},
{
name = _part.bogen;
piece = {
Optical = 34;
};
transform = "{-1, 0, 0, -1, 224, 837}";
}
);
layerId = "2FCEC9C4-D6B8-40A6-8432-FB04296B16B9";
paths = (
{
closed = 1;
nodes = (
"48 0 LINE",
"80 0 LINE",
"80 672 LINE",
"48 672 LINE"
);
},
{
closed = 1;
nodes = (
"80 644 LINE",
"128 644 LINE",
"128 672 LINE",
"80 672 LINE"
);
},
{
closed = 1;
nodes = (
"80 329 LINE",
"128 329 LINE",
"128 357 LINE",
"80 357 LINE"
);
},
{
closed = 1;
nodes = (
"176 445 LINE",
"208 445 LINE",
"208 556 LINE",
"176 556 LINE"
);
},
{
closed = 1;
nodes = (
"176 116 LINE",
"208 116 LINE",
"208 241 LINE",
"176 241 LINE"
);
},
{
closed = 1;
nodes = (
"80 0 LINE",
"128 0 LINE",
"128 28 LINE",
"80 28 LINE"
);
}
);
width = 254;
},
{
background = {
paths = (
{
closed = 1;
nodes = (
"256 0 LINE",
"256 672 LINE",
"128 672 LINE",
"128 0 LINE"
);
},
{
closed = 1;
nodes = (
"288 560 LINE",
"288 672 LINE",
"256 672 LINE",
"256 560 LINE"
);
},
{
closed = 1;
nodes = (
"288 280 LINE",
"288 392 LINE",
"256 392 LINE",
"256 280 LINE"
);
},
{
closed = 1;
nodes = (
"448 452 LINE",
"448 500 LINE",
"320 500 LINE",
"320 452 LINE"
);
},
{
closed = 1;
nodes = (
"448 172 LINE",
"448 220 LINE",
"320 220 LINE",
"320 172 LINE"
);
},
{
closed = 1;
nodes = (
"288 0 LINE",
"288 112 LINE",
"256 112 LINE",
"256 0 LINE"
);
}
);
};
components = (
{
name = _part.bogen;
transform = "{-1, 0, 0, 1, 288, 164}";
},
{
name = _part.bogen;
transform = "{-1, 0, 0, -1, 288, 508}";
},
{
name = _part.bogen;
piece = {
Optical = 34;
};
transform = "{-1, 0, 0, 1, 288, -108}";
},
{
name = _part.bogen;
piece = {
Optical = 34;
};
transform = "{-1, 0, 0, -1, 288, 796}";
}
);
layerId = m002;
paths = (
{
closed = 1;
nodes = (
"32 0 LINE",
"160 0 LINE",
"160 672 LINE",
"32 672 LINE"
);
},
{
closed = 1;
nodes = (
"160 560 LINE",
"192 560 LINE",
"192 672 LINE",
"160 672 LINE"
);
},
{
closed = 1;
nodes = (
"160 288 LINE",
"192 288 LINE",
"192 400 LINE",
"160 400 LINE"
);
},
{
closed = 1;
nodes = (
"224 460 LINE",
"352 460 LINE",
"352 500 LINE",
"224 500 LINE"
);
},
{
closed = 1;
nodes = (
"224 172 LINE",
"352 172 LINE",
"352 228 LINE",
"224 228 LINE"
);
},
{
closed = 1;
nodes = (
"160 0 LINE",
"192 0 LINE",
"192 112 LINE",
"160 112 LINE"
);
}
);
width = 382;
},
{
components = (
{
name = _part.bogen;
transform = "{-1, 0, 0, 1, 224, 164}";
},
{
name = _part.bogen;
transform = "{-1, 0, 0, -1, 224, 508}";
},
{
name = _part.bogen;
piece = {
Optical = 34;
};
transform = "{-1, 0, 0, 1, 224, -136}";
},
{
name = _part.bogen;
piece = {
Optical = 34;
};
transform = "{-1, 0, 0, -1, 224, 824}";
}
);
layerId = m003;
paths = (
{
closed = 1;
nodes = (
"32 0 LINE",
"96 0 LINE",
"96 672 LINE",
"32 672 LINE"
);
},
{
closed = 1;
nodes = (
"96 616 LINE",
"128 616 LINE",
"128 672 LINE",
"96 672 LINE"
);
},
{
closed = 1;
nodes = (
"96 316 LINE",
"128 316 LINE",
"128 372 LINE",
"96 372 LINE"
);
},
{
closed = 1;
nodes = (
"160 432 LINE",
"224 432 LINE",
"224 556 LINE",
"160 556 LINE"
);
},
{
closed = 1;
nodes = (
"160 116 LINE",
"224 116 LINE",
"224 256 LINE",
"160 256 LINE"
);
},
{
closed = 1;
nodes = (
"96 0 LINE",
"128 0 LINE",
"128 56 LINE",
"96 56 LINE"
);
}
);
width = 254;
}
);
leftKerningGroup = E;
leftMetricsKey = H;
rightMetricsKey = O;
unicode = 0042;
},
{
color = 7;
glyphname = C;
layers = (
{
anchors = (
{
name = top;
position = "{126, 672}";
}
);
background = {
anchors = (
{
name = top;
position = "{128, 672}";
}
);
paths = (
{
closed = 1;
nodes = (
"80 112 LINE",
"80 560 LINE",
"48 560 LINE",
"48 112 LINE"
);
},
{
closed = 1;
nodes = (
"208 112 LINE",
"208 224 LINE",
"176 224 LINE",
"176 112 LINE"
);
},
{
closed = 1;
nodes = (
"208 448 LINE",
"208 560 LINE",
"176 560 LINE",
"176 448 LINE"
);
},
{
closed = 1;
nodes = (
"208 602 LINE SMOOTH",
"208 648 OFFCURVE",
"179 676 OFFCURVE",
"128 676 CURVE",
"128 648 LINE",
"155 648 OFFCURVE",
"176 636 OFFCURVE",
"176 600 CURVE SMOOTH",
"176 560 LINE",
"208 560 LINE"
);
},
{
closed = 1;
nodes = (
"80 560 LINE",
"80 600 LINE SMOOTH",
"80 636 OFFCURVE",
"101 648 OFFCURVE",
"128 648 CURVE",
"128 676 LINE",
"77 676 OFFCURVE",
"48 648 OFFCURVE",
"48 602 CURVE SMOOTH",
"48 560 LINE"
);
},
{
closed = 1;
nodes = (
"48 70 LINE SMOOTH",
"48 24 OFFCURVE",
"77 -4 OFFCURVE",
"128 -4 CURVE",
"128 24 LINE",
"101 24 OFFCURVE",
"80 36 OFFCURVE",
"80 72 CURVE SMOOTH",
"80 112 LINE",
"48 112 LINE"
);
},
{
closed = 1;
nodes = (
"176 112 LINE",
"176 72 LINE SMOOTH",
"176 36 OFFCURVE",
"155 24 OFFCURVE",
"128 24 CURVE",
"128 -4 LINE",
"179 -4 OFFCURVE",
"208 24 OFFCURVE",
"208 70 CURVE SMOOTH",
"208 112 LINE"
);
}
);
};
components = (
{
name = _part.bogen;
transform = "{-1, 0, 0, 1, 222, 168}";
},
{
name = _part.bogen;
transform = "{1, 0, 0, 1, 30, 168}";
},
{
name = _part.bogen;
transform = "{1, 0, 0, -1, 30, 504}";
},
{
name = _part.bogen;
transform = "{-1, 0, 0, -1, 222, 504}";
}
);
layerId = "2FCEC9C4-D6B8-40A6-8432-FB04296B16B9";
paths = (
{
closed = 1;
nodes = (
"46 112 LINE",
"78 112 LINE",
"78 560 LINE",
"46 560 LINE"
);
},
{
closed = 1;
nodes = (
"174 112 LINE",
"206 112 LINE",
"206 224 LINE",
"174 224 LINE"
);
},
{
closed = 1;
nodes = (
"174 448 LINE",
"206 448 LINE",
"206 560 LINE",
"174 560 LINE"
);
}
);
width = 246;
},
{
anchors = (
{
name = top;
position = "{190, 672}";
}
);
background = {
paths = (
{
closed = 1;
nodes = (
"256 160 LINE",
"256 512 LINE",
"128 512 LINE",
"128 160 LINE"
);
},
{
closed = 1;
nodes = (
"448 160 LINE",
"444 224 LINE",
"318 224 LINE",
"320 160 LINE"
);
},
{
closed = 1;
nodes = (
"444 448 LINE",
"448 512 LINE",
"320 512 LINE",
"318 448 LINE"
);
}
);
};
components = (
{
name = _part.bogen;
transform = "{-1, 0, 0, 1, 286, 176}";
},
{
name = _part.bogen;
transform = "{1, 0, 0, 1, 94, 176}";
},
{
name = _part.bogen;
transform = "{1, 0, 0, -1, 94, 496}";
},
{
name = _part.bogen;
transform = "{-1, 0, 0, -1, 286, 496}";
}
);
layerId = m002;
paths = (
{
closed = 1;
nodes = (
"30 160 LINE",
"158 160 LINE",
"158 512 LINE",
"30 512 LINE"
);
},
{
closed = 1;
nodes = (
"222 160 LINE",
"350 160 LINE",
"346 224 LINE",
"220 224 LINE"
);
},
{
closed = 1;
nodes = (
"220 448 LINE",
"346 448 LINE",
"350 512 LINE",
"222 512 LINE"
);
}
);
width = 382;
},
{
anchors = (
{
name = top;
position = "{126, 672}";
}
);
components = (
{
name = _part.bogen;
transform = "{-1, 0, 0, 1, 222, 172}";
},
{
name = _part.bogen;
transform = "{1, 0, 0, 1, 30, 172}";
},
{
name = _part.bogen;
transform = "{1, 0, 0, -1, 30, 500}";
},
{
name = _part.bogen;
transform = "{-1, 0, 0, -1, 222, 500}";
}
);
layerId = m003;
paths = (
{
closed = 1;
nodes = (
"30 108 LINE",
"94 108 LINE",
"94 564 LINE",
"30 564 LINE"
);
},
{
closed = 1;
nodes = (
"158 108 LINE",
"222 108 LINE",
"222 224 LINE",
"158 224 LINE"
);
},
{
closed = 1;
nodes = (
"158 448 LINE",
"222 448 LINE",
"222 564 LINE",
"158 564 LINE"
);
}
);
width = 246;
}
);
leftKerningGroup = O;
leftMetricsKey = O;
rightKerningGroup = C;
unicode = 0043;
userData = {
com.typemytype.robofont.mark = (
0.6,
0.609,
1,
1
);
};
},
{
color = 7;
glyphname = D;
layers = (
{
anchors = (
{
name = top;
position = "{128, 672}";
}
);
background = {
anchors = (
{
name = top;
position = "{128, 672}";
}
);
paths = (
{
closed = 1;
nodes = (
"80 0 LINE",
"80 672 LINE",
"48 672 LINE",
"48 0 LINE"
);
},
{
closed = 1;
nodes = (
"208 116 LINE",
"208 556 LINE",
"176 556 LINE",
"176 116 LINE"
);
},
{
closed = 1;
nodes = (
"128 644 LINE",
"128 672 LINE",
"80 672 LINE",
"80 644 LINE"
);
},
{
closed = 1;
nodes = (
"128 0 LINE",
"128 28 LINE",
"80 28 LINE",
"80 0 LINE"
);
},
{
closed = 1;
nodes = (
"208 598 LINE SMOOTH",
"208 644 OFFCURVE",
"179 672 OFFCURVE",
"128 672 CURVE",
"128 644 LINE",
"155 644 OFFCURVE",
"176 632 OFFCURVE",
"176 596 CURVE SMOOTH",
"176 556 LINE",
"208 556 LINE"
);
},
{
closed = 1;
nodes = (
"176 116 LINE",
"176 76 LINE SMOOTH",
"176 40 OFFCURVE",
"155 28 OFFCURVE",
"128 28 CURVE",
"128 0 LINE",
"179 0 OFFCURVE",
"208 28 OFFCURVE",
"208 74 CURVE SMOOTH",
"208 116 LINE"
);
}
);
};
components = (
{
name = _part.bogen;
transform = "{-1, 0, 0, 1, 224, 164}";
},
{
name = _part.bogen;
transform = "{-1, 0, 0, -1, 224, 508}";
}
);
layerId = "2FCEC9C4-D6B8-40A6-8432-FB04296B16B9";
paths = (
{
closed = 1;
nodes = (
"48 0 LINE",
"80 0 LINE",
"80 672 LINE",
"48 672 LINE"
);
},
{
closed = 1;
nodes = (
"176 116 LINE",
"208 116 LINE",
"208 556 LINE",
"176 556 LINE"
);
},
{
closed = 1;
nodes = (
"80 644 LINE",
"128 644 LINE",
"128 672 LINE",
"80 672 LINE"
);
},
{
closed = 1;
nodes = (
"80 0 LINE",
"128 0 LINE",
"128 28 LINE",
"80 28 LINE"
);
}
);
width = 254;
},
{
anchors = (
{
name = top;
position = "{128, 672}";
}
);
background = {
paths = (
{
closed = 1;
nodes = (
"160 0 LINE",
"160 672 LINE",
"32 672 LINE",
"32 0 LINE"
);
},
{
closed = 1;
nodes = (
"352 172 LINE",
"352 500 LINE",
"224 500 LINE",
"224 172 LINE"
);
},
{
closed = 1;
nodes = (
"192 560 LINE",
"192 672 LINE",
"160 672 LINE",
"160 560 LINE"
);
},
{
closed = 1;
nodes = (
"192 0 LINE",
"192 112 LINE",
"160 112 LINE",
"160 0 LINE"
);
}
);
};
components = (
{
name = _part.bogen;
transform = "{-1, 0, 0, 1, 288, 164}";
},
{
name = _part.bogen;
transform = "{-1, 0, 0, -1, 288, 508}";
}
);
layerId = m002;
paths = (
{
closed = 1;
nodes = (
"32 0 LINE",
"160 0 LINE",
"160 672 LINE",
"32 672 LINE"
);
},
{
closed = 1;
nodes = (
"224 172 LINE",
"352 172 LINE",
"352 500 LINE",
"224 500 LINE"
);
},
{
closed = 1;
nodes = (
"160 560 LINE",
"192 560 LINE",
"192 672 LINE",
"160 672 LINE"
);
},
{
closed = 1;
nodes = (
"160 0 LINE",
"192 0 LINE",
"192 112 LINE",
"160 112 LINE"
);
}
);
width = 382;
},
{
anchors = (
{
name = top;
position = "{128, 672}";
}
);
components = (
{
name = _part.bogen;
transform = "{-1, 0, 0, 1, 224, 164}";
},
{
name = _part.bogen;
transform = "{-1, 0, 0, -1, 224, 508}";
}
);
layerId = m003;
paths = (
{
closed = 1;
nodes = (
"32 0 LINE",
"96 0 LINE",
"96 672 LINE",
"32 672 LINE"
);
},
{
closed = 1;
nodes = (
"160 116 LINE",
"224 116 LINE",
"224 556 LINE",
"160 556 LINE"
);
},
{
closed = 1;
nodes = (
"96 616 LINE",
"128 616 LINE",
"128 672 LINE",
"96 672 LINE"
);
},
{
closed = 1;
nodes = (
"96 0 LINE",
"128 0 LINE",
"128 56 LINE",
"96 56 LINE"
);
}
);
width = 254;
}
);
leftKerningGroup = E;
leftMetricsKey = H;
rightKerningGroup = O;
rightMetricsKey = O;
unicode = 0044;
userData = {
com.typemytype.robofont.mark = (
0.6,
0.609,
1,
1
);
};
},
{
glyphname = E;
layers = (
{
anchors = (
{
name = top;
position = "{108, 672}";
}
);
background = {
anchors = (
{
name = top;
position = "{108, 672}";
}
);
paths = (
{
closed = 1;
nodes = (
"80 0 LINE",
"80 672 LINE",
"48 672 LINE",
"48 0 LINE"
);
},
{
closed = 1;
nodes = (
"180 334 LINE",
"180 362 LINE",
"80 362 LINE",
"80 334 LINE"
);
},
{
closed = 1;
nodes = (
"186 644 LINE",
"186 672 LINE",
"80 672 LINE",
"80 644 LINE"
);
},
{
closed = 1;
nodes = (
"192 0 LINE",
"192 28 LINE",
"80 28 LINE",
"80 0 LINE"
);
}
);
};
layerId = "2FCEC9C4-D6B8-40A6-8432-FB04296B16B9";
paths = (
{
closed = 1;
nodes = (
"48 0 LINE",
"80 0 LINE",
"80 672 LINE",
"48 672 LINE"
);
},
{
closed = 1;
nodes = (
"80 329 LINE",
"180 329 LINE",
"180 357 LINE",
"80 357 LINE"
);
},
{
closed = 1;
nodes = (
"80 644 LINE",
"186 644 LINE",
"186 672 LINE",
"80 672 LINE"
);
},
{
closed = 1;
nodes = (
"80 0 LINE",
"192 0 LINE",
"192 28 LINE",
"80 28 LINE"
);
}
);
width = 224;
},
{
anchors = (
{
name = top;
position = "{172, 672}";
}
);
layerId = m002;
paths = (
{
closed = 1;
nodes = (
"32 0 LINE",
"160 0 LINE",
"160 672 LINE",
"32 672 LINE"
);
},
{
closed = 1;
nodes = (
"160 288 LINE",
"276 288 LINE",
"276 400 LINE",
"160 400 LINE"
);
},
{
closed = 1;
nodes = (
"160 560 LINE",
"282 560 LINE",
"282 672 LINE",
"160 672 LINE"
);
},
{
closed = 1;
nodes = (
"160 0 LINE",
"288 0 LINE",
"288 112 LINE",
"160 112 LINE"
);
}
);
width = 308;
},
{
anchors = (
{
name = top;
position = "{108, 672}";
}
);
layerId = m003;
paths = (
{
closed = 1;
nodes = (
"32 0 LINE",
"96 0 LINE",
"96 672 LINE",
"32 672 LINE"
);
},
{
closed = 1;
nodes = (
"96 315 LINE",
"180 315 LINE",
"180 373 LINE",
"96 373 LINE"
);
},
{
closed = 1;
nodes = (
"96 614 LINE",
"186 614 LINE",
"186 672 LINE",
"96 672 LINE"
);
},
{
closed = 1;
nodes = (
"96 0 LINE",
"192 0 LINE",
"192 58 LINE",
"96 58 LINE"
);
}
);
width = 224;
}
);
leftKerningGroup = E;
leftMetricsKey = H;
rightKerningGroup = E;
unicode = 0045;
},
{
glyphname = F;
layers = (
{
anchors = (
{
name = top;
position = "{108, 672}";
}
);
background = {
anchors = (
{
name = top;
position = "{108, 672}";
}
);
paths = (
{
closed = 1;
nodes = (
"80 0 LINE",
"80 672 LINE",
"48 672 LINE",
"48 0 LINE"
);
},
{
closed = 1;
nodes = (
"180 309 LINE",
"180 337 LINE",
"80 337 LINE",
"80 309 LINE"
);
},
{
closed = 1;
nodes = (
"186 644 LINE",
"186 672 LINE",
"80 672 LINE",
"80 644 LINE"
);
}
);
};
layerId = "2FCEC9C4-D6B8-40A6-8432-FB04296B16B9";
paths = (
{
closed = 1;
nodes = (
"48 0 LINE",
"80 0 LINE",
"80 672 LINE",
"48 672 LINE"
);
},
{
closed = 1;
nodes = (
"80 309 LINE",
"180 309 LINE",
"180 337 LINE",
"80 337 LINE"
);
},
{
closed = 1;
nodes = (
"80 644 LINE",
"186 644 LINE",
"186 672 LINE",
"80 672 LINE"
);
}
);
width = 218;
},
{
anchors = (
{
name = top;
position = "{108, 672}";
}
);
layerId = m002;
paths = (
{
closed = 1;
nodes = (
"32 0 LINE",
"96 0 LINE",
"96 672 LINE",
"32 672 LINE"
);
},
{
closed = 1;
nodes = (
"96 295 LINE",
"180 295 LINE",
"180 353 LINE",
"96 353 LINE"
);
},
{
closed = 1;
nodes = (
"96 614 LINE",
"186 614 LINE",
"186 672 LINE",
"96 672 LINE"
);
}
);
width = 218;
},
{
anchors = (
{
name = top;
position = "{108, 672}";
}
);
layerId = m003;
paths = (
{
closed = 1;
nodes = (
"32 0 LINE",
"96 0 LINE",
"96 672 LINE",
"32 672 LINE"
);
},
{
closed = 1;
nodes = (
"96 295 LINE",
"180 295 LINE",
"180 353 LINE",
"96 353 LINE"
);
},
{
closed = 1;
nodes = (
"96 614 LINE",
"186 614 LINE",
"186 672 LINE",
"96 672 LINE"
);
}
);
width = 218;
}
);
leftKerningGroup = E;
leftMetricsKey = H;
rightKerningGroup = F;
unicode = 0046;
},
{
color = 7;
glyphname = G;
layers = (
{
anchors = (
{
name = top;
position = "{126, 672}";
}
);
background = {
anchors = (
{
name = top;
position = "{128, 672}";
}
);
paths = (
{
closed = 1;
nodes = (
"80 112 LINE",
"80 560 LINE",
"48 560 LINE",
"48 112 LINE"
);
},
{
closed = 1;
nodes = (
"208 112 LINE",
"208 314 LINE",
"176 314 LINE",
"176 112 LINE"
);
},
{
closed = 1;
nodes = (
"208 448 LINE",
"208 560 LINE",
"176 560 LINE",
"176 448 LINE"
);
},
{
closed = 1;
nodes = (
"208 313 LINE",
"208 343 LINE",
"128 343 LINE",
"128 313 LINE"
);
},
{
closed = 1;
nodes = (
"208 602 LINE SMOOTH",
"208 648 OFFCURVE",
"179 676 OFFCURVE",
"128 676 CURVE",
"128 648 LINE",
"155 648 OFFCURVE",
"176 636 OFFCURVE",
"176 600 CURVE SMOOTH",
"176 560 LINE",
"208 560 LINE"
);
},
{
closed = 1;
nodes = (
"80 560 LINE",
"80 600 LINE SMOOTH",
"80 636 OFFCURVE",
"101 648 OFFCURVE",
"128 648 CURVE",
"128 676 LINE",
"77 676 OFFCURVE",
"48 648 OFFCURVE",
"48 602 CURVE SMOOTH",
"48 560 LINE"
);
},
{
closed = 1;
nodes = (
"48 70 LINE SMOOTH",
"48 24 OFFCURVE",
"77 -4 OFFCURVE",
"128 -4 CURVE",
"128 24 LINE",
"101 24 OFFCURVE",
"80 36 OFFCURVE",
"80 72 CURVE SMOOTH",
"80 112 LINE",
"48 112 LINE"
);
},
{
closed = 1;
nodes = (
"176 112 LINE",
"176 72 LINE SMOOTH",
"176 36 OFFCURVE",
"155 24 OFFCURVE",
"128 24 CURVE",
"128 -4 LINE",
"179 -4 OFFCURVE",
"208 24 OFFCURVE",
"208 70 CURVE SMOOTH",
"208 112 LINE"
);
}
);
};
components = (
{
name = _part.bogen;
transform = "{-1, 0, 0, 1, 222, 168}";
},
{
name = _part.bogen;
transform = "{1, 0, 0, 1, 30, 168}";
},
{
name = _part.bogen;
transform = "{1, 0, 0, -1, 30, 504}";
},
{
name = _part.bogen;
transform = "{-1, 0, 0, -1, 222, 504}";
}
);
layerId = "2FCEC9C4-D6B8-40A6-8432-FB04296B16B9";
paths = (
{
closed = 1;
nodes = (
"46 112 LINE",
"78 112 LINE",
"78 560 LINE",
"46 560 LINE"
);
},
{
closed = 1;
nodes = (
"174 112 LINE",
"206 112 LINE",
"206 313 LINE",
"174 313 LINE"
);
},
{
closed = 1;
nodes = (
"174 448 LINE",
"206 448 LINE",
"206 560 LINE",
"174 560 LINE"
);
},
{
closed = 1;
nodes = (
"126 313 LINE",
"206 313 LINE",
"206 343 LINE",
"126 343 LINE"
);
}
);
width = 254;
},
{
anchors = (
{
name = top;
position = "{190, 672}";
}
);
background = {
paths = (
{
closed = 1;
nodes = (
"256 160 LINE",
"256 512 LINE",
"128 512 LINE",
"128 160 LINE"
);
},
{
closed = 1;
nodes = (
"448 160 LINE",
"448 266 LINE",
"320 266 LINE",
"320 160 LINE"
);
},
{
closed = 1;
nodes = (
"444 448 LINE",
"448 512 LINE",
"320 512 LINE",
"318 448 LINE"
);
},
{
closed = 1;
nodes = (
"448 265 LINE",
"448 379 LINE",
"281 379 LINE",
"281 265 LINE"
);
}
);
};
components = (
{
name = _part.bogen;
transform = "{-1, 0, 0, 1, 286, 176}";
},
{
name = _part.bogen;
transform = "{1, 0, 0, 1, 94, 176}";
},
{
name = _part.bogen;
transform = "{1, 0, 0, -1, 94, 496}";
},
{
name = _part.bogen;
transform = "{-1, 0, 0, -1, 286, 496}";
}
);
layerId = m002;
paths = (
{
closed = 1;
nodes = (
"30 160 LINE",
"158 160 LINE",
"158 512 LINE",
"30 512 LINE"
);
},
{
closed = 1;
nodes = (
"222 160 LINE",
"350 160 LINE",
"350 266 LINE",
"222 266 LINE"
);
},
{
closed = 1;
nodes = (
"220 448 LINE",
"346 448 LINE",
"350 512 LINE",
"222 512 LINE"
);
},
{
closed = 1;
nodes = (
"183 265 LINE",
"350 265 LINE",
"350 379 LINE",
"183 379 LINE"
);
}
);
width = 382;
},
{
anchors = (
{
name = top;
position = "{126, 672}";
}
);
components = (
{
name = _part.bogen;
transform = "{-1, 0, 0, 1, 222, 172}";
},
{
name = _part.bogen;
transform = "{1, 0, 0, 1, 30, 172}";
},
{
name = _part.bogen;
transform = "{1, 0, 0, -1, 30, 500}";
},
{
name = _part.bogen;
transform = "{-1, 0, 0, -1, 222, 500}";
}
);
layerId = m003;
paths = (
{
closed = 1;
nodes = (
"30 108 LINE",
"94 108 LINE",
"94 564 LINE",
"30 564 LINE"
);
},
{
closed = 1;
nodes = (
"158 108 LINE",
"222 108 LINE",
"222 299 LINE",
"158 299 LINE"
);
},
{
closed = 1;
nodes = (
"158 448 LINE",
"222 448 LINE",
"222 564 LINE",
"158 564 LINE"
);
},
{
closed = 1;
nodes = (
"126 299 LINE",
"222 299 LINE",
"222 357 LINE",
"126 357 LINE"
);
}
);
width = 254;
}
);
leftKerningGroup = O;
leftMetricsKey = O;
rightKerningGroup = G;
unicode = 0047;
userData = {
com.typemytype.robofont.mark = (
0.6,
0.609,
1,
1
);
};
},
{
glyphname = H;
layers = (
{
anchors = (
{
name = top;
position = "{128, 672}";
}
);
background = {
anchors = (
{
name = top;
position = "{128, 672}";
}
);
paths = (
{
closed = 1;
nodes = (
"48 0 LINE",
"48 672 LINE",
"16 672 LINE",
"16 0 LINE"
);
},
{
closed = 1;
nodes = (
"176 0 LINE",
"176 672 LINE",
"144 672 LINE",
"144 0 LINE"
);
},
{
closed = 1;
nodes = (
"144 322 LINE",
"144 350 LINE",
"48 350 LINE",
"48 322 LINE"
);
}
);
};
layerId = "2FCEC9C4-D6B8-40A6-8432-FB04296B16B9";
paths = (
{
closed = 1;
nodes = (
"208 0 LINE",
"208 672 LINE",
"176 672 LINE",
"176 0 LINE"
);
},
{
closed = 1;
nodes = (
"80 0 LINE",
"80 672 LINE",
"48 672 LINE",
"48 0 LINE"
);
},
{
closed = 1;
nodes = (
"176 329 LINE",
"176 357 LINE",
"80 357 LINE",
"80 329 LINE"
);
}
);
width = 256;
},
{
anchors = (
{
name = top;
position = "{192, 672}";
}
);
layerId = m002;
paths = (
{
closed = 1;
nodes = (
"352 0 LINE",
"352 672 LINE",
"224 672 LINE",
"224 0 LINE"
);
},
{
closed = 1;
nodes = (
"160 0 LINE",
"160 672 LINE",
"32 672 LINE",
"32 0 LINE"
);
},
{
closed = 1;
nodes = (
"224 288 LINE",
"224 400 LINE",
"160 400 LINE",
"160 288 LINE"
);
}
);
width = 384;
},
{
anchors = (
{
name = top;
position = "{128, 672}";
}
);
layerId = m003;
paths = (
{
closed = 1;
nodes = (
"224 0 LINE",
"224 672 LINE",
"160 672 LINE",
"160 0 LINE"
);
},
{
closed = 1;
nodes = (
"96 0 LINE",
"96 672 LINE",
"32 672 LINE",
"32 0 LINE"
);
},
{
closed = 1;
nodes = (
"160 315 LINE",
"160 373 LINE",
"96 373 LINE",
"96 315 LINE"
);
}
);
width = 256;
}
);
leftKerningGroup = E;
rightKerningGroup = H;
unicode = 0048;
},
{
glyphname = I;
layers = (
{
anchors = (
{
name = top;
position = "{64, 672}";
}
);
background = {
anchors = (
{
name = top;
position = "{64, 672}";
}
);
paths = (
{
closed = 1;
nodes = (
"80 0 LINE",
"80 672 LINE",
"48 672 LINE",
"48 0 LINE"
);
}
);
};
layerId = "2FCEC9C4-D6B8-40A6-8432-FB04296B16B9";
paths = (
{
closed = 1;
nodes = (
"48 0 LINE",
"80 0 LINE",
"80 672 LINE",
"48 672 LINE"
);
}
);
width = 128;
},
{
anchors = (
{
name = top;
position = "{96, 672}";
}
);
layerId = m002;
paths = (
{
closed = 1;
nodes = (
"160 0 LINE",
"160 672 LINE",
"32 672 LINE",
"32 0 LINE"
);
}
);
width = 192;
},
{
anchors = (
{
name = top;
position = "{64, 672}";
}
);
layerId = m003;
paths = (
{
closed = 1;
nodes = (
"32 0 LINE",
"96 0 LINE",
"96 672 LINE",
"32 672 LINE"
);
}
);
width = 128;
}
);
leftKerningGroup = E;
leftMetricsKey = H;
rightKerningGroup = H;
rightMetricsKey = H;
unicode = 0049;
},
{
color = 7;
glyphname = J;
layers = (
{
anchors = (
{
name = top;
position = "{164, 672}";
}
);
background = {
anchors = (
{
name = top;
position = "{108, 672}";
}
);
paths = (
{
closed = 1;
nodes = (
"200 112 LINE",
"200 672 LINE",
"168 672 LINE",
"168 112 LINE"
);
},
{
closed = 1;
nodes = (
"72 112 LINE",
"72 224 LINE",
"40 224 LINE",
"40 112 LINE"
);
},
{
closed = 1;
nodes = (
"168 642 LINE",
"168 672 LINE",
"88 672 LINE",
"88 642 LINE"
);
},
{
closed = 1;
nodes = (
"168 112 LINE",
"168 72 LINE SMOOTH",
"168 36 OFFCURVE",
"147 24 OFFCURVE",
"120 24 CURVE",
"120 -4 LINE",
"171 -4 OFFCURVE",
"200 24 OFFCURVE",
"200 70 CURVE SMOOTH",
"200 112 LINE"
);
},
{
closed = 1;
nodes = (
"40 70 LINE SMOOTH",
"40 24 OFFCURVE",
"69 -4 OFFCURVE",
"120 -4 CURVE",
"120 24 LINE",
"93 24 OFFCURVE",
"72 36 OFFCURVE",
"72 72 CURVE SMOOTH",
"72 112 LINE",
"40 112 LINE"
);
}
);
};
components = (
{
name = _part.bogen;
transform = "{-1, 0, 0, -1, 216, 504}";
},
{
name = _part.bogen;
transform = "{1, 0, 0, -1, 24, 504}";
}
);
layerId = "2FCEC9C4-D6B8-40A6-8432-FB04296B16B9";
paths = (
{
closed = 1;
nodes = (
"168 112 LINE",
"200 112 LINE",
"200 672 LINE",
"168 672 LINE"
);
},
{
closed = 1;
nodes = (
"40 112 LINE",
"72 112 LINE",
"72 224 LINE",
"40 224 LINE"
);
},
{
closed = 1;
nodes = (
"88 642 LINE",
"168 642 LINE",
"168 672 LINE",
"88 672 LINE"
);
}
);
width = 246;
},
{
anchors = (
{
name = top;
position = "{228, 672}";
}
);
components = (
{
name = _part.bogen;
transform = "{-1, 0, 0, -1, 280, 500}";
},
{
name = _part.bogen;
transform = "{1, 0, 0, -1, 88, 500}";
}
);
layerId = m002;
paths = (
{
closed = 1;
nodes = (
"216 108 LINE",
"280 108 LINE",
"280 672 LINE",
"216 672 LINE"
);
},
{
closed = 1;
nodes = (
"88 108 LINE",
"152 108 LINE",
"152 224 LINE",
"88 224 LINE"
);
},
{
closed = 1;
nodes = (
"152 614 LINE",
"216 614 LINE",
"216 672 LINE",
"152 672 LINE"
);
}
);
width = 376;
},
{
anchors = (
{
name = top;
position = "{164, 672}";
}
);
components = (
{
name = _part.bogen;
transform = "{-1, 0, 0, -1, 216, 500}";
},
{
name = _part.bogen;
transform = "{1, 0, 0, -1, 24, 500}";
}
);
layerId = m003;
paths = (
{
closed = 1;
nodes = (
"152 108 LINE",
"216 108 LINE",
"216 672 LINE",
"152 672 LINE"
);
},
{
closed = 1;
nodes = (
"24 108 LINE",
"88 108 LINE",
"88 224 LINE",
"24 224 LINE"
);
},
{
closed = 1;
nodes = (
"88 614 LINE",
"152 614 LINE",
"152 672 LINE",
"88 672 LINE"
);
}
);
width = 246;
}
);
rightKerningGroup = U;
rightMetricsKey = U;
unicode = 004A;
userData = {
com.typemytype.robofont.mark = (
0.6,
0.609,
1,
1
);
};
},
{
glyphname = K;
layers = (
{
anchors = (
{
name = top;
position = "{128, 672}";
}
);
background = {
anchors = (
{
name = top;
position = "{128, 672}";
}
);
paths = (
{
closed = 1;
nodes = (
"96 0 LINE",
"96 672 LINE",
"32 672 LINE",
"32 0 LINE"
);
},
{
closed = 1;
nodes = (
"166 353 LINE",
"250 672 LINE",
"181 672 LINE",
"100 353 LINE"
);
},
{
closed = 1;
nodes = (
"253 0 LINE",
"166 353 LINE",
"100 353 LINE",
"184 0 LINE"
);
}
);
};
layerId = "2FCEC9C4-D6B8-40A6-8432-FB04296B16B9";
paths = (
{
closed = 1;
nodes = (
"32 0 LINE",
"96 0 LINE",
"96 672 LINE",
"32 672 LINE"
);
},
{
closed = 1;
nodes = (
"100 353 LINE",
"166 353 LINE",
"250 672 LINE",
"181 672 LINE"
);
},
{
closed = 1;
nodes = (
"184 0 LINE",
"253 0 LINE",
"166 353 LINE",
"100 353 LINE"
);
}
);
width = 256;
},
{
anchors = (
{
name = top;
position = "{128, 672}";
}
);
layerId = m002;
paths = (
{
closed = 1;
nodes = (
"32 0 LINE",
"96 0 LINE",
"96 672 LINE",
"32 672 LINE"
);
},
{
closed = 1;
nodes = (
"100 353 LINE",
"166 353 LINE",
"250 672 LINE",
"181 672 LINE"
);
},
{
closed = 1;
nodes = (
"184 0 LINE",
"253 0 LINE",
"166 353 LINE",
"100 353 LINE"
);
}
);
width = 256;
},
{
anchors = (
{
name = top;
position = "{128, 672}";
}
);
layerId = m003;
paths = (
{
closed = 1;
nodes = (
"32 0 LINE",
"96 0 LINE",
"96 672 LINE",
"32 672 LINE"
);
},
{
closed = 1;
nodes = (
"100 353 LINE",
"166 353 LINE",
"250 672 LINE",
"181 672 LINE"
);
},
{
closed = 1;
nodes = (
"184 0 LINE",
"253 0 LINE",
"166 353 LINE",
"100 353 LINE"
);
}
);
width = 256;
}
);
leftKerningGroup = E;
leftMetricsKey = H;
rightKerningGroup = K;
unicode = 004B;
},
{
glyphname = L;
layers = (
{
anchors = (
{
name = top;
position = "{64, 672}";
}
);
background = {
anchors = (
{
name = top;
position = "{64, 672}";
}
);
paths = (
{
closed = 1;
nodes = (
"96 0 LINE",
"96 672 LINE",
"32 672 LINE",
"32 0 LINE"
);
},
{
closed = 1;
nodes = (
"192 0 LINE",
"192 58 LINE",
"96 58 LINE",
"96 0 LINE"
);
}
);
};
layerId = "2FCEC9C4-D6B8-40A6-8432-FB04296B16B9";
paths = (
{
closed = 1;
nodes = (
"48 0 LINE",
"80 0 LINE",
"80 672 LINE",
"48 672 LINE"
);
},
{
closed = 1;
nodes = (
"80 0 LINE",
"176 0 LINE",
"176 28 LINE",
"80 28 LINE"
);
}
);
width = 202;
},
{
anchors = (
{
name = top;
position = "{96, 672}";
}
);
background = {
paths = (
{
closed = 1;
nodes = (
"160 0 LINE",
"160 672 LINE",
"32 672 LINE",
"32 0 LINE"
);
},
{
closed = 1;
nodes = (
"280 0 LINE",
"280 112 LINE",
"160 112 LINE",
"160 0 LINE"
);
}
);
};
layerId = m002;
paths = (
{
closed = 1;
nodes = (
"32 0 LINE",
"160 0 LINE",
"160 672 LINE",
"32 672 LINE"
);
},
{
closed = 1;
nodes = (
"160 0 LINE",
"280 0 LINE",
"280 112 LINE",
"160 112 LINE"
);
}
);
width = 300;
},
{
anchors = (
{
name = top;
position = "{101, 672}";
}
);
layerId = m003;
paths = (
{
closed = 1;
nodes = (
"32 0 LINE",
"96 0 LINE",
"96 672 LINE",
"32 672 LINE"
);
},
{
closed = 1;
nodes = (
"96 0 LINE",
"192 0 LINE",
"192 58 LINE",
"96 58 LINE"
);
}
);
width = 202;
}
);
leftKerningGroup = E;
leftMetricsKey = H;
rightKerningGroup = L;
unicode = 004C;
},
{
glyphname = M;
layers = (
{
anchors = (
{
name = top;
position = "{176, 672}";
}
);
background = {
anchors = (
{
name = top;
position = "{176, 672}";
}
);
paths = (
{
closed = 1;
nodes = (
"96 0 LINE",
"96 280 LINE",
"82 672 LINE",
"32 672 LINE",
"32 0 LINE"
);
},
{
closed = 1;
nodes = (
"198 0 LINE",
"120 672 LINE",
"72 672 LINE",
"150 0 LINE"
);
},
{
closed = 1;
nodes = (
"256 0 LINE",
"320 0 LINE",
"320 672 LINE",
"270 672 LINE",
"256 280 LINE"
);
},
{
closed = 1;
nodes = (
"232 672 LINE",
"154 0 LINE",
"202 0 LINE",
"280 672 LINE"
);
}
);
};
guideLines = (
{
position = "{-18, 482}";
},
{
angle = 90;
position = "{94, 0}";
}
);
layerId = "2FCEC9C4-D6B8-40A6-8432-FB04296B16B9";
paths = (
{
closed = 1;
nodes = (
"32 0 LINE",
"96 0 LINE",
"96 280 LINE",
"82 672 LINE",
"32 672 LINE"
);
},
{
closed = 1;
nodes = (
"150 0 LINE",
"198 0 LINE",
"120 672 LINE",
"72 672 LINE"
);
},
{
closed = 1;
nodes = (
"256 280 LINE",
"256 0 LINE",
"320 0 LINE",
"320 672 LINE",
"270 672 LINE"
);
},
{
closed = 1;
nodes = (
"280 672 LINE",
"232 672 LINE",
"154 0 LINE",
"202 0 LINE"
);
}
);
width = 352;
},
{
anchors = (
{
name = top;
position = "{176, 672}";
}
);
guideLines = (
{
position = "{-18, 482}";
},
{
angle = 90;
position = "{94, 0}";
}
);
layerId = m002;
paths = (
{
closed = 1;
nodes = (
"32 0 LINE",
"96 0 LINE",
"96 280 LINE",
"82 672 LINE",
"32 672 LINE"
);
},
{
closed = 1;
nodes = (
"150 0 LINE",
"198 0 LINE",
"120 672 LINE",
"72 672 LINE"
);
},
{
closed = 1;
nodes = (
"256 280 LINE",
"256 0 LINE",
"320 0 LINE",
"320 672 LINE",
"270 672 LINE"
);
},
{
closed = 1;
nodes = (
"280 672 LINE",
"232 672 LINE",
"154 0 LINE",
"202 0 LINE"
);
}
);
width = 352;
},
{
anchors = (
{
name = top;
position = "{176, 672}";
}
);
guideLines = (
{
position = "{-18, 482}";
},
{
angle = 90;
position = "{94, 0}";
}
);
layerId = m003;
paths = (
{
closed = 1;
nodes = (
"32 0 LINE",
"96 0 LINE",
"96 280 LINE",
"82 672 LINE",
"32 672 LINE"
);
},
{
closed = 1;
nodes = (
"150 0 LINE",
"198 0 LINE",
"120 672 LINE",
"72 672 LINE"
);
},
{
closed = 1;
nodes = (
"256 280 LINE",
"256 0 LINE",
"320 0 LINE",
"320 672 LINE",
"270 672 LINE"
);
},
{
closed = 1;
nodes = (
"280 672 LINE",
"232 672 LINE",
"154 0 LINE",
"202 0 LINE"
);
}
);
width = 352;
}
);
leftKerningGroup = E;
leftMetricsKey = H;
rightMetricsKey = H;
unicode = 004D;
userData = {
com.typemytype.robofont.guides = (
{
angle = 0;
isGlobal = 0;
magnetic = 5;
x = 0;
y = 482;
},
{
angle = 90;
isGlobal = 0;
magnetic = 5;
x = 208;
y = 0;
}
);
};
},
{
glyphname = N;
layers = (
{
anchors = (
{
name = top;
position = "{128, 672}";
}
);
background = {
anchors = (
{
name = top;
position = "{128, 672}";
}
);
paths = (
{
closed = 1;
nodes = (
"96 0 LINE",
"76 672 LINE",
"32 672 LINE",
"32 0 LINE"
);
},
{
closed = 1;
nodes = (
"224 0 LINE",
"224 672 LINE",
"160 672 LINE",
"180 0 LINE"
);
},
{
closed = 1;
nodes = (
"204 0 LINE",
"96 672 LINE",
"52 672 LINE",
"160 0 LINE"
);
}
);
};
layerId = "2FCEC9C4-D6B8-40A6-8432-FB04296B16B9";
paths = (
{
closed = 1;
nodes = (
"32 0 LINE",
"96 0 LINE",
"76 672 LINE",
"32 672 LINE"
);
},
{
closed = 1;
nodes = (
"180 0 LINE",
"224 0 LINE",
"224 672 LINE",
"160 672 LINE"
);
},
{
closed = 1;
nodes = (
"160 0 LINE",
"204 0 LINE",
"96 672 LINE",
"52 672 LINE"
);
}
);
width = 256;
},
{
anchors = (
{
name = top;
position = "{128, 672}";
}
);
layerId = m002;
paths = (
{
closed = 1;
nodes = (
"32 0 LINE",
"96 0 LINE",
"76 672 LINE",
"32 672 LINE"
);
},
{
closed = 1;
nodes = (
"180 0 LINE",
"224 0 LINE",
"224 672 LINE",
"160 672 LINE"
);
},
{
closed = 1;
nodes = (
"160 0 LINE",
"204 0 LINE",
"96 672 LINE",
"52 672 LINE"
);
}
);
width = 256;
},
{
anchors = (
{
name = top;
position = "{128, 672}";
}
);
layerId = m003;
paths = (
{
closed = 1;
nodes = (
"32 0 LINE",
"96 0 LINE",
"76 672 LINE",
"32 672 LINE"
);
},
{
closed = 1;
nodes = (
"180 0 LINE",
"224 0 LINE",
"224 672 LINE",
"160 672 LINE"
);
},
{
closed = 1;
nodes = (
"160 0 LINE",
"204 0 LINE",
"96 672 LINE",
"52 672 LINE"
);
}
);
width = 256;
}
);
leftKerningGroup = E;
leftMetricsKey = H;
rightMetricsKey = H;
unicode = 004E;
},
{
color = 7;
glyphname = O;
layers = (
{
anchors = (
{
name = top;
position = "{126, 672}";
}
);
background = {
anchors = (
{
name = top;
position = "{128, 672}";
}
);
paths = (
{
closed = 1;
nodes = (
"96 112 LINE",
"96 560 LINE",
"32 560 LINE",
"32 112 LINE"
);
},
{
closed = 1;
nodes = (
"224 112 LINE",
"224 560 LINE",
"160 560 LINE",
"160 112 LINE"
);
},
{
closed = 1;
nodes = (
"208 602 LINE SMOOTH",
"208 648 OFFCURVE",
"179 676 OFFCURVE",
"128 676 CURVE",
"128 648 LINE",
"155 648 OFFCURVE",
"176 636 OFFCURVE",
"176 600 CURVE SMOOTH",
"176 560 LINE",
"208 560 LINE"
);
},
{
closed = 1;
nodes = (
"80 560 LINE",
"80 600 LINE SMOOTH",
"80 636 OFFCURVE",
"101 648 OFFCURVE",
"128 648 CURVE",
"128 676 LINE",
"77 676 OFFCURVE",
"48 648 OFFCURVE",
"48 602 CURVE SMOOTH",
"48 560 LINE"
);
},
{
closed = 1;
nodes = (
"48 70 LINE SMOOTH",
"48 24 OFFCURVE",
"77 -4 OFFCURVE",
"128 -4 CURVE",
"128 24 LINE",
"101 24 OFFCURVE",
"80 36 OFFCURVE",
"80 72 CURVE SMOOTH",
"80 112 LINE",
"48 112 LINE"
);
},
{
closed = 1;
nodes = (
"176 112 LINE",
"176 72 LINE SMOOTH",
"176 36 OFFCURVE",
"155 24 OFFCURVE",
"128 24 CURVE",
"128 -4 LINE",
"179 -4 OFFCURVE",
"208 24 OFFCURVE",
"208 70 CURVE SMOOTH",
"208 112 LINE"
);
}
);
};
components = (
{
name = _part.bogen;
transform = "{-1, 0, 0, 1, 222, 172}";
},
{
name = _part.bogen;
transform = "{1, 0, 0, 1, 30, 172}";
},
{
name = _part.bogen;
transform = "{1, 0, 0, -1, 30, 500}";
},
{
name = _part.bogen;
transform = "{-1, 0, 0, -1, 222, 500}";
}
);
layerId = "2FCEC9C4-D6B8-40A6-8432-FB04296B16B9";
paths = (
{
closed = 1;
nodes = (
"46 108 LINE",
"78 108 LINE",
"78 564 LINE",
"46 564 LINE"
);
},
{
closed = 1;
nodes = (
"174 108 LINE",
"206 108 LINE",
"206 564 LINE",
"174 564 LINE"
);
}
);
width = 252;
},
{
anchors = (
{
name = top;
position = "{190, 672}";
}
);
components = (
{
name = _part.bogen;
transform = "{-1, 0, 0, 1, 286, 176}";
},
{
name = _part.bogen;
transform = "{1, 0, 0, 1, 94, 176}";
},
{
name = _part.bogen;
transform = "{1, 0, 0, -1, 94, 496}";
},
{
name = _part.bogen;
transform = "{-1, 0, 0, -1, 286, 496}";
}
);
layerId = m002;
paths = (
{
closed = 1;
nodes = (
"30 160 LINE",
"158 160 LINE",
"158 512 LINE",
"30 512 LINE"
);
},
{
closed = 1;
nodes = (
"222 160 LINE",
"350 160 LINE",
"350 512 LINE",
"222 512 LINE"
);
}
);
width = 380;
},
{
anchors = (
{
name = top;
position = "{126, 672}";
}
);
components = (
{
name = _part.bogen;
transform = "{-1, 0, 0, 1, 222, 172}";
},
{
name = _part.bogen;
transform = "{1, 0, 0, 1, 30, 172}";
},
{
name = _part.bogen;
transform = "{1, 0, 0, -1, 30, 500}";
},
{
name = _part.bogen;
transform = "{-1, 0, 0, -1, 222, 500}";
}
);
layerId = m003;
paths = (
{
closed = 1;
nodes = (
"30 108 LINE",
"94 108 LINE",
"94 564 LINE",
"30 564 LINE"
);
},
{
closed = 1;
nodes = (
"158 108 LINE",
"222 108 LINE",
"222 564 LINE",
"158 564 LINE"
);
}
);
width = 252;
}
);
unicode = 004F;
userData = {
com.typemytype.robofont.mark = (
0.6,
0.609,
1,
1
);
};
},
{
color = 7;
glyphname = P;
layers = (
{
anchors = (
{
name = top;
position = "{128, 672}";
}
);
background = {
anchors = (
{
name = top;
position = "{128, 672}";
}
);
paths = (
{
closed = 1;
nodes = (
"96 0 LINE",
"96 672 LINE",
"32 672 LINE",
"32 0 LINE"
);
},
{
closed = 1;
nodes = (
"128 616 LINE",
"128 672 LINE",
"96 672 LINE",
"96 616 LINE"
);
},
{
closed = 1;
nodes = (
"128 280 LINE",
"128 336 LINE",
"96 336 LINE",
"96 280 LINE"
);
},
{
closed = 1;
nodes = (
"224 396 LINE",
"224 556 LINE",
"160 556 LINE",
"160 396 LINE"
);
},
{
closed = 1;
nodes = (
"208 598 LINE SMOOTH",
"208 644 OFFCURVE",
"179 672 OFFCURVE",
"128 672 CURVE",
"128 644 LINE",
"155 644 OFFCURVE",
"176 632 OFFCURVE",
"176 596 CURVE SMOOTH",
"176 556 LINE",
"208 556 LINE"
);
},
{
closed = 1;
nodes = (
"176 396 LINE",
"176 356 LINE SMOOTH",
"176 320 OFFCURVE",
"155 308 OFFCURVE",
"128 308 CURVE",
"128 280 LINE",
"179 280 OFFCURVE",
"208 308 OFFCURVE",
"208 354 CURVE SMOOTH",
"208 396 LINE"
);
}
);
};
components = (
{
name = _part.bogen;
transform = "{-1, 0, 0, 1, 224, 164}";
},
{
name = _part.bogen;
transform = "{-1, 0, 0, -1, 224, 788}";
}
);
layerId = "2FCEC9C4-D6B8-40A6-8432-FB04296B16B9";
paths = (
{
closed = 1;
nodes = (
"32 0 LINE",
"96 0 LINE",
"96 672 LINE",
"32 672 LINE"
);
},
{
closed = 1;
nodes = (
"96 616 LINE",
"128 616 LINE",
"128 672 LINE",
"96 672 LINE"
);
},
{
closed = 1;
nodes = (
"96 280 LINE",
"128 280 LINE",
"128 336 LINE",
"96 336 LINE"
);
},
{
closed = 1;
nodes = (
"160 396 LINE",
"224 396 LINE",
"224 556 LINE",
"160 556 LINE"
);
}
);
width = 246;
},
{
anchors = (
{
name = top;
position = "{192, 672}";
}
);
components = (
{
name = _part.bogen;
transform = "{-1, 0, 0, 1, 288, 164}";
},
{
name = _part.bogen;
transform = "{-1, 0, 0, -1, 288, 760}";
}
);
layerId = m002;
paths = (
{
closed = 1;
nodes = (
"32 0 LINE",
"160 0 LINE",
"160 672 LINE",
"32 672 LINE"
);
},
{
closed = 1;
nodes = (
"160 560 LINE",
"192 560 LINE",
"192 672 LINE",
"160 672 LINE"
);
},
{
closed = 1;
nodes = (
"160 252 LINE",
"192 252 LINE",
"192 364 LINE",
"160 364 LINE"
);
},
{
closed = 1;
nodes = (
"224 424 LINE",
"352 424 LINE",
"352 500 LINE",
"224 500 LINE"
);
}
);
width = 384;
},
{
anchors = (
{
name = top;
position = "{128, 672}";
}
);
components = (
{
name = _part.bogen;
transform = "{-1, 0, 0, 1, 224, 164}";
},
{
name = _part.bogen;
transform = "{-1, 0, 0, -1, 224, 788}";
}
);
layerId = m003;
paths = (
{
closed = 1;
nodes = (
"32 0 LINE",
"96 0 LINE",
"96 672 LINE",
"32 672 LINE"
);
},
{
closed = 1;
nodes = (
"96 616 LINE",
"128 616 LINE",
"128 672 LINE",
"96 672 LINE"
);
},
{
closed = 1;
nodes = (
"96 280 LINE",
"128 280 LINE",
"128 336 LINE",
"96 336 LINE"
);
},
{
closed = 1;
nodes = (
"160 396 LINE",
"224 396 LINE",
"224 556 LINE",
"160 556 LINE"
);
}
);
width = 246;
}
);
leftKerningGroup = E;
leftMetricsKey = H;
unicode = 0050;
userData = {
com.typemytype.robofont.mark = (
0.6,
0.609,
1,
1
);
};
},
{
color = 7;
glyphname = Q;
layers = (
{
anchors = (
{
name = top;
position = "{126, 672}";
}
);
background = {
anchors = (
{
name = top;
position = "{128, 672}";
}
);
paths = (
{
closed = 1;
nodes = (
"96 112 LINE",
"96 560 LINE",
"32 560 LINE",
"32 112 LINE"
);
},
{
closed = 1;
nodes = (
"224 112 LINE",
"224 560 LINE",
"160 560 LINE",
"160 112 LINE"
);
},
{
closed = 1;
nodes = (
"256 0 LINE",
"256 56 LINE",
"154 56 LINE",
"154 0 LINE"
);
},
{
closed = 1;
nodes = (
"208 602 LINE SMOOTH",
"208 648 OFFCURVE",
"179 676 OFFCURVE",
"128 676 CURVE",
"128 648 LINE",
"155 648 OFFCURVE",
"176 636 OFFCURVE",
"176 600 CURVE SMOOTH",
"176 560 LINE",
"208 560 LINE"
);
},
{
closed = 1;
nodes = (
"80 560 LINE",
"80 600 LINE SMOOTH",
"80 636 OFFCURVE",
"101 648 OFFCURVE",
"128 648 CURVE",
"128 676 LINE",
"77 676 OFFCURVE",
"48 648 OFFCURVE",
"48 602 CURVE SMOOTH",
"48 560 LINE"
);
},
{
closed = 1;
nodes = (
"48 70 LINE SMOOTH",
"48 24 OFFCURVE",
"77 -4 OFFCURVE",
"128 -4 CURVE",
"128 24 LINE",
"101 24 OFFCURVE",
"80 36 OFFCURVE",
"80 72 CURVE SMOOTH",
"80 112 LINE",
"48 112 LINE"
);
},
{
closed = 1;
nodes = (
"176 112 LINE",
"176 72 LINE SMOOTH",
"176 36 OFFCURVE",
"155 24 OFFCURVE",
"128 24 CURVE",
"128 -4 LINE",
"179 -4 OFFCURVE",
"208 24 OFFCURVE",
"208 70 CURVE SMOOTH",
"208 112 LINE"
);
}
);
};
components = (
{
name = _part.bogen;
transform = "{-1, 0, 0, 1, 222, 170}";
},
{
name = _part.bogen;
transform = "{1, 0, 0, 1, 30, 170}";
},
{
name = _part.bogen;
transform = "{1, 0, 0, -1, 30, 504}";
},
{
name = _part.bogen;
transform = "{-1, 0, 0, -1, 222, 504}";
}
);
layerId = "2FCEC9C4-D6B8-40A6-8432-FB04296B16B9";
paths = (
{
closed = 1;
nodes = (
"46 112 LINE",
"78 112 LINE",
"78 562 LINE",
"46 562 LINE"
);
},
{
closed = 1;
nodes = (
"174 112 LINE",
"206 112 LINE",
"206 562 LINE",
"174 562 LINE"
);
},
{
closed = 1;
nodes = (
"152 0 LINE",
"238 0 LINE",
"238 26 LINE",
"152 26 LINE"
);
}
);
width = 254;
},
{
anchors = (
{
name = top;
position = "{190, 672}";
}
);
components = (
{
name = _part.bogen;
transform = "{-1, 0, 0, 1, 286, 176}";
},
{
name = _part.bogen;
transform = "{1, 0, 0, 1, 94, 176}";
},
{
name = _part.bogen;
transform = "{1, 0, 0, -1, 94, 504}";
},
{
name = _part.bogen;
transform = "{-1, 0, 0, -1, 286, 504}";
}
);
layerId = m002;
paths = (
{
closed = 1;
nodes = (
"30 168 LINE",
"158 168 LINE",
"158 512 LINE",
"30 512 LINE"
);
},
{
closed = 1;
nodes = (
"222 168 LINE",
"350 168 LINE",
"350 512 LINE",
"222 512 LINE"
);
},
{
closed = 1;
nodes = (
"216 0 LINE",
"380 0 LINE",
"380 112 LINE",
"216 112 LINE"
);
}
);
width = 380;
},
{
anchors = (
{
name = top;
position = "{126, 672}";
}
);
components = (
{
name = _part.bogen;
transform = "{-1, 0, 0, 1, 222, 170}";
},
{
name = _part.bogen;
transform = "{1, 0, 0, 1, 30, 170}";
},
{
name = _part.bogen;
transform = "{1, 0, 0, -1, 30, 504}";
},
{
name = _part.bogen;
transform = "{-1, 0, 0, -1, 222, 504}";
}
);
layerId = m003;
paths = (
{
closed = 1;
nodes = (
"30 112 LINE",
"94 112 LINE",
"94 562 LINE",
"30 562 LINE"
);
},
{
closed = 1;
nodes = (
"158 112 LINE",
"222 112 LINE",
"222 562 LINE",
"158 562 LINE"
);
},
{
closed = 1;
nodes = (
"152 0 LINE",
"254 0 LINE",
"254 56 LINE",
"152 56 LINE"
);
}
);
width = 254;
}
);
leftMetricsKey = O;
widthMetricsKey = O;
unicode = 0051;
userData = {
com.typemytype.robofont.mark = (
0.6,
0.609,
1,
1
);
};
},
{
color = 7;
glyphname = R;
layers = (
{
anchors = (
{
name = top;
position = "{128, 672}";
}
);
background = {
anchors = (
{
name = top;
position = "{128, 672}";
}
);
paths = (
{
closed = 1;
nodes = (
"80 0 LINE",
"80 672 LINE",
"48 672 LINE",
"48 0 LINE"
);
},
{
closed = 1;
nodes = (
"128 644 LINE",
"128 672 LINE",
"80 672 LINE",
"80 644 LINE"
);
},
{
closed = 1;
nodes = (
"128 280 LINE",
"128 308 LINE",
"80 308 LINE",
"80 280 LINE"
);
},
{
closed = 1;
nodes = (
"208 396 LINE",
"208 556 LINE",
"176 556 LINE",
"176 396 LINE"
);
},
{
closed = 1;
nodes = (
"226 0 LINE",
"162 293 LINE",
"132 293 LINE",
"193 0 LINE"
);
},
{
closed = 1;
nodes = (
"208 598 LINE SMOOTH",
"208 644 OFFCURVE",
"179 672 OFFCURVE",
"128 672 CURVE",
"128 644 LINE",
"155 644 OFFCURVE",
"176 632 OFFCURVE",
"176 596 CURVE SMOOTH",
"176 556 LINE",
"208 556 LINE"
);
},
{
closed = 1;
nodes = (
"176 396 LINE",
"176 356 LINE SMOOTH",
"176 320 OFFCURVE",
"155 308 OFFCURVE",
"128 308 CURVE",
"128 280 LINE",
"179 280 OFFCURVE",
"208 308 OFFCURVE",
"208 354 CURVE SMOOTH",
"208 396 LINE"
);
}
);
};
components = (
{
name = _part.bogen;
transform = "{-1, 0, 0, 1, 224, 164}";
},
{
name = _part.bogen;
transform = "{-1, 0, 0, -1, 224, 788}";
}
);
layerId = "2FCEC9C4-D6B8-40A6-8432-FB04296B16B9";
paths = (
{
closed = 1;
nodes = (
"32 0 LINE",
"96 0 LINE",
"96 672 LINE",
"32 672 LINE"
);
},
{
closed = 1;
nodes = (
"96 616 LINE",
"128 616 LINE",
"128 672 LINE",
"96 672 LINE"
);
},
{
closed = 1;
nodes = (
"96 278 LINE",
"128 278 LINE",
"128 336 LINE",
"96 336 LINE"
);
},
{
closed = 1;
nodes = (
"160 396 LINE",
"224 396 LINE",
"224 556 LINE",
"160 556 LINE"
);
},
{
closed = 1;
nodes = (
"176 0 LINE",
"246 0 LINE",
"174 312 LINE",
"111 312 LINE"
);
}
);
width = 256;
},
{
anchors = (
{
name = top;
position = "{128, 672}";
}
);
components = (
{
name = _part.bogen;
transform = "{-1, 0, 0, 1, 224, 164}";
},
{
name = _part.bogen;
transform = "{-1, 0, 0, -1, 224, 788}";
}
);
layerId = m002;
paths = (
{
closed = 1;
nodes = (
"32 0 LINE",
"96 0 LINE",
"96 672 LINE",
"32 672 LINE"
);
},
{
closed = 1;
nodes = (
"96 616 LINE",
"128 616 LINE",
"128 672 LINE",
"96 672 LINE"
);
},
{
closed = 1;
nodes = (
"96 278 LINE",
"128 278 LINE",
"128 336 LINE",
"96 336 LINE"
);
},
{
closed = 1;
nodes = (
"160 396 LINE",
"224 396 LINE",
"224 556 LINE",
"160 556 LINE"
);
},
{
closed = 1;
nodes = (
"176 0 LINE",
"246 0 LINE",
"174 312 LINE",
"111 312 LINE"
);
}
);
width = 256;
},
{
anchors = (
{
name = top;
position = "{128, 672}";
}
);
components = (
{
name = _part.bogen;
transform = "{-1, 0, 0, 1, 224, 164}";
},
{
name = _part.bogen;
transform = "{-1, 0, 0, -1, 224, 788}";
}
);
layerId = m003;
paths = (
{
closed = 1;
nodes = (
"32 0 LINE",
"96 0 LINE",
"96 672 LINE",
"32 672 LINE"
);
},
{
closed = 1;
nodes = (
"96 616 LINE",
"128 616 LINE",
"128 672 LINE",
"96 672 LINE"
);
},
{
closed = 1;
nodes = (
"96 278 LINE",
"128 278 LINE",
"128 336 LINE",
"96 336 LINE"
);
},
{
closed = 1;
nodes = (
"160 396 LINE",
"224 396 LINE",
"224 556 LINE",
"160 556 LINE"
);
},
{
closed = 1;
nodes = (
"176 0 LINE",
"246 0 LINE",
"174 312 LINE",
"111 312 LINE"
);
}
);
width = 256;
}
);
leftKerningGroup = E;
leftMetricsKey = H;
unicode = 0052;
userData = {
com.typemytype.robofont.mark = (
0.6,
0.609,
1,
1
);
};
},
{
color = 7;
glyphname = S;
layers = (
{
anchors = (
{
name = top;
position = "{124, 672}";
}
);
background = {
anchors = (
{
name = top;
position = "{128, 672}";
}
);
paths = (
{
closed = 1;
nodes = (
"96 434 LINE",
"96 560 LINE",
"32 560 LINE",
"32 420 LINE"
);
},
{
closed = 1;
nodes = (
"224 112 LINE",
"224 252 LINE",
"160 238 LINE",
"160 112 LINE"
);
},
{
closed = 1;
nodes = (
"96 112 LINE",
"96 224 LINE",
"32 224 LINE",
"32 112 LINE"
);
},
{
closed = 1;
nodes = (
"224 448 LINE",
"224 560 LINE",
"160 560 LINE",
"160 448 LINE"
);
},
{
closed = 1;
nodes = (
"224 252 LINE",
"96 434 LINE",
"32 420 LINE",
"160 238 LINE"
);
},
{
closed = 1;
nodes = (
"208 602 LINE SMOOTH",
"208 648 OFFCURVE",
"179 676 OFFCURVE",
"128 676 CURVE",
"128 648 LINE",
"155 648 OFFCURVE",
"176 636 OFFCURVE",
"176 600 CURVE SMOOTH",
"176 560 LINE",
"208 560 LINE"
);
},
{
closed = 1;
nodes = (
"80 560 LINE",
"80 600 LINE SMOOTH",
"80 636 OFFCURVE",
"101 648 OFFCURVE",
"128 648 CURVE",
"128 676 LINE",
"77 676 OFFCURVE",
"48 648 OFFCURVE",
"48 602 CURVE SMOOTH",
"48 560 LINE"
);
},
{
closed = 1;
nodes = (
"48 70 LINE SMOOTH",
"48 24 OFFCURVE",
"77 -4 OFFCURVE",
"128 -4 CURVE",
"128 24 LINE",
"101 24 OFFCURVE",
"80 36 OFFCURVE",
"80 72 CURVE SMOOTH",
"80 112 LINE",
"48 112 LINE"
);
},
{
closed = 1;
nodes = (
"176 112 LINE",
"176 72 LINE SMOOTH",
"176 36 OFFCURVE",
"155 24 OFFCURVE",
"128 24 CURVE",
"128 -4 LINE",
"179 -4 OFFCURVE",
"208 24 OFFCURVE",
"208 70 CURVE SMOOTH",
"208 112 LINE"
);
}
);
};
components = (
{
name = _part.bogen;
transform = "{-1, 0, 0, 1, 220, 170}";
},
{
name = _part.bogen;
transform = "{1, 0, 0, 1, 28, 170}";
},
{
name = _part.bogen;
transform = "{1, 0, 0, -1, 28, 502}";
},
{
name = _part.bogen;
transform = "{-1, 0, 0, -1, 220, 502}";
}
);
layerId = "2FCEC9C4-D6B8-40A6-8432-FB04296B16B9";
paths = (
{
closed = 1;
nodes = (
"156 110 LINE",
"220 110 LINE",
"220 227 LINE SMOOTH",
"220 293 OFFCURVE",
"192 339 OFFCURVE",
"137 365 CURVE SMOOTH",
"97 384 OFFCURVE",
"92 409 OFFCURVE",
"92 453 CURVE SMOOTH",
"92 562 LINE",
"28 562 LINE",
"28 446 LINE SMOOTH",
"28 367 OFFCURVE",
"59 334 OFFCURVE",
"109 308 CURVE SMOOTH",
"151 286 OFFCURVE",
"156 258 OFFCURVE",
"156 219 CURVE SMOOTH"
);
},
{
closed = 1;
nodes = (
"156 448 LINE",
"220 448 LINE",
"220 562 LINE",
"156 562 LINE"
);
},
{
closed = 1;
nodes = (
"28 110 LINE",
"92 110 LINE",
"92 224 LINE",
"28 224 LINE"
);
}
);
width = 248;
},
{
anchors = (
{
name = top;
position = "{124, 672}";
}
);
components = (
{
name = _part.bogen;
transform = "{-1, 0, 0, 1, 220, 170}";
},
{
name = _part.bogen;
transform = "{1, 0, 0, 1, 28, 170}";
},
{
name = _part.bogen;
transform = "{1, 0, 0, -1, 28, 502}";
},
{
name = _part.bogen;
transform = "{-1, 0, 0, -1, 220, 502}";
}
);
layerId = m002;
paths = (
{
closed = 1;
nodes = (
"156 110 LINE",
"220 110 LINE",
"220 227 LINE SMOOTH",
"220 293 OFFCURVE",
"192 339 OFFCURVE",
"137 365 CURVE SMOOTH",
"97 384 OFFCURVE",
"92 409 OFFCURVE",
"92 453 CURVE SMOOTH",
"92 562 LINE",
"28 562 LINE",
"28 446 LINE SMOOTH",
"28 367 OFFCURVE",
"59 334 OFFCURVE",
"109 308 CURVE SMOOTH",
"151 286 OFFCURVE",
"156 258 OFFCURVE",
"156 219 CURVE SMOOTH"
);
},
{
closed = 1;
nodes = (
"156 448 LINE",
"220 448 LINE",
"220 562 LINE",
"156 562 LINE"
);
},
{
closed = 1;
nodes = (
"28 110 LINE",
"92 110 LINE",
"92 224 LINE",
"28 224 LINE"
);
}
);
width = 248;
},
{
anchors = (
{
name = top;
position = "{124, 672}";
}
);
components = (
{
name = _part.bogen;
transform = "{-1, 0, 0, 1, 220, 170}";
},
{
name = _part.bogen;
transform = "{1, 0, 0, 1, 28, 170}";
},
{
name = _part.bogen;
transform = "{1, 0, 0, -1, 28, 502}";
},
{
name = _part.bogen;
transform = "{-1, 0, 0, -1, 220, 502}";
}
);
layerId = m003;
paths = (
{
closed = 1;
nodes = (
"156 110 LINE",
"220 110 LINE",
"220 227 LINE SMOOTH",
"220 293 OFFCURVE",
"192 339 OFFCURVE",
"137 365 CURVE SMOOTH",
"97 384 OFFCURVE",
"92 409 OFFCURVE",
"92 453 CURVE SMOOTH",
"92 562 LINE",
"28 562 LINE",
"28 446 LINE SMOOTH",
"28 367 OFFCURVE",
"59 334 OFFCURVE",
"109 308 CURVE SMOOTH",
"151 286 OFFCURVE",
"156 258 OFFCURVE",
"156 219 CURVE SMOOTH"
);
},
{
closed = 1;
nodes = (
"156 448 LINE",
"220 448 LINE",
"220 562 LINE",
"156 562 LINE"
);
},
{
closed = 1;
nodes = (
"28 110 LINE",
"92 110 LINE",
"92 224 LINE",
"28 224 LINE"
);
}
);
width = 248;
}
);
leftKerningGroup = S;
rightKerningGroup = S;
unicode = 0053;
userData = {
com.typemytype.robofont.mark = (
0.6,
0.609,
1,
1
);
};
},
{
glyphname = T;
layers = (
{
anchors = (
{
name = top;
position = "{96, 672}";
}
);
background = {
anchors = (
{
name = top;
position = "{96, 672}";
}
);
paths = (
{
closed = 1;
nodes = (
"192 614 LINE",
"192 672 LINE",
"0 672 LINE",
"0 614 LINE"
);
},
{
closed = 1;
nodes = (
"128 0 LINE",
"128 616 LINE",
"64 616 LINE",
"64 0 LINE"
);
}
);
};
layerId = "2FCEC9C4-D6B8-40A6-8432-FB04296B16B9";
paths = (
{
closed = 1;
nodes = (
"112 0 LINE",
"112 644 LINE",
"192 644 LINE",
"192 672 LINE",
"0 672 LINE",
"0 644 LINE",
"80 644 LINE",
"80 0 LINE"
);
}
);
width = 192;
},
{
anchors = (
{
name = top;
position = "{160, 672}";
}
);
layerId = m002;
paths = (
{
closed = 1;
nodes = (
"224 0 LINE",
"224 558 LINE",
"320 558 LINE",
"320 672 LINE",
"0 672 LINE",
"0 558 LINE",
"96 558 LINE",
"96 0 LINE"
);
}
);
width = 320;
},
{
anchors = (
{
name = top;
position = "{96, 672}";
}
);
layerId = m003;
paths = (
{
closed = 1;
nodes = (
"128 0 LINE",
"128 614 LINE",
"192 614 LINE",
"192 672 LINE",
"0 672 LINE",
"0 614 LINE",
"64 614 LINE",
"64 0 LINE"
);
}
);
width = 192;
}
);
leftKerningGroup = T;
rightKerningGroup = T;
unicode = 0054;
},
{
color = 7;
glyphname = U;
layers = (
{
anchors = (
{
name = top;
position = "{126, 672}";
}
);
background = {
anchors = (
{
name = top;
position = "{128, 672}";
}
);
paths = (
{
closed = 1;
nodes = (
"96 112 LINE",
"96 672 LINE",
"32 672 LINE",
"32 112 LINE"
);
},
{
closed = 1;
nodes = (
"224 112 LINE",
"224 672 LINE",
"160 672 LINE",
"160 112 LINE"
);
},
{
closed = 1;
nodes = (
"48 70 LINE SMOOTH",
"48 24 OFFCURVE",
"77 -4 OFFCURVE",
"128 -4 CURVE",
"128 24 LINE",
"101 24 OFFCURVE",
"80 36 OFFCURVE",
"80 72 CURVE SMOOTH",
"80 112 LINE",
"48 112 LINE"
);
},
{
closed = 1;
nodes = (
"176 112 LINE",
"176 72 LINE SMOOTH",
"176 36 OFFCURVE",
"155 24 OFFCURVE",
"128 24 CURVE",
"128 -4 LINE",
"179 -4 OFFCURVE",
"208 24 OFFCURVE",
"208 70 CURVE SMOOTH",
"208 112 LINE"
);
}
);
};
components = (
{
name = _part.bogen;
transform = "{1, 0, 0, -1, 30, 504}";
},
{
name = _part.bogen;
transform = "{-1, 0, 0, -1, 222, 504}";
}
);
layerId = "2FCEC9C4-D6B8-40A6-8432-FB04296B16B9";
paths = (
{
closed = 1;
nodes = (
"46 112 LINE",
"78 112 LINE",
"78 672 LINE",
"46 672 LINE"
);
},
{
closed = 1;
nodes = (
"174 112 LINE",
"206 112 LINE",
"206 672 LINE",
"174 672 LINE"
);
}
);
width = 252;
},
{
anchors = (
{
name = top;
position = "{192, 672}";
}
);
components = (
{
name = _part.bogen;
transform = "{1, 0, 0, -1, 96, 496}";
},
{
name = _part.bogen;
transform = "{-1, 0, 0, -1, 288, 496}";
}
);
layerId = m002;
paths = (
{
closed = 1;
nodes = (
"32 160 LINE",
"160 160 LINE",
"160 672 LINE",
"32 672 LINE"
);
},
{
closed = 1;
nodes = (
"224 160 LINE",
"352 160 LINE",
"352 672 LINE",
"224 672 LINE"
);
}
);
width = 384;
},
{
anchors = (
{
name = top;
position = "{126, 672}";
}
);
components = (
{
name = _part.bogen;
transform = "{1, 0, 0, -1, 30, 500}";
},
{
name = _part.bogen;
transform = "{-1, 0, 0, -1, 222, 500}";
}
);
layerId = m003;
paths = (
{
closed = 1;
nodes = (
"30 108 LINE",
"94 108 LINE",
"94 672 LINE",
"30 672 LINE"
);
},
{
closed = 1;
nodes = (
"158 108 LINE",
"222 108 LINE",
"222 672 LINE",
"158 672 LINE"
);
}
);
width = 252;
}
);
leftKerningGroup = U;
rightKerningGroup = U;
unicode = 0055;
userData = {
com.typemytype.robofont.mark = (
0.6,
0.609,
1,
1
);
};
},
{
glyphname = V;
layers = (
{
anchors = (
{
name = top;
position = "{128, 672}";
}
);
background = {
anchors = (
{
name = top;
position = "{128, 672}";
}
);
paths = (
{
closed = 1;
nodes = (
"160 0 LINE",
"143 81 LINE",
"79 672 LINE",
"10 672 LINE",
"96 0 LINE"
);
},
{
closed = 1;
nodes = (
"176 672 LINE",
"113 80 LINE",
"96 0 LINE",
"160 0 LINE",
"246 672 LINE"
);
}
);
};
layerId = "2FCEC9C4-D6B8-40A6-8432-FB04296B16B9";
paths = (
{
closed = 1;
nodes = (
"84 0 LINE",
"107 0 LINE",
"126 56 LINE",
"124 204 OFFCURVE",
"116 297 OFFCURVE",
"104 448 CURVE SMOOTH",
"86 672 LINE",
"19 672 LINE"
);
},
{
closed = 1;
nodes = (
"96 0 LINE",
"160 0 LINE",
"160 66 LINE",
"96 66 LINE"
);
},
{
closed = 1;
nodes = (
"237 672 LINE",
"170 672 LINE",
"152 448 LINE SMOOTH",
"140 296 OFFCURVE",
"132 204 OFFCURVE",
"130 56 CURVE",
"149 0 LINE",
"172 0 LINE"
);
}
);
width = 256;
},
{
anchors = (
{
name = top;
position = "{128, 672}";
}
);
layerId = m002;
paths = (
{
closed = 1;
nodes = (
"84 0 LINE",
"107 0 LINE",
"126 56 LINE",
"124 204 OFFCURVE",
"116 297 OFFCURVE",
"104 448 CURVE SMOOTH",
"86 672 LINE",
"19 672 LINE"
);
},
{
closed = 1;
nodes = (
"96 0 LINE",
"160 0 LINE",
"160 66 LINE",
"96 66 LINE"
);
},
{
closed = 1;
nodes = (
"237 672 LINE",
"170 672 LINE",
"152 448 LINE SMOOTH",
"140 296 OFFCURVE",
"132 204 OFFCURVE",
"130 56 CURVE",
"149 0 LINE",
"172 0 LINE"
);
}
);
width = 256;
},
{
anchors = (
{
name = top;
position = "{128, 672}";
}
);
layerId = m003;
paths = (
{
closed = 1;
nodes = (
"84 0 LINE",
"107 0 LINE",
"126 56 LINE",
"124 204 OFFCURVE",
"116 297 OFFCURVE",
"104 448 CURVE SMOOTH",
"86 672 LINE",
"19 672 LINE"
);
},
{
closed = 1;
nodes = (
"96 0 LINE",
"160 0 LINE",
"160 66 LINE",
"96 66 LINE"
);
},
{
closed = 1;
nodes = (
"237 672 LINE",
"170 672 LINE",
"152 448 LINE SMOOTH",
"140 296 OFFCURVE",
"132 204 OFFCURVE",
"130 56 CURVE",
"149 0 LINE",
"172 0 LINE"
);
}
);
width = 256;
}
);
leftKerningGroup = V;
rightKerningGroup = V;
unicode = 0056;
},
{
glyphname = W;
layers = (
{
anchors = (
{
name = bottom;
position = "{182, 0}";
},
{
name = top;
position = "{182, 672}";
}
);
layerId = "2FCEC9C4-D6B8-40A6-8432-FB04296B16B9";
paths = (
{
closed = 1;
nodes = (
"76 0 LINE",
"108 56 LINE",
"108 205 OFFCURVE",
"106 356 OFFCURVE",
"92 504 CURVE SMOOTH",
"76 672 LINE",
"12 672 LINE"
);
},
{
closed = 1;
nodes = (
"146 0 LINE",
"162 168 LINE SMOOTH",
"176 316 OFFCURVE",
"178 467 OFFCURVE",
"178 616 CURVE",
"146 672 LINE",
"130 504 LINE SMOOTH",
"116 356 OFFCURVE",
"114 205 OFFCURVE",
"114 56 CURVE"
);
},
{
closed = 1;
nodes = (
"146 606 LINE",
"218 606 LINE",
"218 672 LINE",
"146 672 LINE"
);
},
{
closed = 1;
nodes = (
"76 0 LINE",
"146 0 LINE",
"146 66 LINE",
"76 66 LINE"
);
},
{
closed = 1;
nodes = (
"352 672 LINE",
"288 672 LINE",
"272 504 LINE SMOOTH",
"258 356 OFFCURVE",
"256 205 OFFCURVE",
"256 56 CURVE",
"288 0 LINE"
);
},
{
closed = 1;
nodes = (
"250 56 LINE",
"250 205 OFFCURVE",
"248 356 OFFCURVE",
"234 504 CURVE SMOOTH",
"218 672 LINE",
"186 616 LINE",
"186 467 OFFCURVE",
"188 316 OFFCURVE",
"202 168 CURVE SMOOTH",
"218 0 LINE"
);
},
{
closed = 1;
nodes = (
"218 0 LINE",
"288 0 LINE",
"288 66 LINE",
"218 66 LINE"
);
}
);
width = 364;
},
{
anchors = (
{
name = bottom;
position = "{182, 0}";
},
{
name = top;
position = "{182, 672}";
}
);
layerId = m002;
paths = (
{
closed = 1;
nodes = (
"76 0 LINE",
"108 56 LINE",
"108 205 OFFCURVE",
"106 356 OFFCURVE",
"92 504 CURVE SMOOTH",
"76 672 LINE",
"12 672 LINE"
);
},
{
closed = 1;
nodes = (
"146 0 LINE",
"162 168 LINE SMOOTH",
"176 316 OFFCURVE",
"178 467 OFFCURVE",
"178 616 CURVE",
"146 672 LINE",
"130 504 LINE SMOOTH",
"116 356 OFFCURVE",
"114 205 OFFCURVE",
"114 56 CURVE"
);
},
{
closed = 1;
nodes = (
"146 606 LINE",
"218 606 LINE",
"218 672 LINE",
"146 672 LINE"
);
},
{
closed = 1;
nodes = (
"76 0 LINE",
"146 0 LINE",
"146 66 LINE",
"76 66 LINE"
);
},
{
closed = 1;
nodes = (
"352 672 LINE",
"288 672 LINE",
"272 504 LINE SMOOTH",
"258 356 OFFCURVE",
"256 205 OFFCURVE",
"256 56 CURVE",
"288 0 LINE"
);
},
{
closed = 1;
nodes = (
"250 56 LINE",
"250 205 OFFCURVE",
"248 356 OFFCURVE",
"234 504 CURVE SMOOTH",
"218 672 LINE",
"186 616 LINE",
"186 467 OFFCURVE",
"188 316 OFFCURVE",
"202 168 CURVE SMOOTH",
"218 0 LINE"
);
},
{
closed = 1;
nodes = (
"218 0 LINE",
"288 0 LINE",
"288 66 LINE",
"218 66 LINE"
);
}
);
width = 364;
},
{
anchors = (
{
name = bottom;
position = "{182, 0}";
},
{
name = top;
position = "{182, 672}";
}
);
layerId = m003;
paths = (
{
closed = 1;
nodes = (
"76 0 LINE",
"108 56 LINE",
"108 205 OFFCURVE",
"106 356 OFFCURVE",
"92 504 CURVE SMOOTH",
"76 672 LINE",
"12 672 LINE"
);
},
{
closed = 1;
nodes = (
"146 0 LINE",
"162 168 LINE SMOOTH",
"176 316 OFFCURVE",
"178 467 OFFCURVE",
"178 616 CURVE",
"146 672 LINE",
"130 504 LINE SMOOTH",
"116 356 OFFCURVE",
"114 205 OFFCURVE",
"114 56 CURVE"
);
},
{
closed = 1;
nodes = (
"146 606 LINE",
"218 606 LINE",
"218 672 LINE",
"146 672 LINE"
);
},
{
closed = 1;
nodes = (
"76 0 LINE",
"146 0 LINE",
"146 66 LINE",
"76 66 LINE"
);
},
{
closed = 1;
nodes = (
"352 672 LINE",
"288 672 LINE",
"272 504 LINE SMOOTH",
"258 356 OFFCURVE",
"256 205 OFFCURVE",
"256 56 CURVE",
"288 0 LINE"
);
},
{
closed = 1;
nodes = (
"250 56 LINE",
"250 205 OFFCURVE",
"248 356 OFFCURVE",
"234 504 CURVE SMOOTH",
"218 672 LINE",
"186 616 LINE",
"186 467 OFFCURVE",
"188 316 OFFCURVE",
"202 168 CURVE SMOOTH",
"218 0 LINE"
);
},
{
closed = 1;
nodes = (
"218 0 LINE",
"288 0 LINE",
"288 66 LINE",
"218 66 LINE"
);
}
);
width = 364;
}
);
leftKerningGroup = W;
leftMetricsKey = W;
rightKerningGroup = W;
rightMetricsKey = W;
unicode = 0057;
},
{
glyphname = X;
layers = (
{
anchors = (
{
name = top;
position = "{128, 672}";
}
);
layerId = "2FCEC9C4-D6B8-40A6-8432-FB04296B16B9";
paths = (
{
closed = 1;
nodes = (
"125 343 CURVE SMOOTH",
"125 408 OFFCURVE",
"119 487 OFFCURVE",
"103 602 CURVE SMOOTH",
"94 672 LINE",
"23 672 LINE",
"78 343 LINE",
"11 0 LINE",
"82 0 LINE",
"95 86 LINE SMOOTH",
"108 174 OFFCURVE",
"125 256 OFFCURVE"
);
},
{
closed = 1;
nodes = (
"96 310 LINE",
"160 310 LINE",
"160 378 LINE",
"96 378 LINE"
);
},
{
closed = 1;
nodes = (
"129 343 CURVE SMOOTH",
"129 256 OFFCURVE",
"150 174 OFFCURVE",
"162 86 CURVE SMOOTH",
"174 0 LINE",
"244 0 LINE",
"177 343 LINE",
"233 672 LINE",
"162 672 LINE",
"152 602 LINE SMOOTH",
"136 487 OFFCURVE",
"129 408 OFFCURVE"
);
}
);
width = 256;
},
{
anchors = (
{
name = top;
position = "{128, 672}";
}
);
layerId = m002;
paths = (
{
closed = 1;
nodes = (
"125 343 CURVE SMOOTH",
"125 408 OFFCURVE",
"119 487 OFFCURVE",
"103 602 CURVE SMOOTH",
"94 672 LINE",
"23 672 LINE",
"78 343 LINE",
"11 0 LINE",
"82 0 LINE",
"95 86 LINE SMOOTH",
"108 174 OFFCURVE",
"125 256 OFFCURVE"
);
},
{
closed = 1;
nodes = (
"96 310 LINE",
"160 310 LINE",
"160 378 LINE",
"96 378 LINE"
);
},
{
closed = 1;
nodes = (
"129 343 CURVE SMOOTH",
"129 256 OFFCURVE",
"150 174 OFFCURVE",
"162 86 CURVE SMOOTH",
"174 0 LINE",
"244 0 LINE",
"177 343 LINE",
"233 672 LINE",
"162 672 LINE",
"152 602 LINE SMOOTH",
"136 487 OFFCURVE",
"129 408 OFFCURVE"
);
}
);
width = 256;
},
{
anchors = (
{
name = top;
position = "{128, 672}";
}
);
layerId = m003;
paths = (
{
closed = 1;
nodes = (
"125 343 CURVE SMOOTH",
"125 408 OFFCURVE",
"119 487 OFFCURVE",
"103 602 CURVE SMOOTH",
"94 672 LINE",
"23 672 LINE",
"78 343 LINE",
"11 0 LINE",
"82 0 LINE",
"95 86 LINE SMOOTH",
"108 174 OFFCURVE",
"125 256 OFFCURVE"
);
},
{
closed = 1;
nodes = (
"96 310 LINE",
"160 310 LINE",
"160 378 LINE",
"96 378 LINE"
);
},
{
closed = 1;
nodes = (
"129 343 CURVE SMOOTH",
"129 256 OFFCURVE",
"150 174 OFFCURVE",
"162 86 CURVE SMOOTH",
"174 0 LINE",
"244 0 LINE",
"177 343 LINE",
"233 672 LINE",
"162 672 LINE",
"152 602 LINE SMOOTH",
"136 487 OFFCURVE",
"129 408 OFFCURVE"
);
}
);
width = 256;
}
);
leftKerningGroup = X;
rightKerningGroup = K;
unicode = 0058;
},
{
glyphname = Y;
layers = (
{
anchors = (
{
name = top;
position = "{126, 672}";
}
);
layerId = "2FCEC9C4-D6B8-40A6-8432-FB04296B16B9";
paths = (
{
closed = 1;
nodes = (
"94 0 LINE",
"158 0 LINE",
"158 196 LINE",
"94 196 LINE"
);
},
{
closed = 1;
nodes = (
"112 196 LINE",
"158 196 LINE",
"238 672 LINE",
"170 672 LINE"
);
},
{
closed = 1;
nodes = (
"94 196 LINE",
"140 196 LINE",
"82 672 LINE",
"14 672 LINE"
);
}
);
width = 252;
},
{
anchors = (
{
name = top;
position = "{126, 672}";
}
);
layerId = m002;
paths = (
{
closed = 1;
nodes = (
"94 0 LINE",
"158 0 LINE",
"158 196 LINE",
"94 196 LINE"
);
},
{
closed = 1;
nodes = (
"112 196 LINE",
"158 196 LINE",
"238 672 LINE",
"170 672 LINE"
);
},
{
closed = 1;
nodes = (
"94 196 LINE",
"140 196 LINE",
"82 672 LINE",
"14 672 LINE"
);
}
);
width = 252;
},
{
anchors = (
{
name = top;
position = "{126, 672}";
}
);
layerId = m003;
paths = (
{
closed = 1;
nodes = (
"94 0 LINE",
"158 0 LINE",
"158 196 LINE",
"94 196 LINE"
);
},
{
closed = 1;
nodes = (
"112 196 LINE",
"158 196 LINE",
"238 672 LINE",
"170 672 LINE"
);
},
{
closed = 1;
nodes = (
"94 196 LINE",
"140 196 LINE",
"82 672 LINE",
"14 672 LINE"
);
}
);
width = 252;
}
);
leftKerningGroup = Y;
rightKerningGroup = Y;
unicode = 0059;
},
{
glyphname = Z;
layers = (
{
anchors = (
{
name = top;
position = "{112, 672}";
}
);
background = {
anchors = (
{
name = top;
position = "{128, 672}";
}
);
paths = (
{
closed = 1;
nodes = (
"180 614 LINE",
"224 628 LINE",
"224 672 LINE",
"36 672 LINE",
"36 614 LINE"
);
},
{
closed = 1;
nodes = (
"226 0 LINE",
"226 58 LINE",
"80 58 LINE",
"32 44 LINE",
"32 0 LINE"
);
},
{
closed = 1;
nodes = (
"100 56 LINE",
"224 628 LINE",
"156 616 LINE",
"32 44 LINE"
);
}
);
};
layerId = "2FCEC9C4-D6B8-40A6-8432-FB04296B16B9";
paths = (
{
closed = 1;
nodes = (
"20 614 LINE",
"164 614 LINE",
"208 628 LINE",
"208 672 LINE",
"20 672 LINE"
);
},
{
closed = 1;
nodes = (
"16 0 LINE",
"210 0 LINE",
"210 58 LINE",
"64 58 LINE",
"16 44 LINE"
);
},
{
closed = 1;
nodes = (
"16 44 LINE",
"84 56 LINE",
"208 628 LINE",
"140 616 LINE"
);
}
);
width = 226;
},
{
anchors = (
{
name = top;
position = "{112, 672}";
}
);
layerId = m002;
paths = (
{
closed = 1;
nodes = (
"20 614 LINE",
"164 614 LINE",
"208 628 LINE",
"208 672 LINE",
"20 672 LINE"
);
},
{
closed = 1;
nodes = (
"16 0 LINE",
"210 0 LINE",
"210 58 LINE",
"64 58 LINE",
"16 44 LINE"
);
},
{
closed = 1;
nodes = (
"16 44 LINE",
"84 56 LINE",
"208 628 LINE",
"140 616 LINE"
);
}
);
width = 226;
},
{
anchors = (
{
name = top;
position = "{112, 672}";
}
);
layerId = m003;
paths = (
{
closed = 1;
nodes = (
"20 614 LINE",
"164 614 LINE",
"208 628 LINE",
"208 672 LINE",
"20 672 LINE"
);
},
{
closed = 1;
nodes = (
"16 0 LINE",
"210 0 LINE",
"210 58 LINE",
"64 58 LINE",
"16 44 LINE"
);
},
{
closed = 1;
nodes = (
"16 44 LINE",
"84 56 LINE",
"208 628 LINE",
"140 616 LINE"
);
}
);
width = 226;
}
);
leftKerningGroup = Z;
rightKerningGroup = Z;
unicode = 005A;
},
{
glyphname = C.loclDEU;
layers = (
{
components = (
{
name = _part.bogen;
transform = "{1, 0, 0, 1, 30, 164}";
},
{
name = _part.bogen;
transform = "{1, 0, 0, -1, 30, 508}";
}
);
layerId = "2FCEC9C4-D6B8-40A6-8432-FB04296B16B9";
paths = (
{
closed = 1;
nodes = (
"46 116 LINE",
"78 116 LINE",
"78 556 LINE",
"46 556 LINE"
);
},
{
closed = 1;
nodes = (
"126 0 LINE",
"158 0 LINE",
"158 28 LINE",
"126 28 LINE"
);
},
{
closed = 1;
nodes = (
"126 644 LINE",
"158 644 LINE",
"158 672 LINE",
"126 672 LINE"
);
}
);
width = 192;
},
{
components = (
{
name = _part.bogen;
transform = "{1, 0, 0, 1, 96, 164}";
},
{
name = _part.bogen;
transform = "{1, 0, 0, -1, 96, 508}";
}
);
layerId = m002;
paths = (
{
closed = 1;
nodes = (
"32 172 LINE",
"160 172 LINE",
"160 500 LINE",
"32 500 LINE"
);
},
{
closed = 1;
nodes = (
"192 0 LINE",
"272 0 LINE",
"272 112 LINE",
"192 112 LINE"
);
},
{
closed = 1;
nodes = (
"192 560 LINE",
"272 560 LINE",
"272 672 LINE",
"192 672 LINE"
);
}
);
width = 292;
},
{
components = (
{
name = _part.bogen;
transform = "{1, 0, 0, 1, 30, 164}";
},
{
name = _part.bogen;
transform = "{1, 0, 0, -1, 30, 508}";
}
);
layerId = m003;
paths = (
{
closed = 1;
nodes = (
"30 116 LINE",
"94 116 LINE",
"94 556 LINE",
"30 556 LINE"
);
},
{
closed = 1;
nodes = (
"126 0 LINE",
"174 0 LINE",
"174 56 LINE",
"126 56 LINE"
);
},
{
closed = 1;
nodes = (
"126 616 LINE",
"174 616 LINE",
"174 672 LINE",
"126 672 LINE"
);
}
);
width = 192;
}
);
leftKerningGroup = O;
leftMetricsKey = C;
},
{
glyphname = A.ss01;
layers = (
{
anchors = (
{
name = top;
position = "{110, 672}";
}
);
background = {
paths = (
{
closed = 1;
nodes = (
"62 0 LINE",
"62 560 LINE",
"30 560 LINE",
"30 0 LINE"
);
},
{
closed = 1;
nodes = (
"190 0 LINE",
"190 560 LINE",
"158 560 LINE",
"158 0 LINE"
);
},
{
closed = 1;
nodes = (
"177 321 LINE",
"177 349 LINE",
"54 349 LINE",
"54 321 LINE"
);
},
{
closed = 1;
nodes = (
"62 560 LINE",
"62 600 LINE SMOOTH",
"62 636 OFFCURVE",
"83 648 OFFCURVE",
"110 648 CURVE",
"110 676 LINE",
"59 676 OFFCURVE",
"30 648 OFFCURVE",
"30 602 CURVE SMOOTH",
"30 560 LINE"
);
},
{
closed = 1;
nodes = (
"190 602 LINE SMOOTH",
"190 648 OFFCURVE",
"161 676 OFFCURVE",
"110 676 CURVE",
"110 648 LINE",
"137 648 OFFCURVE",
"158 636 OFFCURVE",
"158 600 CURVE SMOOTH",
"158 560 LINE",
"190 560 LINE"
);
}
);
};
layerId = "2FCEC9C4-D6B8-40A6-8432-FB04296B16B9";
paths = (
{
closed = 1;
nodes = (
"62 0 LINE",
"62 321 LINE",
"158 321 LINE",
"158 0 LINE",
"190 0 LINE",
"190 602 LINE SMOOTH",
"190 648 OFFCURVE",
"161 676 OFFCURVE",
"110 676 CURVE SMOOTH",
"59 676 OFFCURVE",
"30 648 OFFCURVE",
"30 602 CURVE SMOOTH",
"30 0 LINE"
);
},
{
closed = 1;
nodes = (
"62 600 LINE SMOOTH",
"62 636 OFFCURVE",
"83 648 OFFCURVE",
"110 648 CURVE SMOOTH",
"137 648 OFFCURVE",
"158 636 OFFCURVE",
"158 600 CURVE SMOOTH",
"158 349 LINE",
"62 349 LINE"
);
}
);
width = 220;
},
{
anchors = (
{
name = top;
position = "{126, 672}";
}
);
layerId = m002;
paths = (
{
closed = 1;
nodes = (
"94 0 LINE",
"94 306 LINE",
"158 306 LINE",
"158 0 LINE",
"222 0 LINE",
"222 595 LINE SMOOTH",
"222 648 OFFCURVE",
"187 676 OFFCURVE",
"126 676 CURVE SMOOTH",
"65 676 OFFCURVE",
"30 648 OFFCURVE",
"30 595 CURVE SMOOTH",
"30 0 LINE"
);
},
{
closed = 1;
nodes = (
"94 591 LINE SMOOTH",
"94 613 OFFCURVE",
"105 620 OFFCURVE",
"126 620 CURVE SMOOTH",
"147 620 OFFCURVE",
"158 613 OFFCURVE",
"158 591 CURVE SMOOTH",
"158 365 LINE",
"94 365 LINE"
);
}
);
width = 252;
},
{
anchors = (
{
name = top;
position = "{126, 672}";
}
);
layerId = m003;
paths = (
{
closed = 1;
nodes = (
"94 0 LINE",
"94 306 LINE",
"158 306 LINE",
"158 0 LINE",
"222 0 LINE",
"222 595 LINE SMOOTH",
"222 648 OFFCURVE",
"187 676 OFFCURVE",
"126 676 CURVE SMOOTH",
"65 676 OFFCURVE",
"30 648 OFFCURVE",
"30 595 CURVE SMOOTH",
"30 0 LINE"
);
},
{
closed = 1;
nodes = (
"94 591 LINE SMOOTH",
"94 613 OFFCURVE",
"105 620 OFFCURVE",
"126 620 CURVE SMOOTH",
"147 620 OFFCURVE",
"158 613 OFFCURVE",
"158 591 CURVE SMOOTH",
"158 365 LINE",
"94 365 LINE"
);
}
);
width = 252;
}
);
leftMetricsKey = U;
rightMetricsKey = U;
userData = {
com.typemytype.robofont.mark = (
0.967,
0.6,
1,
1
);
};
},
{
color = 7;
glyphname = M.ss01;
layers = (
{
anchors = (
{
name = top;
position = "{190, 672}";
}
);
components = (
{
name = _part.bogen;
transform = "{-1, 0, 0, 1, 222, 168}";
},
{
name = _part.bogen;
transform = "{1, 0, 0, 1, 30, 168}";
},
{
name = _part.bogen;
transform = "{-1, 0, 0, 1, 350, 168}";
},
{
name = _part.bogen;
transform = "{1, 0, 0, 1, 158, 168}";
}
);
layerId = "2FCEC9C4-D6B8-40A6-8432-FB04296B16B9";
paths = (
{
closed = 1;
nodes = (
"30 0 LINE",
"94 0 LINE",
"94 560 LINE",
"30 560 LINE"
);
},
{
closed = 1;
nodes = (
"158 0 LINE",
"222 0 LINE",
"222 560 LINE",
"158 560 LINE"
);
},
{
closed = 1;
nodes = (
"286 0 LINE",
"350 0 LINE",
"350 560 LINE",
"286 560 LINE"
);
}
);
width = 380;
},
{
anchors = (
{
name = top;
position = "{190, 672}";
}
);
components = (
{
name = _part.bogen;
transform = "{-1, 0, 0, 1, 222, 168}";
},
{
name = _part.bogen;
transform = "{1, 0, 0, 1, 30, 168}";
},
{
name = _part.bogen;
transform = "{-1, 0, 0, 1, 350, 168}";
},
{
name = _part.bogen;
transform = "{1, 0, 0, 1, 158, 168}";
}
);
layerId = m002;
paths = (
{
closed = 1;
nodes = (
"30 0 LINE",
"94 0 LINE",
"94 560 LINE",
"30 560 LINE"
);
},
{
closed = 1;
nodes = (
"158 0 LINE",
"222 0 LINE",
"222 560 LINE",
"158 560 LINE"
);
},
{
closed = 1;
nodes = (
"286 0 LINE",
"350 0 LINE",
"350 560 LINE",
"286 560 LINE"
);
}
);
width = 380;
},
{
anchors = (
{
name = top;
position = "{190, 672}";
}
);
components = (
{
name = _part.bogen;
transform = "{-1, 0, 0, 1, 222, 168}";
},
{
name = _part.bogen;
transform = "{1, 0, 0, 1, 30, 168}";
},
{
name = _part.bogen;
transform = "{-1, 0, 0, 1, 350, 168}";
},
{
name = _part.bogen;
transform = "{1, 0, 0, 1, 158, 168}";
}
);
layerId = m003;
paths = (
{
closed = 1;
nodes = (
"30 0 LINE",
"94 0 LINE",
"94 560 LINE",
"30 560 LINE"
);
},
{
closed = 1;
nodes = (
"158 0 LINE",
"222 0 LINE",
"222 560 LINE",
"158 560 LINE"
);
},
{
closed = 1;
nodes = (
"286 0 LINE",
"350 0 LINE",
"350 560 LINE",
"286 560 LINE"
);
}
);
width = 380;
}
);
leftMetricsKey = U;
rightMetricsKey = U;
userData = {
com.typemytype.robofont.mark = (
0.967,
0.6,
1,
1
);
};
},
{
color = 7;
glyphname = W.ss01;
layers = (
{
anchors = (
{
name = top;
position = "{190, 672}";
}
);
components = (
{
name = _part.bogen;
transform = "{1, 0, 0, -1, 30, 504}";
},
{
name = _part.bogen;
transform = "{-1, 0, 0, -1, 222, 504}";
},
{
name = _part.bogen;
transform = "{-1, 0, 0, -1, 350, 504}";
},
{
name = _part.bogen;
transform = "{1, 0, 0, -1, 158, 504}";
}
);
layerId = "2FCEC9C4-D6B8-40A6-8432-FB04296B16B9";
paths = (
{
closed = 1;
nodes = (
"46 112 LINE",
"78 112 LINE",
"78 672 LINE",
"46 672 LINE"
);
},
{
closed = 1;
nodes = (
"174 112 LINE",
"206 112 LINE",
"206 672 LINE",
"174 672 LINE"
);
},
{
closed = 1;
nodes = (
"302 112 LINE",
"334 112 LINE",
"334 672 LINE",
"302 672 LINE"
);
}
);
width = 380;
},
{
anchors = (
{
name = top;
position = "{190, 672}";
}
);
components = (
{
name = _part.bogen;
transform = "{1, 0, 0, -1, 30, 504}";
},
{
name = _part.bogen;
transform = "{-1, 0, 0, -1, 222, 504}";
},
{
name = _part.bogen;
transform = "{-1, 0, 0, -1, 350, 504}";
},
{
name = _part.bogen;
transform = "{1, 0, 0, -1, 158, 504}";
}
);
layerId = m002;
paths = (
{
closed = 1;
nodes = (
"30 112 LINE",
"94 112 LINE",
"94 672 LINE",
"30 672 LINE"
);
},
{
closed = 1;
nodes = (
"158 112 LINE",
"222 112 LINE",
"222 672 LINE",
"158 672 LINE"
);
},
{
closed = 1;
nodes = (
"286 112 LINE",
"350 112 LINE",
"350 672 LINE",
"286 672 LINE"
);
}
);
width = 380;
},
{
anchors = (
{
name = top;
position = "{190, 672}";
}
);
components = (
{
name = _part.bogen;
transform = "{1, 0, 0, -1, 30, 504}";
},
{
name = _part.bogen;
transform = "{-1, 0, 0, -1, 222, 504}";
},
{
name = _part.bogen;
transform = "{-1, 0, 0, -1, 350, 504}";
},
{
name = _part.bogen;
transform = "{1, 0, 0, -1, 158, 504}";
}
);
layerId = m003;
paths = (
{
closed = 1;
nodes = (
"30 112 LINE",
"94 112 LINE",
"94 672 LINE",
"30 672 LINE"
);
},
{
closed = 1;
nodes = (
"158 112 LINE",
"222 112 LINE",
"222 672 LINE",
"158 672 LINE"
);
},
{
closed = 1;
nodes = (
"286 112 LINE",
"350 112 LINE",
"350 672 LINE",
"286 672 LINE"
);
}
);
width = 380;
}
);
leftMetricsKey = U;
rightMetricsKey = U;
userData = {
com.typemytype.robofont.mark = (
0.967,
0.6,
1,
1
);
};
},
{
color = 7;
glyphname = Y.ss01;
layers = (
{
anchors = (
{
name = top;
position = "{128, 672}";
}
);
components = (
{
name = _part.bogen;
transform = "{1, 0, 0, -1, 32, 772}";
},
{
name = _part.bogen;
transform = "{-1, 0, 0, -1, 224, 772}";
}
);
layerId = "2FCEC9C4-D6B8-40A6-8432-FB04296B16B9";
paths = (
{
closed = 1;
nodes = (
"48 380 LINE",
"80 380 LINE",
"80 672 LINE",
"48 672 LINE"
);
},
{
closed = 1;
nodes = (
"176 380 LINE",
"208 380 LINE",
"208 672 LINE",
"176 672 LINE"
);
},
{
closed = 1;
nodes = (
"112 0 LINE",
"144 0 LINE",
"144 280 LINE",
"112 280 LINE"
);
}
);
width = 256;
},
{
anchors = (
{
name = top;
position = "{128, 672}";
}
);
components = (
{
name = _part.bogen;
transform = "{1, 0, 0, -1, 32, 772}";
},
{
name = _part.bogen;
transform = "{-1, 0, 0, -1, 224, 772}";
}
);
layerId = m002;
paths = (
{
closed = 1;
nodes = (
"32 380 LINE",
"96 380 LINE",
"96 672 LINE",
"32 672 LINE"
);
},
{
closed = 1;
nodes = (
"160 380 LINE",
"224 380 LINE",
"224 672 LINE",
"160 672 LINE"
);
},
{
closed = 1;
nodes = (
"96 0 LINE",
"160 0 LINE",
"160 280 LINE",
"96 280 LINE"
);
}
);
width = 256;
},
{
anchors = (
{
name = top;
position = "{128, 672}";
}
);
components = (
{
name = _part.bogen;
transform = "{1, 0, 0, -1, 32, 772}";
},
{
name = _part.bogen;
transform = "{-1, 0, 0, -1, 224, 772}";
}
);
layerId = m003;
paths = (
{
closed = 1;
nodes = (
"32 380 LINE",
"96 380 LINE",
"96 672 LINE",
"32 672 LINE"
);
},
{
closed = 1;
nodes = (
"160 380 LINE",
"224 380 LINE",
"224 672 LINE",
"160 672 LINE"
);
},
{
closed = 1;
nodes = (
"96 0 LINE",
"160 0 LINE",
"160 280 LINE",
"96 280 LINE"
);
}
);
width = 256;
}
);
leftKerningGroup = Yss01;
rightKerningGroup = Yss01;
userData = {
com.typemytype.robofont.mark = (
0.6,
0.609,
1,
1
);
};
},
{
glyphname = N.ss03;
layers = (
{
anchors = (
{
name = top;
position = "{128, 672}";
}
);
layerId = "2FCEC9C4-D6B8-40A6-8432-FB04296B16B9";
paths = (
{
closed = 1;
nodes = (
"32 0 LINE",
"96 0 LINE",
"96 224 LINE",
"43 520 LINE",
"32 520 LINE"
);
},
{
closed = 1;
nodes = (
"160 448 LINE",
"213 166 LINE",
"224 166 LINE",
"224 672 LINE",
"160 672 LINE"
);
},
{
closed = 1;
nodes = (
"158 0 LINE",
"224 0 LINE",
"98 672 LINE",
"32 672 LINE"
);
}
);
width = 256;
},
{
anchors = (
{
name = top;
position = "{128, 672}";
}
);
layerId = m002;
paths = (
{
closed = 1;
nodes = (
"32 0 LINE",
"96 0 LINE",
"96 224 LINE",
"43 520 LINE",
"32 520 LINE"
);
},
{
closed = 1;
nodes = (
"160 448 LINE",
"213 166 LINE",
"224 166 LINE",
"224 672 LINE",
"160 672 LINE"
);
},
{
closed = 1;
nodes = (
"158 0 LINE",
"224 0 LINE",
"98 672 LINE",
"32 672 LINE"
);
}
);
width = 256;
},
{
anchors = (
{
name = top;
position = "{128, 672}";
}
);
layerId = m003;
paths = (
{
closed = 1;
nodes = (
"32 0 LINE",
"96 0 LINE",
"96 224 LINE",
"43 520 LINE",
"32 520 LINE"
);
},
{
closed = 1;
nodes = (
"160 448 LINE",
"213 166 LINE",
"224 166 LINE",
"224 672 LINE",
"160 672 LINE"
);
},
{
closed = 1;
nodes = (
"158 0 LINE",
"224 0 LINE",
"98 672 LINE",
"32 672 LINE"
);
}
);
width = 256;
}
);
leftMetricsKey = H;
rightMetricsKey = H;
},
{
glyphname = V.ss03;
layers = (
{
anchors = (
{
name = top;
position = "{139, 672}";
}
);
layerId = "2FCEC9C4-D6B8-40A6-8432-FB04296B16B9";
paths = (
{
closed = 1;
nodes = (
"107 0 LINE",
"172 0 LINE",
"84 672 LINE",
"19 672 LINE"
);
},
{
closed = 1;
nodes = (
"259 672 LINE",
"194 672 LINE",
"149 332 LINE",
"179 119 LINE",
"187 119 LINE"
);
}
);
width = 278;
},
{
anchors = (
{
name = top;
position = "{139, 672}";
}
);
layerId = m002;
paths = (
{
closed = 1;
nodes = (
"107 0 LINE",
"172 0 LINE",
"84 672 LINE",
"19 672 LINE"
);
},
{
closed = 1;
nodes = (
"259 672 LINE",
"194 672 LINE",
"149 332 LINE",
"179 119 LINE",
"187 119 LINE"
);
}
);
width = 278;
},
{
anchors = (
{
name = top;
position = "{139, 672}";
}
);
layerId = m003;
paths = (
{
closed = 1;
nodes = (
"107 0 LINE",
"172 0 LINE",
"84 672 LINE",
"19 672 LINE"
);
},
{
closed = 1;
nodes = (
"259 672 LINE",
"194 672 LINE",
"149 332 LINE",
"179 119 LINE",
"187 119 LINE"
);
}
);
width = 278;
}
);
leftKerningGroup = V;
leftMetricsKey = V;
rightKerningGroup = V;
rightMetricsKey = V;
},
{
export = 0;
glyphname = W.001;
layers = (
{
layerId = "2FCEC9C4-D6B8-40A6-8432-FB04296B16B9";
paths = (
{
closed = 1;
nodes = (
"96 0 LINE",
"160 0 LINE",
"137 81 LINE",
"80 672 LINE",
"12 672 LINE"
);
},
{
closed = 1;
nodes = (
"234 672 LINE",
"175 672 LINE",
"119 80 LINE",
"96 0 LINE",
"160 0 LINE"
);
},
{
closed = 1;
nodes = (
"260 0 LINE",
"324 0 LINE",
"301 81 LINE",
"244 672 LINE",
"186 672 LINE"
);
},
{
closed = 1;
nodes = (
"408 672 LINE",
"339 672 LINE",
"283 80 LINE",
"260 0 LINE",
"324 0 LINE"
);
}
);
width = 420;
},
{
layerId = m002;
paths = (
{
closed = 1;
nodes = (
"96 0 LINE",
"160 0 LINE",
"137 81 LINE",
"80 672 LINE",
"12 672 LINE"
);
},
{
closed = 1;
nodes = (
"234 672 LINE",
"175 672 LINE",
"119 80 LINE",
"96 0 LINE",
"160 0 LINE"
);
},
{
closed = 1;
nodes = (
"260 0 LINE",
"324 0 LINE",
"301 81 LINE",
"244 672 LINE",
"186 672 LINE"
);
},
{
closed = 1;
nodes = (
"408 672 LINE",
"339 672 LINE",
"283 80 LINE",
"260 0 LINE",
"324 0 LINE"
);
}
);
width = 420;
},
{
layerId = m003;
paths = (
{
closed = 1;
nodes = (
"96 0 LINE",
"160 0 LINE",
"137 81 LINE",
"80 672 LINE",
"12 672 LINE"
);
},
{
closed = 1;
nodes = (
"234 672 LINE",
"175 672 LINE",
"119 80 LINE",
"96 0 LINE",
"160 0 LINE"
);
},
{
closed = 1;
nodes = (
"260 0 LINE",
"324 0 LINE",
"301 81 LINE",
"244 672 LINE",
"186 672 LINE"
);
},
{
closed = 1;
nodes = (
"408 672 LINE",
"339 672 LINE",
"283 80 LINE",
"260 0 LINE",
"324 0 LINE"
);
}
);
width = 420;
}
);
leftMetricsKey = W;
rightMetricsKey = W;
},
{
color = 7;
glyphname = a;
layers = (
{
anchors = (
{
name = top;
position = "{128, 504}";
}
);
background = {
anchors = (
{
name = top;
position = "{128, 504}";
}
);
paths = (
{
closed = 1;
nodes = (
"80 112 LINE",
"80 224 LINE",
"48 224 LINE",
"48 112 LINE"
);
},
{
closed = 1;
nodes = (
"208 112 LINE",
"208 392 LINE",
"176 392 LINE",
"176 112 LINE"
);
},
{
closed = 1;
nodes = (
"208 434 LINE SMOOTH",
"208 480 OFFCURVE",
"179 508 OFFCURVE",
"128 508 CURVE",
"128 480 LINE",
"155 480 OFFCURVE",
"176 468 OFFCURVE",
"176 432 CURVE SMOOTH",
"176 392 LINE",
"208 392 LINE"
);
},
{
closed = 1;
nodes = (
"80 392 LINE",
"80 432 LINE SMOOTH",
"80 468 OFFCURVE",
"101 480 OFFCURVE",
"128 480 CURVE",
"128 508 LINE",
"77 508 OFFCURVE",
"48 480 OFFCURVE",
"48 434 CURVE SMOOTH",
"48 392 LINE"
);
},
{
closed = 1;
nodes = (
"48 28 OFFCURVE",
"78 0 OFFCURVE",
"123 0 CURVE SMOOTH",
"150 0 OFFCURVE",
"167 11 OFFCURVE",
"178 24 CURVE",
"180 24 LINE",
"184 0 LINE",
"208 0 LINE",
"208 112 LINE",
"176 112 LINE",
"176 76 LINE SMOOTH",
"176 40 OFFCURVE",
"155 28 OFFCURVE",
"128 28 CURVE SMOOTH",
"101 28 OFFCURVE",
"80 40 OFFCURVE",
"80 76 CURVE SMOOTH",
"80 112 LINE",
"48 112 LINE",
"48 74 LINE SMOOTH"
);
},
{
closed = 1;
nodes = (
"48 224 LINE",
"80 224 LINE",
"80 260 LINE SMOOTH",
"80 296 OFFCURVE",
"101 308 OFFCURVE",
"128 308 CURVE SMOOTH",
"155 308 OFFCURVE",
"176 296 OFFCURVE",
"176 260 CURVE SMOOTH",
"176 224 LINE",
"208 224 LINE",
"208 336 LINE",
"184 336 LINE",
"180 312 LINE",
"178 312 LINE",
"167 325 OFFCURVE",
"150 336 OFFCURVE",
"123 336 CURVE SMOOTH",
"78 336 OFFCURVE",
"48 308 OFFCURVE",
"48 262 CURVE SMOOTH"
);
}
);
};
components = (
{
name = _part.bogen;
transform = "{-1, 0, 0, 1, 224, 0}";
},
{
name = _part.bogen;
transform = "{1, 0, 0, 1, 32, 0}";
},
{
name = _part.ansatz;
transform = "{-1, 0, 0, -1, 208, 504}";
},
{
name = _part.ansatz;
transform = "{-1, 0, 0, 1, 208, -168}";
}
);
layerId = "2FCEC9C4-D6B8-40A6-8432-FB04296B16B9";
paths = (
{
closed = 1;
nodes = (
"48 112 LINE",
"80 112 LINE",
"80 224 LINE",
"48 224 LINE"
);
},
{
closed = 1;
nodes = (
"176 112 LINE",
"208 112 LINE",
"208 392 LINE",
"176 392 LINE"
);
}
);
width = 256;
},
{
anchors = (
{
name = top;
position = "{192, 504}";
}
);
components = (
{
name = _part.bogen;
transform = "{-1, 0, 0, 1, 288, 0}";
},
{
name = _part.bogen;
transform = "{1, 0, 0, 1, 96, 0}";
},
{
name = _part.ansatz;
transform = "{-1, 0, 0, -1, 384, 504}";
},
{
name = _part.ansatz;
transform = "{-1, 0, 0, 1, 384, -180}";
}
);
layerId = m002;
paths = (
{
closed = 1;
nodes = (
"32 156 LINE",
"160 156 LINE",
"160 168 LINE",
"32 168 LINE"
);
},
{
closed = 1;
nodes = (
"224 112 LINE",
"352 112 LINE",
"352 336 LINE",
"224 336 LINE"
);
}
);
width = 384;
},
{
anchors = (
{
name = top;
position = "{128, 504}";
}
);
components = (
{
name = _part.bogen;
transform = "{-1, 0, 0, 1, 224, 0}";
},
{
name = _part.bogen;
transform = "{1, 0, 0, 1, 32, 0}";
},
{
name = _part.ansatz;
transform = "{-1, 0, 0, -1, 224, 504}";
},
{
name = _part.ansatz;
transform = "{-1, 0, 0, 1, 224, -168}";
}
);
layerId = m003;
paths = (
{
closed = 1;
nodes = (
"32 112 LINE",
"96 112 LINE",
"96 224 LINE",
"32 224 LINE"
);
},
{
closed = 1;
nodes = (
"160 112 LINE",
"224 112 LINE",
"224 392 LINE",
"160 392 LINE"
);
}
);
width = 256;
}
);
leftKerningGroup = a;
rightKerningGroup = n;
rightMetricsKey = n;
unicode = 0061;
userData = {
com.typemytype.robofont.mark = (
0.6,
0.609,
1,
1
);
};
},
{
color = 1;
glyphname = ae;
layers = (
{
anchors = (
{
name = top;
position = "{128, 504}";
}
);
components = (
{
alignment = -1;
name = _part.bogen;
transform = "{-1, 0, 0, 1, 224, 0}";
},
{
alignment = -1;
name = _part.bogen;
transform = "{1, 0, 0, 1, 32, 0}";
},
{
alignment = -1;
name = _part.ansatz;
transform = "{-1, 0, 0, 1, 208, -168}";
},
{
alignment = -1;
name = _part.bogen;
transform = "{-1, 0, 0, 1, 352, 0}";
},
{
alignment = -1;
name = _part.bogen;
transform = "{1, 0, 0, 1, 160, 0}";
},
{
alignment = -1;
name = _part.bogen;
transform = "{1, 0, 0, -1, 160, 504}";
},
{
alignment = -1;
name = _part.bogen;
transform = "{-1, 0, 0, -1, 352, 504}";
},
{
alignment = -1;
name = _part.bogen;
transform = "{1, 0, 0, -1, 32, 504}";
},
{
alignment = -1;
name = _part.bogen;
transform = "{-1, 0, 0, -1, 224, 504}";
}
);
layerId = "2FCEC9C4-D6B8-40A6-8432-FB04296B16B9";
paths = (
{
closed = 1;
nodes = (
"48 112 LINE",
"80 112 LINE",
"80 224 LINE",
"48 224 LINE"
);
},
{
closed = 1;
nodes = (
"176 112 LINE",
"208 112 LINE",
"208 392 LINE",
"176 392 LINE"
);
},
{
closed = 1;
nodes = (
"176 112 LINE",
"208 112 LINE",
"208 392 LINE",
"176 392 LINE"
);
},
{
closed = 1;
nodes = (
"304 262 LINE",
"336 262 LINE",
"336 392 LINE",
"304 392 LINE"
);
},
{
closed = 1;
nodes = (
"208 234 LINE",
"336 234 LINE",
"336 262 LINE",
"208 262 LINE"
);
},
{
closed = 1;
nodes = (
"304 112 LINE",
"336 112 LINE",
"336 168 LINE",
"304 168 LINE"
);
}
);
width = 384;
},
{
anchors = (
{
name = top;
position = "{192, 504}";
}
);
components = (
{
alignment = -1;
name = _part.bogen;
transform = "{-1, 0, 0, 1, 288, 0}";
},
{
alignment = -1;
name = _part.bogen;
transform = "{1, 0, 0, 1, 96, 0}";
},
{
alignment = -1;
name = _part.ansatz;
transform = "{-1, 0, 0, 1, 384, -180}";
},
{
alignment = -1;
name = _part.bogen;
transform = "{-1, 0, 0, 1, 480, 0}";
},
{
alignment = -1;
name = _part.bogen;
transform = "{1, 0, 0, 1, 288, 0}";
},
{
alignment = -1;
name = _part.bogen;
transform = "{1, 0, 0, -1, 288, 504}";
},
{
alignment = -1;
name = _part.bogen;
transform = "{-1, 0, 0, -1, 480, 504}";
},
{
alignment = -1;
name = _part.bogen;
transform = "{1, 0, 0, -1, 96, 504}";
},
{
alignment = -1;
name = _part.bogen;
transform = "{-1, 0, 0, -1, 288, 504}";
}
);
layerId = m002;
paths = (
{
closed = 1;
nodes = (
"96 112 LINE",
"160 112 LINE",
"160 224 LINE",
"96 224 LINE"
);
},
{
closed = 1;
nodes = (
"224 112 LINE",
"352 112 LINE",
"352 336 LINE",
"224 336 LINE"
);
},
{
closed = 1;
nodes = (
"288 112 LINE",
"352 112 LINE",
"352 336 LINE",
"288 336 LINE"
);
},
{
closed = 1;
nodes = (
"416 284 LINE",
"544 284 LINE",
"544 336 LINE",
"416 336 LINE"
);
},
{
closed = 1;
nodes = (
"352 213 LINE",
"544 213 LINE",
"544 284 LINE",
"352 284 LINE"
);
},
{
closed = 1;
nodes = (
"416 112 LINE",
"480 112 LINE",
"480 168 LINE",
"416 168 LINE"
);
}
);
width = 576;
},
{
anchors = (
{
name = top;
position = "{128, 504}";
}
);
components = (
{
alignment = -1;
name = _part.bogen;
transform = "{-1, 0, 0, 1, 224, 0}";
},
{
alignment = -1;
name = _part.bogen;
transform = "{1, 0, 0, 1, 32, 0}";
},
{
alignment = -1;
name = _part.ansatz;
transform = "{-1, 0, 0, 1, 224, -168}";
},
{
alignment = -1;
name = _part.bogen;
transform = "{-1, 0, 0, 1, 352, 0}";
},
{
alignment = -1;
name = _part.bogen;
transform = "{1, 0, 0, 1, 160, 0}";
},
{
alignment = -1;
name = _part.bogen;
transform = "{1, 0, 0, -1, 160, 504}";
},
{
alignment = -1;
name = _part.bogen;
transform = "{-1, 0, 0, -1, 352, 504}";
},
{
alignment = -1;
name = _part.bogen;
transform = "{1, 0, 0, -1, 32, 504}";
},
{
alignment = -1;
name = _part.bogen;
transform = "{-1, 0, 0, -1, 224, 504}";
}
);
layerId = m003;
paths = (
{
closed = 1;
nodes = (
"32 112 LINE",
"96 112 LINE",
"96 224 LINE",
"32 224 LINE"
);
},
{
closed = 1;
nodes = (
"160 112 LINE",
"224 112 LINE",
"224 392 LINE",
"160 392 LINE"
);
},
{
closed = 1;
nodes = (
"160 112 LINE",
"224 112 LINE",
"224 392 LINE",
"160 392 LINE"
);
},
{
closed = 1;
nodes = (
"288 276 LINE",
"352 276 LINE",
"352 392 LINE",
"288 392 LINE"
);
},
{
closed = 1;
nodes = (
"224 220 LINE",
"352 220 LINE",
"352 276 LINE",
"224 276 LINE"
);
},
{
closed = 1;
nodes = (
"288 112 LINE",
"352 112 LINE",
"352 168 LINE",
"288 168 LINE"
);
}
);
width = 384;
}
);
leftKerningGroup = a;
leftMetricsKey = a;
rightKerningGroup = e;
rightMetricsKey = e;
unicode = 00E6;
},
{
color = 6;
glyphname = b;
layers = (
{
background = {
components = (
{
name = _part.ansatz;
transform = "{1, 0, 0, -1, 32, 504}";
},
{
name = _part.ansatz;
transform = "{1, 0, 0, 1, 32, 0}";
}
);
paths = (
{
closed = 1;
nodes = (
"224 392 LINE",
"160 392 LINE",
"160 112 LINE",
"224 112 LINE"
);
},
{
closed = 1;
nodes = (
"96 672 LINE",
"32 672 LINE",
"32 112 LINE",
"96 112 LINE"
);
}
);
};
components = (
{
name = p;
transform = "{1, 0, 0, -1, 0, 504}";
}
);
layerId = "2FCEC9C4-D6B8-40A6-8432-FB04296B16B9";
width = 256;
},
{
background = {
components = (
{
name = _part.ansatz;
transform = "{1, 0, 0, -1, 32, 504}";
},
{
name = _part.ansatz;
transform = "{1, 0, 0, 1, 32, 0}";
}
);
paths = (
{
closed = 1;
nodes = (
"224 392 LINE",
"160 392 LINE",
"160 112 LINE",
"224 112 LINE"
);
},
{
closed = 1;
nodes = (
"96 672 LINE",
"32 672 LINE",
"32 112 LINE",
"96 112 LINE"
);
}
);
};
components = (
{
name = p;
transform = "{1, 0, 0, -1, 0, 504}";
}
);
layerId = m002;
width = 384;
},
{
background = {
components = (
{
name = _part.ansatz;
transform = "{1, 0, 0, -1, 32, 504}";
},
{
name = _part.ansatz;
transform = "{1, 0, 0, 1, 32, 0}";
}
);
paths = (
{
closed = 1;
nodes = (
"224 392 LINE",
"160 392 LINE",
"160 112 LINE",
"224 112 LINE"
);
},
{
closed = 1;
nodes = (
"96 672 LINE",
"32 672 LINE",
"32 112 LINE",
"96 112 LINE"
);
}
);
};
components = (
{
name = p;
transform = "{1, 0, 0, -1, 0, 504}";
}
);
layerId = m003;
width = 256;
}
);
leftMetricsKey = h;
rightKerningGroup = o;
unicode = 0062;
userData = {
com.typemytype.robofont.mark = (
0.6,
0.609,
1,
1
);
};
},
{
color = 7;
glyphname = c;
layers = (
{
anchors = (
{
name = top;
position = "{128, 504}";
}
);
background = {
anchors = (
{
name = top;
position = "{128, 504}";
}
);
paths = (
{
closed = 1;
nodes = (
"80 112 LINE",
"80 392 LINE",
"48 392 LINE",
"48 112 LINE"
);
},
{
closed = 1;
nodes = (
"208 112 LINE",
"208 168 LINE",
"176 168 LINE",
"176 112 LINE"
);
},
{
closed = 1;
nodes = (
"208 336 LINE",
"208 392 LINE",
"176 392 LINE",
"176 336 LINE"
);
},
{
closed = 1;
nodes = (
"208 434 LINE SMOOTH",
"208 480 OFFCURVE",
"179 508 OFFCURVE",
"128 508 CURVE",
"128 480 LINE",
"155 480 OFFCURVE",
"176 468 OFFCURVE",
"176 432 CURVE SMOOTH",
"176 392 LINE",
"208 392 LINE"
);
},
{
closed = 1;
nodes = (
"80 392 LINE",
"80 432 LINE SMOOTH",
"80 468 OFFCURVE",
"101 480 OFFCURVE",
"128 480 CURVE",
"128 508 LINE",
"77 508 OFFCURVE",
"48 480 OFFCURVE",
"48 434 CURVE SMOOTH",
"48 392 LINE"
);
},
{
closed = 1;
nodes = (
"48 70 LINE SMOOTH",
"48 24 OFFCURVE",
"77 -4 OFFCURVE",
"128 -4 CURVE",
"128 24 LINE",
"101 24 OFFCURVE",
"80 36 OFFCURVE",
"80 72 CURVE SMOOTH",
"80 112 LINE",
"48 112 LINE"
);
},
{
closed = 1;
nodes = (
"176 112 LINE",
"176 72 LINE SMOOTH",
"176 36 OFFCURVE",
"155 24 OFFCURVE",
"128 24 CURVE",
"128 -4 LINE",
"179 -4 OFFCURVE",
"208 24 OFFCURVE",
"208 70 CURVE SMOOTH",
"208 112 LINE"
);
}
);
};
components = (
{
name = _part.bogen;
transform = "{-1, 0, 0, 1, 224, 0}";
},
{
name = _part.bogen;
transform = "{1, 0, 0, 1, 32, 0}";
},
{
name = _part.bogen;
transform = "{1, 0, 0, -1, 32, 504}";
},
{
name = _part.bogen;
transform = "{-1, 0, 0, -1, 224, 504}";
}
);
layerId = "2FCEC9C4-D6B8-40A6-8432-FB04296B16B9";
paths = (
{
closed = 1;
nodes = (
"48 112 LINE",
"80 112 LINE",
"80 392 LINE",
"48 392 LINE"
);
},
{
closed = 1;
nodes = (
"176 112 LINE",
"208 112 LINE",
"208 168 LINE",
"176 168 LINE"
);
},
{
closed = 1;
nodes = (
"176 336 LINE",
"208 336 LINE",
"208 392 LINE",
"176 392 LINE"
);
}
);
width = 256;
},
{
anchors = (
{
name = top;
position = "{192, 504}";
}
);
components = (
{
name = _part.bogen;
transform = "{-1, 0, 0, 1, 288, 0}";
},
{
name = _part.bogen;
transform = "{1, 0, 0, 1, 96, 0}";
},
{
name = _part.bogen;
transform = "{1, 0, 0, -1, 96, 504}";
},
{
name = _part.bogen;
transform = "{-1, 0, 0, -1, 288, 504}";
}
);
layerId = m002;
paths = (
{
closed = 1;
nodes = (
"32 168 LINE",
"160 168 LINE",
"160 336 LINE",
"32 336 LINE"
);
},
{
closed = 1;
nodes = (
"224 168 LINE",
"288 168 LINE",
"288 168 LINE",
"224 168 LINE"
);
},
{
closed = 1;
nodes = (
"224 336 LINE",
"288 336 LINE",
"288 336 LINE",
"224 336 LINE"
);
}
);
width = 384;
},
{
anchors = (
{
name = top;
position = "{128, 504}";
}
);
components = (
{
name = _part.bogen;
transform = "{-1, 0, 0, 1, 224, 0}";
},
{
name = _part.bogen;
transform = "{1, 0, 0, 1, 32, 0}";
},
{
name = _part.bogen;
transform = "{1, 0, 0, -1, 32, 504}";
},
{
name = _part.bogen;
transform = "{-1, 0, 0, -1, 224, 504}";
}
);
layerId = m003;
paths = (
{
closed = 1;
nodes = (
"32 112 LINE",
"96 112 LINE",
"96 392 LINE",
"32 392 LINE"
);
},
{
closed = 1;
nodes = (
"160 112 LINE",
"224 112 LINE",
"224 168 LINE",
"160 168 LINE"
);
},
{
closed = 1;
nodes = (
"160 336 LINE",
"224 336 LINE",
"224 392 LINE",
"160 392 LINE"
);
}
);
width = 256;
}
);
leftKerningGroup = e;
rightKerningGroup = c;
unicode = 0063;
userData = {
com.typemytype.robofont.mark = (
0.6,
0.609,
1,
1
);
};
},
{
color = 6;
glyphname = d;
layers = (
{
background = {
components = (
{
name = _part.ansatz;
transform = "{-1, 0, 0, -1, 224, 504}";
},
{
name = _part.ansatz;
transform = "{-1, 0, 0, 1, 224, 0}";
}
);
paths = (
{
closed = 1;
nodes = (
"32 112 LINE",
"96 112 LINE",
"96 392 LINE",
"32 392 LINE"
);
},
{
closed = 1;
nodes = (
"160 112 LINE",
"224 112 LINE",
"224 672 LINE",
"160 672 LINE"
);
}
);
};
components = (
{
name = b;
transform = "{-1, 0, 0, 1, 256, 0}";
}
);
layerId = "2FCEC9C4-D6B8-40A6-8432-FB04296B16B9";
width = 256;
},
{
background = {
components = (
{
name = _part.ansatz;
transform = "{-1, 0, 0, -1, 224, 504}";
},
{
name = _part.ansatz;
transform = "{-1, 0, 0, 1, 224, 0}";
}
);
paths = (
{
closed = 1;
nodes = (
"32 112 LINE",
"96 112 LINE",
"96 392 LINE",
"32 392 LINE"
);
},
{
closed = 1;
nodes = (
"160 112 LINE",
"224 112 LINE",
"224 672 LINE",
"160 672 LINE"
);
}
);
};
components = (
{
name = b;
transform = "{-1, 0, 0, 1, 384, 0}";
}
);
layerId = m002;
width = 384;
},
{
background = {
components = (
{
name = _part.ansatz;
transform = "{-1, 0, 0, -1, 224, 504}";
},
{
name = _part.ansatz;
transform = "{-1, 0, 0, 1, 224, 0}";
}
);
paths = (
{
closed = 1;
nodes = (
"32 112 LINE",
"96 112 LINE",
"96 392 LINE",
"32 392 LINE"
);
},
{
closed = 1;
nodes = (
"160 112 LINE",
"224 112 LINE",
"224 672 LINE",
"160 672 LINE"
);
}
);
};
components = (
{
name = b;
transform = "{-1, 0, 0, 1, 256, 0}";
}
);
layerId = m003;
width = 256;
}
);
leftKerningGroup = e;
unicode = 0064;
userData = {
com.typemytype.robofont.mark = (
0.6,
0.609,
1,
1
);
};
},
{
color = 7;
glyphname = e;
layers = (
{
anchors = (
{
name = top;
position = "{128, 504}";
}
);
background = {
anchors = (
{
name = top;
position = "{128, 504}";
}
);
paths = (
{
closed = 1;
nodes = (
"80 112 LINE",
"80 392 LINE",
"48 392 LINE",
"48 112 LINE"
);
},
{
closed = 1;
nodes = (
"208 262 LINE",
"208 392 LINE",
"176 392 LINE",
"176 262 LINE"
);
},
{
closed = 1;
nodes = (
"208 234 LINE",
"208 262 LINE",
"80 262 LINE",
"80 234 LINE"
);
},
{
closed = 1;
nodes = (
"208 112 LINE",
"208 168 LINE",
"176 168 LINE",
"176 112 LINE"
);
},
{
closed = 1;
nodes = (
"208 434 LINE SMOOTH",
"208 480 OFFCURVE",
"179 508 OFFCURVE",
"128 508 CURVE",
"128 480 LINE",
"155 480 OFFCURVE",
"176 468 OFFCURVE",
"176 432 CURVE SMOOTH",
"176 392 LINE",
"208 392 LINE"
);
},
{
closed = 1;
nodes = (
"80 392 LINE",
"80 432 LINE SMOOTH",
"80 468 OFFCURVE",
"101 480 OFFCURVE",
"128 480 CURVE",
"128 508 LINE",
"77 508 OFFCURVE",
"48 480 OFFCURVE",
"48 434 CURVE SMOOTH",
"48 392 LINE"
);
},
{
closed = 1;
nodes = (
"48 70 LINE SMOOTH",
"48 24 OFFCURVE",
"77 -4 OFFCURVE",
"128 -4 CURVE",
"128 24 LINE",
"101 24 OFFCURVE",
"80 36 OFFCURVE",
"80 72 CURVE SMOOTH",
"80 112 LINE",
"48 112 LINE"
);
},
{
closed = 1;
nodes = (
"176 112 LINE",
"176 72 LINE SMOOTH",
"176 36 OFFCURVE",
"155 24 OFFCURVE",
"128 24 CURVE",
"128 -4 LINE",
"179 -4 OFFCURVE",
"208 24 OFFCURVE",
"208 70 CURVE SMOOTH",
"208 112 LINE"
);
}
);
};
components = (
{
name = _part.bogen;
transform = "{-1, 0, 0, 1, 224, 0}";
},
{
name = _part.bogen;
transform = "{1, 0, 0, 1, 32, 0}";
},
{
name = _part.bogen;
transform = "{1, 0, 0, -1, 32, 504}";
},
{
name = _part.bogen;
transform = "{-1, 0, 0, -1, 224, 504}";
}
);
layerId = "2FCEC9C4-D6B8-40A6-8432-FB04296B16B9";
paths = (
{
closed = 1;
nodes = (
"48 112 LINE",
"80 112 LINE",
"80 392 LINE",
"48 392 LINE"
);
},
{
closed = 1;
nodes = (
"176 262 LINE",
"208 262 LINE",
"208 392 LINE",
"176 392 LINE"
);
},
{
closed = 1;
nodes = (
"80 234 LINE",
"208 234 LINE",
"208 262 LINE",
"80 262 LINE"
);
},
{
closed = 1;
nodes = (
"176 112 LINE",
"208 112 LINE",
"208 168 LINE",
"176 168 LINE"
);
}
);
width = 256;
},
{
anchors = (
{
name = top;
position = "{192, 504}";
}
);
background = {
paths = (
{
closed = 1;
nodes = (
"160 168 LINE",
"160 336 LINE",
"32 336 LINE",
"32 168 LINE"
);
},
{
closed = 1;
nodes = (
"352 284 LINE",
"352 336 LINE",
"224 336 LINE",
"224 284 LINE"
);
},
{
closed = 1;
nodes = (
"352 212 LINE",
"352 284 LINE",
"160 284 LINE",
"160 212 LINE"
);
}
);
};
components = (
{
name = _part.bogen;
transform = "{-1, 0, 0, 1, 288, 0}";
},
{
name = _part.bogen;
transform = "{1, 0, 0, 1, 96, 0}";
},
{
name = _part.bogen;
transform = "{1, 0, 0, -1, 96, 504}";
},
{
name = _part.bogen;
transform = "{-1, 0, 0, -1, 288, 504}";
}
);
layerId = m002;
paths = (
{
closed = 1;
nodes = (
"32 168 LINE",
"160 168 LINE",
"160 336 LINE",
"32 336 LINE"
);
},
{
closed = 1;
nodes = (
"224 284 LINE",
"352 284 LINE",
"352 336 LINE",
"224 336 LINE"
);
},
{
closed = 1;
nodes = (
"160 212 LINE",
"352 212 LINE",
"352 284 LINE",
"160 284 LINE"
);
},
{
closed = 1;
nodes = (
"224 168 LINE",
"352 168 LINE",
"352 168 LINE",
"224 168 LINE"
);
}
);
width = 384;
},
{
anchors = (
{
name = top;
position = "{128, 504}";
}
);
components = (
{
name = _part.bogen;
transform = "{-1, 0, 0, 1, 224, 0}";
},
{
name = _part.bogen;
transform = "{1, 0, 0, 1, 32, 0}";
},
{
name = _part.bogen;
transform = "{1, 0, 0, -1, 32, 504}";
},
{
name = _part.bogen;
transform = "{-1, 0, 0, -1, 224, 504}";
}
);
layerId = m003;
paths = (
{
closed = 1;
nodes = (
"32 112 LINE",
"96 112 LINE",
"96 392 LINE",
"32 392 LINE"
);
},
{
closed = 1;
nodes = (
"160 276 LINE",
"224 276 LINE",
"224 392 LINE",
"160 392 LINE"
);
},
{
closed = 1;
nodes = (
"96 220 LINE",
"224 220 LINE",
"224 276 LINE",
"96 276 LINE"
);
},
{
closed = 1;
nodes = (
"160 112 LINE",
"224 112 LINE",
"224 168 LINE",
"160 168 LINE"
);
}
);
width = 256;
}
);
leftKerningGroup = e;
rightKerningGroup = e;
unicode = 0065;
userData = {
com.typemytype.robofont.mark = (
0.6,
0.609,
1,
1
);
};
},
{
color = 7;
glyphname = f;
layers = (
{
background = {
paths = (
{
closed = 1;
nodes = (
"80 0 LINE",
"80 558 LINE",
"48 558 LINE",
"48 0 LINE"
);
},
{
closed = 1;
nodes = (
"160 476 LINE",
"160 504 LINE",
"0 504 LINE",
"0 476 LINE"
);
},
{
closed = 1;
nodes = (
"160 646 LINE",
"160 674 LINE",
"128 674 LINE",
"128 646 LINE"
);
},
{
closed = 1;
nodes = (
"80 558 LINE",
"80 598 LINE SMOOTH",
"80 634 OFFCURVE",
"101 646 OFFCURVE",
"128 646 CURVE",
"128 674 LINE",
"77 674 OFFCURVE",
"48 646 OFFCURVE",
"48 600 CURVE SMOOTH",
"48 558 LINE"
);
}
);
};
components = (
{
name = _part.bogen;
transform = "{1, 0, 0, 1, 32, 166}";
}
);
layerId = "2FCEC9C4-D6B8-40A6-8432-FB04296B16B9";
paths = (
{
closed = 1;
nodes = (
"48 0 LINE",
"80 0 LINE",
"80 558 LINE",
"48 558 LINE"
);
},
{
closed = 1;
nodes = (
"0 476 LINE",
"160 476 LINE",
"160 504 LINE",
"0 504 LINE"
);
},
{
closed = 1;
nodes = (
"128 646 LINE",
"160 646 LINE",
"160 674 LINE",
"128 674 LINE"
);
}
);
width = 160;
},
{
components = (
{
name = _part.bogen;
transform = "{1, 0, 0, 1, 32, 166}";
}
);
layerId = m002;
paths = (
{
closed = 1;
nodes = (
"32 0 LINE",
"96 0 LINE",
"96 558 LINE",
"32 558 LINE"
);
},
{
closed = 1;
nodes = (
"0 448 LINE",
"160 448 LINE",
"160 504 LINE",
"0 504 LINE"
);
},
{
closed = 1;
nodes = (
"128 618 LINE",
"160 618 LINE",
"160 674 LINE",
"128 674 LINE"
);
}
);
width = 160;
},
{
components = (
{
name = _part.bogen;
transform = "{1, 0, 0, 1, 32, 166}";
}
);
layerId = m003;
paths = (
{
closed = 1;
nodes = (
"32 0 LINE",
"96 0 LINE",
"96 558 LINE",
"32 558 LINE"
);
},
{
closed = 1;
nodes = (
"0 448 LINE",
"160 448 LINE",
"160 504 LINE",
"0 504 LINE"
);
},
{
closed = 1;
nodes = (
"128 618 LINE",
"160 618 LINE",
"160 674 LINE",
"128 674 LINE"
);
}
);
width = 160;
}
);
leftKerningGroup = f;
rightKerningGroup = f;
unicode = 0066;
userData = {
com.typemytype.robofont.mark = (
0.6,
0.609,
1,
1
);
};
},
{
color = 7;
glyphname = g;
layers = (
{
anchors = (
{
name = top;
position = "{128, 504}";
}
);
background = {
anchors = (
{
name = top;
position = "{128, 504}";
}
);
paths = (
{
closed = 1;
nodes = (
"80 112 LINE",
"80 392 LINE",
"48 392 LINE",
"48 112 LINE"
);
},
{
closed = 1;
nodes = (
"208 -56 LINE",
"208 392 LINE",
"176 392 LINE",
"176 -56 LINE"
);
},
{
closed = 1;
nodes = (
"48 28 OFFCURVE",
"78 0 OFFCURVE",
"123 0 CURVE SMOOTH",
"150 0 OFFCURVE",
"167 11 OFFCURVE",
"178 24 CURVE",
"180 24 LINE",
"184 0 LINE",
"208 0 LINE",
"208 112 LINE",
"176 112 LINE",
"176 76 LINE SMOOTH",
"176 40 OFFCURVE",
"155 28 OFFCURVE",
"128 28 CURVE SMOOTH",
"101 28 OFFCURVE",
"80 40 OFFCURVE",
"80 76 CURVE SMOOTH",
"80 112 LINE",
"48 112 LINE",
"48 74 LINE SMOOTH"
);
},
{
closed = 1;
nodes = (
"48 -98 LINE SMOOTH",
"48 -144 OFFCURVE",
"77 -172 OFFCURVE",
"128 -172 CURVE",
"128 -144 LINE",
"101 -144 OFFCURVE",
"80 -132 OFFCURVE",
"80 -96 CURVE SMOOTH",
"80 -56 LINE",
"48 -56 LINE"
);
},
{
closed = 1;
nodes = (
"176 -56 LINE",
"176 -96 LINE SMOOTH",
"176 -132 OFFCURVE",
"155 -144 OFFCURVE",
"128 -144 CURVE",
"128 -172 LINE",
"179 -172 OFFCURVE",
"208 -144 OFFCURVE",
"208 -98 CURVE SMOOTH",
"208 -56 LINE"
);
},
{
closed = 1;
nodes = (
"48 392 LINE",
"80 392 LINE",
"80 428 LINE SMOOTH",
"80 464 OFFCURVE",
"101 476 OFFCURVE",
"128 476 CURVE SMOOTH",
"155 476 OFFCURVE",
"176 464 OFFCURVE",
"176 428 CURVE SMOOTH",
"176 392 LINE",
"208 392 LINE",
"208 504 LINE",
"184 504 LINE",
"180 480 LINE",
"178 480 LINE",
"167 493 OFFCURVE",
"150 504 OFFCURVE",
"123 504 CURVE SMOOTH",
"78 504 OFFCURVE",
"48 476 OFFCURVE",
"48 430 CURVE SMOOTH"
);
}
);
};
components = (
{
name = _part.ansatz;
transform = "{-1, 0, 0, -1, 208, 504}";
},
{
name = _part.bogen;
transform = "{1, 0, 0, -1, 32, 336}";
},
{
name = _part.bogen;
transform = "{-1, 0, 0, -1, 224, 336}";
},
{
name = _part.ansatz;
transform = "{-1, 0, 0, 1, 208, 0}";
}
);
layerId = "2FCEC9C4-D6B8-40A6-8432-FB04296B16B9";
paths = (
{
closed = 1;
nodes = (
"48 112 LINE",
"80 112 LINE",
"80 392 LINE",
"48 392 LINE"
);
},
{
closed = 1;
nodes = (
"176 -56 LINE",
"208 -56 LINE",
"208 392 LINE",
"176 392 LINE"
);
}
);
width = 256;
},
{
anchors = (
{
name = top;
position = "{192, 504}";
}
);
components = (
{
name = _part.ansatz;
transform = "{-1, 0, 0, -1, 384, 510}";
},
{
name = _part.bogen;
transform = "{1, 0, 0, -1, 96, 330}";
},
{
name = _part.bogen;
transform = "{-1, 0, 0, -1, 288, 330}";
},
{
name = _part.ansatz;
transform = "{-1, 0, 0, 1, 384, 0}";
}
);
layerId = m002;
paths = (
{
closed = 1;
nodes = (
"32 174 LINE",
"160 174 LINE",
"160 336 LINE",
"32 336 LINE"
);
},
{
closed = 1;
nodes = (
"224 -6 LINE",
"352 -6 LINE",
"352 336 LINE",
"224 336 LINE"
);
}
);
width = 384;
},
{
anchors = (
{
name = top;
position = "{128, 504}";
}
);
components = (
{
name = _part.ansatz;
transform = "{-1, 0, 0, -1, 224, 504}";
},
{
name = _part.bogen;
transform = "{1, 0, 0, -1, 32, 336}";
},
{
name = _part.bogen;
transform = "{-1, 0, 0, -1, 224, 336}";
},
{
name = _part.ansatz;
transform = "{-1, 0, 0, 1, 224, 0}";
}
);
layerId = m003;
paths = (
{
closed = 1;
nodes = (
"32 112 LINE",
"96 112 LINE",
"96 392 LINE",
"32 392 LINE"
);
},
{
closed = 1;
nodes = (
"160 -56 LINE",
"224 -56 LINE",
"224 392 LINE",
"160 392 LINE"
);
}
);
width = 256;
}
);
leftKerningGroup = e;
rightKerningGroup = g;
unicode = 0067;
userData = {
com.typemytype.robofont.mark = (
0.6,
0.609,
1,
1
);
};
},
{
color = 7;
glyphname = h;
layers = (
{
background = {
paths = (
{
closed = 1;
nodes = (
"80 0 LINE",
"80 672 LINE",
"48 672 LINE",
"48 0 LINE"
);
},
{
closed = 1;
nodes = (
"208 0 LINE",
"208 392 LINE",
"176 392 LINE",
"176 0 LINE"
);
},
{
closed = 1;
nodes = (
"208 476 OFFCURVE",
"178 504 OFFCURVE",
"133 504 CURVE SMOOTH",
"106 504 OFFCURVE",
"89 493 OFFCURVE",
"78 480 CURVE",
"76 480 LINE",
"72 504 LINE",
"48 504 LINE",
"48 392 LINE",
"80 392 LINE",
"80 428 LINE SMOOTH",
"80 464 OFFCURVE",
"101 476 OFFCURVE",
"128 476 CURVE SMOOTH",
"155 476 OFFCURVE",
"176 464 OFFCURVE",
"176 428 CURVE SMOOTH",
"176 392 LINE",
"208 392 LINE",
"208 430 LINE SMOOTH"
);
}
);
};
components = (
{
name = _part.ansatz;
transform = "{1, 0, 0, 1, 48, 0}";
}
);
layerId = "2FCEC9C4-D6B8-40A6-8432-FB04296B16B9";
paths = (
{
closed = 1;
nodes = (
"48 0 LINE",
"80 0 LINE",
"80 672 LINE",
"48 672 LINE"
);
},
{
closed = 1;
nodes = (
"176 0 LINE",
"208 0 LINE",
"208 392 LINE",
"176 392 LINE"
);
}
);
width = 256;
},
{
components = (
{
name = _part.ansatz;
}
);
layerId = m002;
paths = (
{
closed = 1;
nodes = (
"32 0 LINE",
"160 0 LINE",
"160 672 LINE",
"32 672 LINE"
);
},
{
closed = 1;
nodes = (
"224 0 LINE",
"352 0 LINE",
"352 336 LINE",
"224 336 LINE"
);
}
);
width = 384;
},
{
components = (
{
name = _part.ansatz;
transform = "{1, 0, 0, 1, 32, 0}";
}
);
layerId = m003;
paths = (
{
closed = 1;
nodes = (
"32 0 LINE",
"96 0 LINE",
"96 672 LINE",
"32 672 LINE"
);
},
{
closed = 1;
nodes = (
"160 0 LINE",
"224 0 LINE",
"224 392 LINE",
"160 392 LINE"
);
}
);
width = 256;
}
);
leftMetricsKey = n;
rightKerningGroup = n;
rightMetricsKey = n;
unicode = 0068;
userData = {
com.typemytype.robofont.mark = (
0.6,
0.609,
1,
1
);
};
},
{
glyphname = idotless;
layers = (
{
anchors = (
{
name = top;
position = "{48, 504}";
}
);
layerId = "2FCEC9C4-D6B8-40A6-8432-FB04296B16B9";
paths = (
{
closed = 1;
nodes = (
"32 0 LINE",
"64 0 LINE",
"64 504 LINE",
"32 504 LINE"
);
}
);
width = 96;
},
{
anchors = (
{
name = top;
position = "{96, 504}";
}
);
layerId = m002;
paths = (
{
closed = 1;
nodes = (
"32 0 LINE",
"160 0 LINE",
"160 504 LINE",
"32 504 LINE"
);
}
);
width = 192;
},
{
anchors = (
{
name = top;
position = "{64, 504}";
}
);
layerId = m003;
paths = (
{
closed = 1;
nodes = (
"32 0 LINE",
"96 0 LINE",
"96 504 LINE",
"32 504 LINE"
);
}
);
width = 128;
}
);
leftMetricsKey = n;
rightKerningGroup = n;
rightMetricsKey = "=|n";
unicode = 0131;
},
{
color = 7;
glyphname = jdotless;
layers = (
{
anchors = (
{
name = top;
position = "{64, 504}";
}
);
components = (
{
name = _part.bogen;
transform = "{-1, 0, 0, -1, 96, 340}";
}
);
layerId = "2FCEC9C4-D6B8-40A6-8432-FB04296B16B9";
paths = (
{
closed = 1;
nodes = (
"48 -52 LINE",
"80 -52 LINE",
"80 504 LINE",
"48 504 LINE"
);
},
{
closed = 1;
nodes = (
"-32 -168 LINE",
"0 -168 LINE",
"0 -140 LINE",
"-32 -140 LINE"
);
}
);
width = 128;
},
{
anchors = (
{
name = top;
position = "{96, 504}";
}
);
components = (
{
name = _part.bogen;
transform = "{-1, 0, 0, -1, 96, 336}";
}
);
layerId = m002;
paths = (
{
closed = 1;
nodes = (
"32 0 LINE",
"160 0 LINE",
"160 504 LINE",
"32 504 LINE"
);
},
{
closed = 1;
nodes = (
"-32 -172 LINE",
"0 -172 LINE",
"0 -60 LINE",
"-32 -60 LINE"
);
}
);
width = 192;
},
{
anchors = (
{
name = top;
position = "{64, 504}";
}
);
components = (
{
name = _part.bogen;
transform = "{-1, 0, 0, -1, 96, 340}";
}
);
layerId = m003;
paths = (
{
closed = 1;
nodes = (
"32 -52 LINE",
"96 -52 LINE",
"96 504 LINE",
"32 504 LINE"
);
},
{
closed = 1;
nodes = (
"-32 -168 LINE",
"0 -168 LINE",
"0 -112 LINE",
"-32 -112 LINE"
);
}
);
width = 128;
}
);
unicode = 0237;
userData = {
com.typemytype.robofont.mark = (
0.6,
0.609,
1,
1
);
};
},
{
glyphname = k;
layers = (
{
background = {
paths = (
{
closed = 1;
nodes = (
"96 0 LINE",
"96 672 LINE",
"32 672 LINE",
"32 0 LINE"
);
},
{
closed = 1;
nodes = (
"166 280 LINE",
"246 504 LINE",
"178 504 LINE",
"100 280 LINE"
);
},
{
closed = 1;
nodes = (
"250 0 LINE",
"166 280 LINE",
"100 280 LINE",
"182 0 LINE"
);
}
);
};
layerId = "2FCEC9C4-D6B8-40A6-8432-FB04296B16B9";
paths = (
{
closed = 1;
nodes = (
"32 0 LINE",
"96 0 LINE",
"96 672 LINE",
"32 672 LINE"
);
},
{
closed = 1;
nodes = (
"100 280 LINE",
"166 280 LINE",
"246 504 LINE",
"178 504 LINE"
);
},
{
closed = 1;
nodes = (
"182 0 LINE",
"250 0 LINE",
"166 280 LINE",
"100 280 LINE"
);
}
);
width = 256;
},
{
layerId = m002;
paths = (
{
closed = 1;
nodes = (
"32 0 LINE",
"96 0 LINE",
"96 672 LINE",
"32 672 LINE"
);
},
{
closed = 1;
nodes = (
"100 280 LINE",
"166 280 LINE",
"246 504 LINE",
"178 504 LINE"
);
},
{
closed = 1;
nodes = (
"182 0 LINE",
"250 0 LINE",
"166 280 LINE",
"100 280 LINE"
);
}
);
width = 256;
},
{
layerId = m003;
paths = (
{
closed = 1;
nodes = (
"32 0 LINE",
"96 0 LINE",
"96 672 LINE",
"32 672 LINE"
);
},
{
closed = 1;
nodes = (
"100 280 LINE",
"166 280 LINE",
"246 504 LINE",
"178 504 LINE"
);
},
{
closed = 1;
nodes = (
"182 0 LINE",
"250 0 LINE",
"166 280 LINE",
"100 280 LINE"
);
}
);
width = 256;
}
);
leftMetricsKey = h;
unicode = 006B;
},
{
glyphname = l;
layers = (
{
anchors = (
{
name = top;
position = "{48, 672}";
}
);
background = {
anchors = (
{
name = top;
position = "{48, 672}";
}
);
paths = (
{
closed = 1;
nodes = (
"64 0 LINE",
"64 672 LINE",
"32 672 LINE",
"32 0 LINE"
);
}
);
};
layerId = "2FCEC9C4-D6B8-40A6-8432-FB04296B16B9";
paths = (
{
closed = 1;
nodes = (
"32 0 LINE",
"64 0 LINE",
"64 672 LINE",
"32 672 LINE"
);
}
);
width = 96;
},
{
anchors = (
{
name = top;
position = "{96, 672}";
}
);
layerId = m002;
paths = (
{
closed = 1;
nodes = (
"32 0 LINE",
"160 0 LINE",
"160 672 LINE",
"32 672 LINE"
);
}
);
width = 192;
},
{
anchors = (
{
name = top;
position = "{64, 672}";
}
);
layerId = m003;
paths = (
{
closed = 1;
nodes = (
"32 0 LINE",
"96 0 LINE",
"96 672 LINE",
"32 672 LINE"
);
}
);
width = 128;
}
);
leftMetricsKey = h;
rightMetricsKey = "=|h";
unicode = 006C;
},
{
color = 7;
glyphname = m;
layers = (
{
anchors = (
{
name = top;
position = "{192, 504}";
}
);
background = {
anchors = (
{
name = top;
position = "{192, 504}";
}
);
paths = (
{
closed = 1;
nodes = (
"80 0 LINE",
"80 392 LINE",
"48 392 LINE",
"48 0 LINE"
);
},
{
closed = 1;
nodes = (
"208 0 LINE",
"208 392 LINE",
"176 392 LINE",
"176 0 LINE"
);
},
{
closed = 1;
nodes = (
"336 0 LINE",
"336 392 LINE",
"304 392 LINE",
"304 0 LINE"
);
},
{
closed = 1;
nodes = (
"336 434 LINE SMOOTH",
"336 480 OFFCURVE",
"307 508 OFFCURVE",
"256 508 CURVE",
"256 480 LINE",
"283 480 OFFCURVE",
"304 468 OFFCURVE",
"304 432 CURVE SMOOTH",
"304 392 LINE",
"336 392 LINE"
);
},
{
closed = 1;
nodes = (
"208 476 OFFCURVE",
"178 504 OFFCURVE",
"133 504 CURVE SMOOTH",
"106 504 OFFCURVE",
"89 493 OFFCURVE",
"78 480 CURVE",
"76 480 LINE",
"72 504 LINE",
"48 504 LINE",
"48 392 LINE",
"80 392 LINE",
"80 428 LINE SMOOTH",
"80 464 OFFCURVE",
"101 476 OFFCURVE",
"128 476 CURVE SMOOTH",
"155 476 OFFCURVE",
"176 464 OFFCURVE",
"176 428 CURVE SMOOTH",
"176 392 LINE",
"208 392 LINE",
"208 430 LINE SMOOTH"
);
},
{
closed = 1;
nodes = (
"208 392 LINE",
"208 432 LINE SMOOTH",
"208 468 OFFCURVE",
"229 480 OFFCURVE",
"256 480 CURVE",
"256 508 LINE",
"205 508 OFFCURVE",
"176 480 OFFCURVE",
"176 434 CURVE SMOOTH",
"176 392 LINE"
);
}
);
};
components = (
{
name = _part.ansatz;
transform = "{1, 0, 0, 1, 48, 0}";
}
);
layerId = "2FCEC9C4-D6B8-40A6-8432-FB04296B16B9";
paths = (
{
closed = 1;
nodes = (
"336 0 LINE",
"336 392 LINE",
"304 392 LINE",
"304 0 LINE"
);
},
{
closed = 1;
nodes = (
"80 0 LINE",
"80 392 LINE",
"48 392 LINE",
"48 0 LINE"
);
},
{
closed = 1;
nodes = (
"208 0 LINE",
"208 392 LINE",
"176 392 LINE",
"176 0 LINE"
);
},
{
closed = 1;
nodes = (
"219 462 LINE",
"219 479 LINE",
"197 479 LINE",
"197 462 LINE"
);
},
{
closed = 1;
nodes = (
"224 392 LINE",
"224 421 LINE SMOOTH",
"224 438 OFFCURVE",
"235 452 OFFCURVE",
"256 452 CURVE SMOOTH",
"277 452 OFFCURVE",
"288 438 OFFCURVE",
"288 421 CURVE SMOOTH",
"288 392 LINE",
"352 392 LINE",
"352 423 LINE SMOOTH",
"352 474 OFFCURVE",
"325 506 OFFCURVE",
"273 506 CURVE SMOOTH",
"217 506 OFFCURVE",
"192 464 OFFCURVE",
"192 423 CURVE SMOOTH",
"192 392 LINE"
);
}
);
width = 384;
},
{
anchors = (
{
name = top;
position = "{256, 504}";
}
);
background = {
paths = (
{
closed = 1;
nodes = (
"416 423 LINE SMOOTH",
"416 474 OFFCURVE",
"389 506 OFFCURVE",
"339 506 CURVE SMOOTH",
"294 506 OFFCURVE",
"277 477 OFFCURVE",
"271 464 CURVE",
"231 423 LINE",
"224 392 LINE",
"288 392 LINE",
"288 421 LINE SMOOTH",
"288 438 OFFCURVE",
"299 452 OFFCURVE",
"320 452 CURVE SMOOTH",
"341 452 OFFCURVE",
"352 438 OFFCURVE",
"352 421 CURVE SMOOTH",
"352 392 LINE",
"416 392 LINE"
);
}
);
};
components = (
{
name = _part.ansatz;
}
);
layerId = m002;
paths = (
{
closed = 1;
nodes = (
"544 0 LINE",
"544 392 LINE",
"416 392 LINE",
"416 0 LINE"
);
},
{
closed = 1;
nodes = (
"160 0 LINE",
"160 392 LINE",
"32 392 LINE",
"32 0 LINE"
);
},
{
closed = 1;
nodes = (
"352 0 LINE",
"352 392 LINE",
"224 392 LINE",
"224 0 LINE"
);
},
{
closed = 1;
nodes = (
"283 462 LINE",
"283 479 LINE",
"261 479 LINE",
"261 462 LINE"
);
},
{
closed = 1;
nodes = (
"352 392 LINE",
"352 421 LINE SMOOTH",
"352 438 OFFCURVE",
"363 452 OFFCURVE",
"384 452 CURVE SMOOTH",
"405 452 OFFCURVE",
"416 438 OFFCURVE",
"416 421 CURVE SMOOTH",
"416 392 LINE",
"480 392 LINE",
"480 423 LINE SMOOTH",
"480 474 OFFCURVE",
"453 506 OFFCURVE",
"401 506 CURVE SMOOTH",
"345 506 OFFCURVE",
"320 464 OFFCURVE",
"320 423 CURVE SMOOTH",
"320 392 LINE"
);
}
);
width = 576;
},
{
anchors = (
{
name = top;
position = "{192, 504}";
}
);
background = {
paths = (
{
closed = 1;
nodes = (
"352 423 LINE SMOOTH",
"352 474 OFFCURVE",
"325 506 OFFCURVE",
"275 506 CURVE SMOOTH",
"230 506 OFFCURVE",
"213 477 OFFCURVE",
"207 464 CURVE",
"167 423 LINE",
"160 392 LINE",
"224 392 LINE",
"224 421 LINE SMOOTH",
"224 438 OFFCURVE",
"235 452 OFFCURVE",
"256 452 CURVE SMOOTH",
"277 452 OFFCURVE",
"288 438 OFFCURVE",
"288 421 CURVE SMOOTH",
"288 392 LINE",
"352 392 LINE"
);
}
);
};
components = (
{
name = _part.ansatz;
transform = "{1, 0, 0, 1, 32, 0}";
}
);
layerId = m003;
paths = (
{
closed = 1;
nodes = (
"352 0 LINE",
"352 392 LINE",
"288 392 LINE",
"288 0 LINE"
);
},
{
closed = 1;
nodes = (
"96 0 LINE",
"96 392 LINE",
"32 392 LINE",
"32 0 LINE"
);
},
{
closed = 1;
nodes = (
"224 0 LINE",
"224 392 LINE",
"160 392 LINE",
"160 0 LINE"
);
},
{
closed = 1;
nodes = (
"219 462 LINE",
"219 479 LINE",
"197 479 LINE",
"197 462 LINE"
);
},
{
closed = 1;
nodes = (
"224 392 LINE",
"224 421 LINE SMOOTH",
"224 438 OFFCURVE",
"235 452 OFFCURVE",
"256 452 CURVE SMOOTH",
"277 452 OFFCURVE",
"288 438 OFFCURVE",
"288 421 CURVE SMOOTH",
"288 392 LINE",
"352 392 LINE",
"352 423 LINE SMOOTH",
"352 474 OFFCURVE",
"325 506 OFFCURVE",
"273 506 CURVE SMOOTH",
"217 506 OFFCURVE",
"192 464 OFFCURVE",
"192 423 CURVE SMOOTH",
"192 392 LINE"
);
}
);
width = 384;
}
);
leftKerningGroup = n;
leftMetricsKey = n;
rightKerningGroup = n;
rightMetricsKey = n;
unicode = 006D;
userData = {
com.typemytype.robofont.mark = (
0.6,
0.609,
1,
1
);
};
},
{
color = 7;
glyphname = n;
layers = (
{
anchors = (
{
name = top;
position = "{128, 504}";
}
);
background = {
anchors = (
{
name = top;
position = "{128, 504}";
}
);
paths = (
{
closed = 1;
nodes = (
"80 0 LINE",
"80 392 LINE",
"48 392 LINE",
"48 0 LINE"
);
},
{
closed = 1;
nodes = (
"208 0 LINE",
"208 392 LINE",
"176 392 LINE",
"176 0 LINE"
);
},
{
closed = 1;
nodes = (
"208 476 OFFCURVE",
"178 504 OFFCURVE",
"133 504 CURVE SMOOTH",
"106 504 OFFCURVE",
"89 493 OFFCURVE",
"78 480 CURVE",
"76 480 LINE",
"72 504 LINE",
"48 504 LINE",
"48 392 LINE",
"80 392 LINE",
"80 428 LINE SMOOTH",
"80 464 OFFCURVE",
"101 476 OFFCURVE",
"128 476 CURVE SMOOTH",
"155 476 OFFCURVE",
"176 464 OFFCURVE",
"176 428 CURVE SMOOTH",
"176 392 LINE",
"208 392 LINE",
"208 430 LINE SMOOTH"
);
}
);
};
components = (
{
name = _part.ansatz;
transform = "{1, 0, 0, 1, 48, 0}";
}
);
layerId = "2FCEC9C4-D6B8-40A6-8432-FB04296B16B9";
paths = (
{
closed = 1;
nodes = (
"48 0 LINE",
"80 0 LINE",
"80 392 LINE",
"48 392 LINE"
);
},
{
closed = 1;
nodes = (
"176 0 LINE",
"208 0 LINE",
"208 392 LINE",
"176 392 LINE"
);
}
);
width = 256;
},
{
anchors = (
{
name = top;
position = "{192, 504}";
}
);
components = (
{
name = _part.ansatz;
}
);
layerId = m002;
paths = (
{
closed = 1;
nodes = (
"32 0 LINE",
"160 0 LINE",
"160 336 LINE",
"32 336 LINE"
);
},
{
closed = 1;
nodes = (
"224 0 LINE",
"352 0 LINE",
"352 336 LINE",
"224 336 LINE"
);
}
);
width = 384;
},
{
anchors = (
{
name = top;
position = "{128, 504}";
}
);
components = (
{
name = _part.ansatz;
transform = "{1, 0, 0, 1, 32, 0}";
}
);
layerId = m003;
paths = (
{
closed = 1;
nodes = (
"32 0 LINE",
"96 0 LINE",
"96 392 LINE",
"32 392 LINE"
);
},
{
closed = 1;
nodes = (
"160 0 LINE",
"224 0 LINE",
"224 392 LINE",
"160 392 LINE"
);
}
);
width = 256;
}
);
leftKerningGroup = n;
rightKerningGroup = n;
unicode = 006E;
userData = {
com.typemytype.robofont.mark = (
0.6,
0.609,
1,
1
);
};
},
{
color = 7;
glyphname = o;
layers = (
{
anchors = (
{
name = top;
position = "{128, 504}";
}
);
background = {
anchors = (
{
name = top;
position = "{128, 504}";
}
);
paths = (
{
closed = 1;
nodes = (
"80 112 LINE",
"80 392 LINE",
"48 392 LINE",
"48 112 LINE"
);
},
{
closed = 1;
nodes = (
"208 112 LINE",
"208 392 LINE",
"176 392 LINE",
"176 112 LINE"
);
},
{
closed = 1;
nodes = (
"208 434 LINE SMOOTH",
"208 480 OFFCURVE",
"179 508 OFFCURVE",
"128 508 CURVE",
"128 480 LINE",
"155 480 OFFCURVE",
"176 468 OFFCURVE",
"176 432 CURVE SMOOTH",
"176 392 LINE",
"208 392 LINE"
);
},
{
closed = 1;
nodes = (
"80 392 LINE",
"80 432 LINE SMOOTH",
"80 468 OFFCURVE",
"101 480 OFFCURVE",
"128 480 CURVE",
"128 508 LINE",
"77 508 OFFCURVE",
"48 480 OFFCURVE",
"48 434 CURVE SMOOTH",
"48 392 LINE"
);
},
{
closed = 1;
nodes = (
"48 70 LINE SMOOTH",
"48 24 OFFCURVE",
"77 -4 OFFCURVE",
"128 -4 CURVE",
"128 24 LINE",
"101 24 OFFCURVE",
"80 36 OFFCURVE",
"80 72 CURVE SMOOTH",
"80 112 LINE",
"48 112 LINE"
);
},
{
closed = 1;
nodes = (
"176 112 LINE",
"176 72 LINE SMOOTH",
"176 36 OFFCURVE",
"155 24 OFFCURVE",
"128 24 CURVE",
"128 -4 LINE",
"179 -4 OFFCURVE",
"208 24 OFFCURVE",
"208 70 CURVE SMOOTH",
"208 112 LINE"
);
}
);
};
components = (
{
name = _part.bogen;
transform = "{-1, 0, 0, 1, 224, 0}";
},
{
name = _part.bogen;
transform = "{1, 0, 0, 1, 32, 0}";
},
{
name = _part.bogen;
transform = "{1, 0, 0, -1, 32, 504}";
},
{
name = _part.bogen;
transform = "{-1, 0, 0, -1, 224, 504}";
}
);
layerId = "2FCEC9C4-D6B8-40A6-8432-FB04296B16B9";
paths = (
{
closed = 1;
nodes = (
"48 112 LINE",
"80 112 LINE",
"80 392 LINE",
"48 392 LINE"
);
},
{
closed = 1;
nodes = (
"176 112 LINE",
"208 112 LINE",
"208 392 LINE",
"176 392 LINE"
);
}
);
width = 256;
},
{
anchors = (
{
name = top;
position = "{192, 504}";
}
);
components = (
{
name = _part.bogen;
transform = "{-1, 0, 0, 1, 288, 6}";
},
{
name = _part.bogen;
transform = "{1, 0, 0, 1, 96, 6}";
},
{
name = _part.bogen;
transform = "{1, 0, 0, -1, 96, 498}";
},
{
name = _part.bogen;
transform = "{-1, 0, 0, -1, 288, 498}";
}
);
layerId = m002;
paths = (
{
closed = 1;
nodes = (
"32 162 LINE",
"160 162 LINE",
"160 342 LINE",
"32 342 LINE"
);
},
{
closed = 1;
nodes = (
"224 162 LINE",
"352 162 LINE",
"352 342 LINE",
"224 342 LINE"
);
}
);
width = 384;
},
{
anchors = (
{
name = top;
position = "{128, 504}";
}
);
components = (
{
name = _part.bogen;
transform = "{-1, 0, 0, 1, 224, 0}";
},
{
name = _part.bogen;
transform = "{1, 0, 0, 1, 32, 0}";
},
{
name = _part.bogen;
transform = "{1, 0, 0, -1, 32, 504}";
},
{
name = _part.bogen;
transform = "{-1, 0, 0, -1, 224, 504}";
}
);
layerId = m003;
paths = (
{
closed = 1;
nodes = (
"32 112 LINE",
"96 112 LINE",
"96 392 LINE",
"32 392 LINE"
);
},
{
closed = 1;
nodes = (
"160 112 LINE",
"224 112 LINE",
"224 392 LINE",
"160 392 LINE"
);
}
);
width = 256;
}
);
leftKerningGroup = e;
rightKerningGroup = o;
unicode = 006F;
userData = {
com.typemytype.robofont.mark = (
0.6,
0.609,
1,
1
);
};
},
{
color = 7;
glyphname = p;
layers = (
{
anchors = (
{
name = top;
position = "{128, 504}";
}
);
background = {
anchors = (
{
name = top;
position = "{128, 504}";
}
);
paths = (
{
closed = 1;
nodes = (
"176 392 LINE",
"176 112 LINE",
"208 112 LINE",
"208 392 LINE"
);
},
{
closed = 1;
nodes = (
"48 392 LINE",
"48 -168 LINE",
"80 -168 LINE",
"80 392 LINE"
);
},
{
closed = 1;
nodes = (
"208 112 LINE",
"176 112 LINE",
"176 76 LINE SMOOTH",
"176 40 OFFCURVE",
"155 28 OFFCURVE",
"128 28 CURVE SMOOTH",
"101 28 OFFCURVE",
"80 40 OFFCURVE",
"80 76 CURVE SMOOTH",
"80 112 LINE",
"48 112 LINE",
"48 0 LINE",
"72 0 LINE",
"76 24 LINE",
"78 24 LINE",
"89 11 OFFCURVE",
"106 0 OFFCURVE",
"133 0 CURVE SMOOTH",
"178 0 OFFCURVE",
"208 28 OFFCURVE",
"208 74 CURVE SMOOTH"
);
},
{
closed = 1;
nodes = (
"208 476 OFFCURVE",
"178 504 OFFCURVE",
"133 504 CURVE SMOOTH",
"106 504 OFFCURVE",
"89 493 OFFCURVE",
"78 480 CURVE",
"76 480 LINE",
"72 504 LINE",
"48 504 LINE",
"48 392 LINE",
"80 392 LINE",
"80 428 LINE SMOOTH",
"80 464 OFFCURVE",
"101 476 OFFCURVE",
"128 476 CURVE SMOOTH",
"155 476 OFFCURVE",
"176 464 OFFCURVE",
"176 428 CURVE SMOOTH",
"176 392 LINE",
"208 392 LINE",
"208 430 LINE SMOOTH"
);
}
);
};
components = (
{
name = _part.ansatz;
transform = "{1, 0, 0, -1, 48, 504}";
},
{
name = _part.ansatz;
transform = "{1, 0, 0, 1, 48, 0}";
}
);
layerId = "2FCEC9C4-D6B8-40A6-8432-FB04296B16B9";
paths = (
{
closed = 1;
nodes = (
"208 392 LINE",
"176 392 LINE",
"176 112 LINE",
"208 112 LINE"
);
},
{
closed = 1;
nodes = (
"80 392 LINE",
"48 392 LINE",
"48 -168 LINE",
"80 -168 LINE"
);
}
);
width = 256;
},
{
anchors = (
{
name = top;
position = "{128, 504}";
}
);
components = (
{
name = _part.ansatz;
transform = "{1, 0, 0, -1, 0, 504}";
},
{
name = _part.ansatz;
}
);
layerId = m002;
paths = (
{
closed = 1;
nodes = (
"352 336 LINE",
"224 336 LINE",
"224 168 LINE",
"352 168 LINE"
);
},
{
closed = 1;
nodes = (
"160 336 LINE",
"32 336 LINE",
"32 -168 LINE",
"160 -168 LINE"
);
}
);
width = 384;
},
{
anchors = (
{
name = top;
position = "{128, 504}";
}
);
components = (
{
name = _part.ansatz;
transform = "{1, 0, 0, -1, 32, 504}";
},
{
name = _part.ansatz;
transform = "{1, 0, 0, 1, 32, 0}";
}
);
layerId = m003;
paths = (
{
closed = 1;
nodes = (
"224 392 LINE",
"160 392 LINE",
"160 112 LINE",
"224 112 LINE"
);
},
{
closed = 1;
nodes = (
"96 392 LINE",
"32 392 LINE",
"32 -168 LINE",
"96 -168 LINE"
);
}
);
width = 256;
}
);
leftMetricsKey = n;
rightKerningGroup = o;
rightMetricsKey = o;
unicode = 0070;
userData = {
com.typemytype.robofont.mark = (
0.6,
0.609,
1,
1
);
};
},
{
color = 6;
glyphname = q;
layers = (
{
background = {
anchors = (
{
name = top;
position = "{128, 504}";
}
);
components = (
{
name = _part.ansatz;
transform = "{-1, 0, 0, -1, 224, 504}";
},
{
name = _part.ansatz;
transform = "{-1, 0, 0, 1, 224, 0}";
}
);
paths = (
{
closed = 1;
nodes = (
"32 112 LINE",
"96 112 LINE",
"96 392 LINE",
"32 392 LINE"
);
},
{
closed = 1;
nodes = (
"160 -168 LINE",
"224 -168 LINE",
"224 392 LINE",
"160 392 LINE"
);
}
);
};
components = (
{
name = p;
transform = "{-1, 0, 0, 1, 256, 0}";
}
);
layerId = "2FCEC9C4-D6B8-40A6-8432-FB04296B16B9";
width = 256;
},
{
background = {
anchors = (
{
name = top;
position = "{128, 504}";
}
);
components = (
{
name = _part.ansatz;
transform = "{-1, 0, 0, -1, 224, 504}";
},
{
name = _part.ansatz;
transform = "{-1, 0, 0, 1, 224, 0}";
}
);
paths = (
{
closed = 1;
nodes = (
"32 112 LINE",
"96 112 LINE",
"96 392 LINE",
"32 392 LINE"
);
},
{
closed = 1;
nodes = (
"160 -168 LINE",
"224 -168 LINE",
"224 392 LINE",
"160 392 LINE"
);
}
);
};
components = (
{
name = p;
transform = "{-1, 0, 0, 1, 384, 0}";
}
);
layerId = m002;
width = 384;
},
{
background = {
anchors = (
{
name = top;
position = "{128, 504}";
}
);
components = (
{
name = _part.ansatz;
transform = "{-1, 0, 0, -1, 224, 504}";
},
{
name = _part.ansatz;
transform = "{-1, 0, 0, 1, 224, 0}";
}
);
paths = (
{
closed = 1;
nodes = (
"32 112 LINE",
"96 112 LINE",
"96 392 LINE",
"32 392 LINE"
);
},
{
closed = 1;
nodes = (
"160 -168 LINE",
"224 -168 LINE",
"224 392 LINE",
"160 392 LINE"
);
}
);
};
components = (
{
name = p;
transform = "{-1, 0, 0, 1, 256, 0}";
}
);
layerId = m003;
width = 256;
}
);
leftKerningGroup = e;
leftMetricsKey = o;
unicode = 0071;
userData = {
com.typemytype.robofont.mark = (
0.6,
0.609,
1,
1
);
};
},
{
glyphname = r;
layers = (
{
anchors = (
{
name = top;
position = "{96, 504}";
}
);
background = {
anchors = (
{
name = top;
position = "{96, 504}";
}
);
paths = (
{
closed = 1;
nodes = (
"80 0 LINE",
"80 392 LINE",
"48 392 LINE",
"48 0 LINE"
);
},
{
closed = 1;
nodes = (
"168 506 LINE",
"141 506 LINE SMOOTH",
"110 506 OFFCURVE",
"96 494 OFFCURVE",
"88 479 CURVE",
"85 479 LINE",
"80 504 LINE",
"48 504 LINE",
"48 392 LINE",
"96 392 LINE",
"96 419 LINE SMOOTH",
"96 441 OFFCURVE",
"107 448 OFFCURVE",
"128 448 CURVE SMOOTH",
"168 448 LINE"
);
}
);
};
layerId = "2FCEC9C4-D6B8-40A6-8432-FB04296B16B9";
paths = (
{
closed = 1;
nodes = (
"32 0 LINE",
"96 0 LINE",
"96 392 LINE",
"32 392 LINE"
);
},
{
closed = 1;
nodes = (
"168 506 LINE",
"146 506 LINE SMOOTH",
"116 506 OFFCURVE",
"98 494 OFFCURVE",
"88 479 CURVE",
"85 479 LINE",
"80 504 LINE",
"32 504 LINE",
"32 392 LINE",
"96 392 LINE",
"96 419 LINE SMOOTH",
"96 441 OFFCURVE",
"107 448 OFFCURVE",
"128 448 CURVE SMOOTH",
"168 448 LINE"
);
}
);
width = 176;
},
{
anchors = (
{
name = top;
position = "{96, 504}";
}
);
layerId = m002;
paths = (
{
closed = 1;
nodes = (
"32 0 LINE",
"96 0 LINE",
"96 392 LINE",
"32 392 LINE"
);
},
{
closed = 1;
nodes = (
"168 506 LINE",
"146 506 LINE SMOOTH",
"116 506 OFFCURVE",
"98 494 OFFCURVE",
"88 479 CURVE",
"85 479 LINE",
"80 504 LINE",
"32 504 LINE",
"32 392 LINE",
"96 392 LINE",
"96 419 LINE SMOOTH",
"96 441 OFFCURVE",
"107 448 OFFCURVE",
"128 448 CURVE SMOOTH",
"168 448 LINE"
);
}
);
width = 176;
},
{
anchors = (
{
name = top;
position = "{96, 504}";
}
);
layerId = m003;
paths = (
{
closed = 1;
nodes = (
"32 0 LINE",
"96 0 LINE",
"96 392 LINE",
"32 392 LINE"
);
},
{
closed = 1;
nodes = (
"168 506 LINE",
"146 506 LINE SMOOTH",
"116 506 OFFCURVE",
"98 494 OFFCURVE",
"88 479 CURVE",
"85 479 LINE",
"80 504 LINE",
"32 504 LINE",
"32 392 LINE",
"96 392 LINE",
"96 419 LINE SMOOTH",
"96 441 OFFCURVE",
"107 448 OFFCURVE",
"128 448 CURVE SMOOTH",
"168 448 LINE"
);
}
);
width = 176;
}
);
leftKerningGroup = n;
leftMetricsKey = n;
rightKerningGroup = r;
unicode = 0072;
},
{
color = 7;
glyphname = s;
layers = (
{
anchors = (
{
name = top;
position = "{128, 504}";
}
);
background = {
anchors = (
{
name = top;
position = "{128, 504}";
}
);
paths = (
{
closed = 1;
nodes = (
"208 112 LINE",
"208 149 LINE",
"176 149 LINE",
"176 112 LINE"
);
},
{
closed = 1;
nodes = (
"80 112 LINE",
"80 140 LINE",
"48 140 LINE",
"48 112 LINE"
);
},
{
closed = 1;
nodes = (
"208 364 LINE",
"208 392 LINE",
"176 392 LINE",
"176 364 LINE"
);
},
{
closed = 1;
nodes = (
"80 353 LINE",
"80 392 LINE",
"48 392 LINE",
"48 353 LINE"
);
},
{
closed = 1;
nodes = (
"208 434 LINE SMOOTH",
"208 480 OFFCURVE",
"179 508 OFFCURVE",
"128 508 CURVE",
"128 480 LINE",
"155 480 OFFCURVE",
"176 468 OFFCURVE",
"176 432 CURVE SMOOTH",
"176 392 LINE",
"208 392 LINE"
);
},
{
closed = 1;
nodes = (
"80 392 LINE",
"80 432 LINE SMOOTH",
"80 468 OFFCURVE",
"101 480 OFFCURVE",
"128 480 CURVE",
"128 508 LINE",
"77 508 OFFCURVE",
"48 480 OFFCURVE",
"48 434 CURVE SMOOTH",
"48 392 LINE"
);
},
{
closed = 1;
nodes = (
"48 70 LINE SMOOTH",
"48 24 OFFCURVE",
"77 -4 OFFCURVE",
"128 -4 CURVE",
"128 24 LINE",
"101 24 OFFCURVE",
"80 36 OFFCURVE",
"80 72 CURVE SMOOTH",
"80 112 LINE",
"48 112 LINE"
);
},
{
closed = 1;
nodes = (
"176 112 LINE",
"176 72 LINE SMOOTH",
"176 36 OFFCURVE",
"155 24 OFFCURVE",
"128 24 CURVE",
"128 -4 LINE",
"179 -4 OFFCURVE",
"208 24 OFFCURVE",
"208 70 CURVE SMOOTH",
"208 112 LINE"
);
},
{
closed = 1;
nodes = (
"48 311 LINE SMOOTH",
"48 265 OFFCURVE",
"77 237 OFFCURVE",
"128 237 CURVE",
"128 265 LINE",
"101 265 OFFCURVE",
"80 277 OFFCURVE",
"80 313 CURVE SMOOTH",
"80 353 LINE",
"48 353 LINE"
);
},
{
closed = 1;
nodes = (
"208 191 LINE SMOOTH",
"208 237 OFFCURVE",
"179 265 OFFCURVE",
"128 265 CURVE",
"128 237 LINE",
"155 237 OFFCURVE",
"176 225 OFFCURVE",
"176 189 CURVE SMOOTH",
"176 149 LINE",
"208 149 LINE"
);
}
);
};
components = (
{
name = _part.bogen;
transform = "{-1, 0, 0, 1, 224, 0}";
},
{
name = _part.bogen;
transform = "{1, 0, 0, 1, 32, 0}";
},
{
name = _part.bogen;
transform = "{1, 0, 0, -1, 32, 504}";
},
{
name = _part.bogen;
transform = "{-1, 0, 0, -1, 224, 504}";
}
);
layerId = "2FCEC9C4-D6B8-40A6-8432-FB04296B16B9";
paths = (
{
closed = 1;
nodes = (
"176 112 LINE",
"208 112 LINE",
"208 164 LINE",
"176 164 LINE"
);
},
{
closed = 1;
nodes = (
"48 112 LINE",
"80 112 LINE",
"80 140 LINE",
"48 140 LINE"
);
},
{
closed = 1;
nodes = (
"176 364 LINE",
"208 364 LINE",
"208 392 LINE",
"176 392 LINE"
);
},
{
closed = 1;
nodes = (
"208 164 LINE",
"176 164 LINE",
"176 189 LINE SMOOTH",
"176 225 OFFCURVE",
"160 237 OFFCURVE",
"128 237 CURVE SMOOTH",
"77 237 OFFCURVE",
"48 263 OFFCURVE",
"48 311 CURVE SMOOTH",
"48 340 LINE",
"80 340 LINE",
"80 313 LINE SMOOTH",
"80 277 OFFCURVE",
"97 265 OFFCURVE",
"128 265 CURVE SMOOTH",
"179 265 OFFCURVE",
"208 239 OFFCURVE",
"208 191 CURVE SMOOTH"
);
},
{
closed = 1;
nodes = (
"48 340 LINE",
"80 340 LINE",
"80 392 LINE",
"48 392 LINE"
);
}
);
width = 256;
},
{
anchors = (
{
name = top;
position = "{128, 504}";
}
);
components = (
{
name = _part.bogen;
transform = "{-1, 0, 0, 1, 224, 0}";
},
{
name = _part.bogen;
transform = "{1, 0, 0, 1, 32, 0}";
},
{
name = _part.bogen;
transform = "{1, 0, 0, -1, 32, 504}";
},
{
name = _part.bogen;
transform = "{-1, 0, 0, -1, 224, 504}";
}
);
layerId = m002;
paths = (
{
closed = 1;
nodes = (
"160 112 LINE",
"224 112 LINE",
"224 164 LINE",
"160 164 LINE"
);
},
{
closed = 1;
nodes = (
"32 112 LINE",
"96 112 LINE",
"96 140 LINE",
"32 140 LINE"
);
},
{
closed = 1;
nodes = (
"160 364 LINE",
"224 364 LINE",
"224 392 LINE",
"160 392 LINE"
);
},
{
closed = 1;
nodes = (
"224 164 LINE",
"160 164 LINE",
"160 192 LINE SMOOTH",
"160 214 OFFCURVE",
"149 221 OFFCURVE",
"128 221 CURVE SMOOTH",
"67 221 OFFCURVE",
"32 249 OFFCURVE",
"32 302 CURVE SMOOTH",
"32 340 LINE",
"96 340 LINE",
"96 311 LINE SMOOTH",
"96 289 OFFCURVE",
"107 282 OFFCURVE",
"128 282 CURVE SMOOTH",
"189 282 OFFCURVE",
"224 254 OFFCURVE",
"224 201 CURVE SMOOTH"
);
},
{
closed = 1;
nodes = (
"32 340 LINE",
"96 340 LINE",
"96 392 LINE",
"32 392 LINE"
);
}
);
width = 256;
},
{
anchors = (
{
name = top;
position = "{118, 504}";
}
);
background = {
paths = (
{
closed = 0;
nodes = (
"214 185 LINE",
"214 231 OFFCURVE",
"186 264 OFFCURVE",
"131 283 CURVE SMOOTH",
"91 297 OFFCURVE",
"86 313 OFFCURVE",
"86 345 CURVE SMOOTH"
);
},
{
closed = 0;
nodes = (
"22 318 LINE",
"22 262 OFFCURVE",
"53 240 OFFCURVE",
"103 221 CURVE SMOOTH",
"145 206 OFFCURVE",
"150 186 OFFCURVE",
"150 159 CURVE SMOOTH"
);
}
);
};
layerId = m003;
paths = (
{
closed = 1;
nodes = (
"26 77 LINE SMOOTH",
"26 24 OFFCURVE",
"60 -4 OFFCURVE",
"118 -4 CURVE SMOOTH",
"176 -4 OFFCURVE",
"210 24 OFFCURVE",
"210 77 CURVE SMOOTH",
"210 172 LINE SMOOTH",
"210 231 OFFCURVE",
"184 260 OFFCURVE",
"131 281 CURVE SMOOTH",
"91 297 OFFCURVE",
"90 312 OFFCURVE",
"90 345 CURVE SMOOTH",
"90 423 LINE SMOOTH",
"90 445 OFFCURVE",
"100 452 OFFCURVE",
"118 452 CURVE SMOOTH",
"136 452 OFFCURVE",
"146 445 OFFCURVE",
"146 423 CURVE SMOOTH",
"146 364 LINE",
"210 364 LINE",
"210 427 LINE SMOOTH",
"210 480 OFFCURVE",
"176 508 OFFCURVE",
"118 508 CURVE SMOOTH",
"60 508 OFFCURVE",
"26 480 OFFCURVE",
"26 427 CURVE SMOOTH",
"26 328 LINE SMOOTH",
"26 264 OFFCURVE",
"54 242 OFFCURVE",
"103 223 CURVE SMOOTH",
"145 207 OFFCURVE",
"146 188 OFFCURVE",
"146 160 CURVE SMOOTH",
"146 81 LINE SMOOTH",
"146 59 OFFCURVE",
"136 52 OFFCURVE",
"118 52 CURVE SMOOTH",
"100 52 OFFCURVE",
"90 59 OFFCURVE",
"90 81 CURVE SMOOTH",
"90 140 LINE",
"26 140 LINE"
);
}
);
width = 236;
}
);
leftKerningGroup = s;
rightKerningGroup = s;
unicode = 0073;
userData = {
com.typemytype.robofont.mark = (
0.6,
0.609,
1,
1
);
};
},
{
color = 7;
glyphname = germandbls;
layers = (
{
background = {
paths = (
{
closed = 1;
nodes = (
"80 0 LINE",
"80 556 LINE",
"48 556 LINE",
"48 0 LINE"
);
},
{
closed = 1;
nodes = (
"48 476 LINE",
"48 504 LINE",
"0 504 LINE",
"0 476 LINE"
);
},
{
closed = 1;
nodes = (
"208 112 LINE",
"208 262 LINE",
"176 262 LINE",
"176 112 LINE"
);
},
{
closed = 1;
nodes = (
"208 466 LINE",
"208 556 LINE",
"176 556 LINE",
"176 466 LINE"
);
},
{
closed = 1;
nodes = (
"80 556 LINE",
"80 596 LINE SMOOTH",
"80 632 OFFCURVE",
"101 644 OFFCURVE",
"128 644 CURVE",
"128 672 LINE",
"77 672 OFFCURVE",
"48 644 OFFCURVE",
"48 598 CURVE SMOOTH",
"48 556 LINE"
);
},
{
closed = 1;
nodes = (
"208 598 LINE SMOOTH",
"208 644 OFFCURVE",
"179 672 OFFCURVE",
"128 672 CURVE",
"128 644 LINE",
"155 644 OFFCURVE",
"176 632 OFFCURVE",
"176 596 CURVE SMOOTH",
"176 556 LINE",
"208 556 LINE"
);
},
{
closed = 1;
nodes = (
"176 466 LINE",
"176 426 LINE SMOOTH",
"176 390 OFFCURVE",
"155 378 OFFCURVE",
"128 378 CURVE",
"128 350 LINE",
"179 350 OFFCURVE",
"208 378 OFFCURVE",
"208 424 CURVE SMOOTH",
"208 466 LINE"
);
},
{
closed = 1;
nodes = (
"176 112 LINE",
"176 72 LINE SMOOTH",
"176 36 OFFCURVE",
"155 24 OFFCURVE",
"128 24 CURVE",
"128 -4 LINE",
"179 -4 OFFCURVE",
"208 24 OFFCURVE",
"208 70 CURVE SMOOTH",
"208 112 LINE"
);
},
{
closed = 1;
nodes = (
"208 304 LINE SMOOTH",
"208 350 OFFCURVE",
"179 378 OFFCURVE",
"128 378 CURVE",
"128 350 LINE",
"155 350 OFFCURVE",
"176 338 OFFCURVE",
"176 302 CURVE SMOOTH",
"176 262 LINE",
"208 262 LINE"
);
}
);
};
components = (
{
name = _part.bogen;
transform = "{1, 0, 0, 1, 32, 164}";
},
{
name = _part.bogen;
transform = "{-1, 0, 0, 1, 224, 164}";
},
{
name = _part.bogen;
piece = {
Optical = 34;
};
transform = "{-1, 0, 0, -1, 224, 858}";
},
{
name = _part.bogen;
transform = "{-1, 0, 0, -1, 224, 504}";
},
{
name = _part.bogen;
piece = {
Optical = 34;
};
transform = "{-1, 0, 0, 1, 224, -130}";
}
);
layerId = "2FCEC9C4-D6B8-40A6-8432-FB04296B16B9";
paths = (
{
closed = 1;
nodes = (
"48 0 LINE",
"80 0 LINE",
"80 556 LINE",
"48 556 LINE"
);
},
{
closed = 1;
nodes = (
"0 476 LINE",
"48 476 LINE",
"48 504 LINE",
"0 504 LINE"
);
},
{
closed = 1;
nodes = (
"176 112 LINE",
"208 112 LINE",
"208 262 LINE",
"176 262 LINE"
);
},
{
closed = 1;
nodes = (
"176 466 LINE",
"208 466 LINE",
"208 556 LINE",
"176 556 LINE"
);
},
{
closed = 1;
nodes = (
"128 350 LINE",
"155 350 LINE",
"155 378 LINE",
"128 378 LINE"
);
}
);
width = 256;
},
{
background = {
components = (
{
name = _part.bogen;
transform = "{1, 0, 0, 1, 32, 164}";
},
{
name = _part.bogen;
transform = "{-1, 0, 0, 1, 224, 164}";
},
{
name = _part.bogen;
transform = "{-1, 0, 0, -1, 224, 844}";
},
{
name = _part.bogen;
transform = "{-1, 0, 0, -1, 224, 504}";
},
{
name = _part.bogen;
transform = "{-1, 0, 0, 1, 224, -116}";
}
);
paths = (
{
closed = 1;
nodes = (
"32 0 LINE",
"96 0 LINE",
"96 556 LINE",
"32 556 LINE"
);
},
{
closed = 1;
nodes = (
"0 448 LINE",
"32 448 LINE",
"32 504 LINE",
"0 504 LINE"
);
},
{
closed = 1;
nodes = (
"160 112 LINE",
"224 112 LINE",
"224 276 LINE",
"160 276 LINE"
);
},
{
closed = 1;
nodes = (
"160 452 LINE",
"224 452 LINE",
"224 556 LINE",
"160 556 LINE"
);
}
);
};
components = (
{
name = _part.bogen;
transform = "{1, 0, 0, 1, 32, 164}";
},
{
name = _part.bogen;
transform = "{-1, 0, 0, 1, 224, 164}";
},
{
name = _part.bogen;
piece = {
Optical = 34;
};
transform = "{-1, 0, 0, -1, 224, 844}";
},
{
name = _part.bogen;
transform = "{-1, 0, 0, -1, 224, 504}";
},
{
name = _part.bogen;
piece = {
Optical = 34;
};
transform = "{-1, 0, 0, 1, 224, -116}";
}
);
layerId = m002;
paths = (
{
closed = 1;
nodes = (
"32 0 LINE",
"96 0 LINE",
"96 556 LINE",
"32 556 LINE"
);
},
{
closed = 1;
nodes = (
"0 448 LINE",
"32 448 LINE",
"32 504 LINE",
"0 504 LINE"
);
},
{
closed = 1;
nodes = (
"160 112 LINE",
"224 112 LINE",
"224 276 LINE",
"160 276 LINE"
);
},
{
closed = 1;
nodes = (
"160 452 LINE",
"224 452 LINE",
"224 556 LINE",
"160 556 LINE"
);
},
{
closed = 1;
nodes = (
"128 336 LINE",
"184 336 LINE",
"184 392 LINE",
"128 392 LINE"
);
}
);
width = 256;
},
{
background = {
components = (
{
name = _part.bogen;
transform = "{1, 0, 0, 1, 32, 164}";
},
{
name = _part.bogen;
transform = "{-1, 0, 0, 1, 224, 164}";
},
{
name = _part.bogen;
transform = "{-1, 0, 0, -1, 224, 844}";
},
{
name = _part.bogen;
transform = "{-1, 0, 0, -1, 224, 504}";
},
{
name = _part.bogen;
transform = "{-1, 0, 0, 1, 224, -116}";
}
);
paths = (
{
closed = 1;
nodes = (
"32 0 LINE",
"96 0 LINE",
"96 556 LINE",
"32 556 LINE"
);
},
{
closed = 1;
nodes = (
"0 448 LINE",
"32 448 LINE",
"32 504 LINE",
"0 504 LINE"
);
},
{
closed = 1;
nodes = (
"160 112 LINE",
"224 112 LINE",
"224 276 LINE",
"160 276 LINE"
);
},
{
closed = 1;
nodes = (
"160 452 LINE",
"224 452 LINE",
"224 556 LINE",
"160 556 LINE"
);
}
);
};
components = (
{
name = _part.bogen;
transform = "{1, 0, 0, 1, 32, 164}";
},
{
name = _part.bogen;
transform = "{-1, 0, 0, 1, 224, 164}";
},
{
name = _part.bogen;
piece = {
Optical = 34;
};
transform = "{-1, 0, 0, -1, 224, 844}";
},
{
name = _part.bogen;
transform = "{-1, 0, 0, -1, 224, 504}";
},
{
name = _part.bogen;
piece = {
Optical = 34;
};
transform = "{-1, 0, 0, 1, 224, -116}";
}
);
layerId = m003;
paths = (
{
closed = 1;
nodes = (
"32 0 LINE",
"96 0 LINE",
"96 556 LINE",
"32 556 LINE"
);
},
{
closed = 1;
nodes = (
"0 448 LINE",
"32 448 LINE",
"32 504 LINE",
"0 504 LINE"
);
},
{
closed = 1;
nodes = (
"160 112 LINE",
"224 112 LINE",
"224 276 LINE",
"160 276 LINE"
);
},
{
closed = 1;
nodes = (
"160 452 LINE",
"224 452 LINE",
"224 556 LINE",
"160 556 LINE"
);
},
{
closed = 1;
nodes = (
"128 336 LINE",
"184 336 LINE",
"184 392 LINE",
"128 392 LINE"
);
}
);
width = 256;
}
);
leftKerningGroup = f;
leftMetricsKey = f;
unicode = 00DF;
userData = {
com.typemytype.robofont.mark = (
0.6,
0.609,
1,
1
);
};
},
{
color = 7;
glyphname = longs;
layers = (
{
background = {
paths = (
{
closed = 1;
nodes = (
"96 0 LINE",
"96 558 LINE",
"32 558 LINE",
"32 0 LINE"
);
},
{
closed = 1;
nodes = (
"32 448 LINE",
"32 504 LINE",
"0 504 LINE",
"0 448 LINE"
);
},
{
closed = 1;
nodes = (
"160 618 LINE",
"160 674 LINE",
"128 674 LINE",
"128 618 LINE"
);
},
{
closed = 1;
nodes = (
"80 558 LINE",
"80 598 LINE SMOOTH",
"80 634 OFFCURVE",
"101 646 OFFCURVE",
"128 646 CURVE",
"128 674 LINE",
"77 674 OFFCURVE",
"48 646 OFFCURVE",
"48 600 CURVE SMOOTH",
"48 558 LINE"
);
}
);
};
components = (
{
name = _part.bogen;
transform = "{1, 0, 0, 1, 32, 166}";
}
);
layerId = "2FCEC9C4-D6B8-40A6-8432-FB04296B16B9";
paths = (
{
closed = 1;
nodes = (
"48 0 LINE",
"80 0 LINE",
"80 558 LINE",
"48 558 LINE"
);
},
{
closed = 1;
nodes = (
"0 476 LINE",
"48 476 LINE",
"48 504 LINE",
"0 504 LINE"
);
},
{
closed = 1;
nodes = (
"128 646 LINE",
"160 646 LINE",
"160 674 LINE",
"128 674 LINE"
);
}
);
width = 128;
},
{
components = (
{
name = _part.bogen;
transform = "{1, 0, 0, 1, 32, 166}";
}
);
layerId = m002;
paths = (
{
closed = 1;
nodes = (
"32 0 LINE",
"96 0 LINE",
"96 558 LINE",
"32 558 LINE"
);
},
{
closed = 1;
nodes = (
"0 448 LINE",
"32 448 LINE",
"32 504 LINE",
"0 504 LINE"
);
},
{
closed = 1;
nodes = (
"128 618 LINE",
"160 618 LINE",
"160 674 LINE",
"128 674 LINE"
);
}
);
width = 128;
},
{
components = (
{
name = _part.bogen;
transform = "{1, 0, 0, 1, 32, 166}";
}
);
layerId = m003;
paths = (
{
closed = 1;
nodes = (
"32 0 LINE",
"96 0 LINE",
"96 558 LINE",
"32 558 LINE"
);
},
{
closed = 1;
nodes = (
"0 448 LINE",
"32 448 LINE",
"32 504 LINE",
"0 504 LINE"
);
},
{
closed = 1;
nodes = (
"128 618 LINE",
"160 618 LINE",
"160 674 LINE",
"128 674 LINE"
);
}
);
width = 128;
}
);
leftKerningGroup = f;
leftMetricsKey = f;
unicode = 017F;
userData = {
com.typemytype.robofont.mark = (
0.6,
0.609,
1,
1
);
};
},
{
color = 7;
glyphname = t;
layers = (
{
background = {
paths = (
{
closed = 1;
nodes = (
"80 115 LINE",
"80 616 LINE",
"48 616 LINE",
"48 115 LINE"
);
},
{
closed = 1;
nodes = (
"160 476 LINE",
"160 504 LINE",
"0 504 LINE",
"0 476 LINE"
);
},
{
closed = 1;
nodes = (
"160 -1 LINE",
"160 27 LINE",
"128 27 LINE",
"128 -1 LINE"
);
},
{
closed = 1;
nodes = (
"48 73 LINE SMOOTH",
"48 27 OFFCURVE",
"77 -1 OFFCURVE",
"128 -1 CURVE",
"128 27 LINE",
"101 27 OFFCURVE",
"80 39 OFFCURVE",
"80 75 CURVE SMOOTH",
"80 115 LINE",
"48 115 LINE"
);
}
);
};
components = (
{
name = _part.bogen;
transform = "{1, 0, 0, -1, 32, 507}";
}
);
layerId = "2FCEC9C4-D6B8-40A6-8432-FB04296B16B9";
paths = (
{
closed = 1;
nodes = (
"48 115 LINE",
"80 115 LINE",
"80 616 LINE",
"48 616 LINE"
);
},
{
closed = 1;
nodes = (
"0 476 LINE",
"160 476 LINE",
"160 504 LINE",
"0 504 LINE"
);
},
{
closed = 1;
nodes = (
"128 -1 LINE",
"160 -1 LINE",
"160 27 LINE",
"128 27 LINE"
);
}
);
width = 160;
},
{
components = (
{
name = _part.bogen;
transform = "{1, 0, 0, -1, 32, 507}";
}
);
layerId = m002;
paths = (
{
closed = 1;
nodes = (
"32 115 LINE",
"96 115 LINE",
"96 616 LINE",
"32 616 LINE"
);
},
{
closed = 1;
nodes = (
"0 448 LINE",
"160 448 LINE",
"160 504 LINE",
"0 504 LINE"
);
},
{
closed = 1;
nodes = (
"128 -1 LINE",
"160 -1 LINE",
"160 55 LINE",
"128 55 LINE"
);
}
);
width = 160;
},
{
components = (
{
name = _part.bogen;
transform = "{1, 0, 0, -1, 32, 507}";
}
);
layerId = m003;
paths = (
{
closed = 1;
nodes = (
"32 115 LINE",
"96 115 LINE",
"96 616 LINE",
"32 616 LINE"
);
},
{
closed = 1;
nodes = (
"0 448 LINE",
"160 448 LINE",
"160 504 LINE",
"0 504 LINE"
);
},
{
closed = 1;
nodes = (
"128 -1 LINE",
"160 -1 LINE",
"160 55 LINE",
"128 55 LINE"
);
}
);
width = 160;
}
);
leftKerningGroup = t;
rightKerningGroup = t;
unicode = 0074;
userData = {
com.typemytype.robofont.mark = (
0.6,
0.609,
1,
1
);
};
},
{
glyphname = v;
layers = (
{
anchors = (
{
name = top;
position = "{128, 504}";
}
);
background = {
anchors = (
{
name = top;
position = "{128, 504}";
}
);
paths = (
{
closed = 1;
nodes = (
"143 0 LINE",
"128 81 LINE",
"60 504 LINE",
"28 504 LINE",
"113 0 LINE"
);
},
{
closed = 1;
nodes = (
"195 504 LINE",
"128 80 LINE",
"113 0 LINE",
"143 0 LINE",
"228 504 LINE"
);
}
);
};
layerId = "2FCEC9C4-D6B8-40A6-8432-FB04296B16B9";
paths = (
{
closed = 1;
nodes = (
"96 0 LINE",
"133 0 LINE",
"133 80 LINE",
"79 504 LINE",
"10 504 LINE"
);
},
{
closed = 1;
nodes = (
"246 504 LINE",
"176 504 LINE",
"123 80 LINE",
"123 0 LINE",
"160 0 LINE"
);
},
{
closed = 1;
nodes = (
"96 0 LINE",
"160 0 LINE",
"160 140 LINE",
"96 140 LINE"
);
}
);
width = 256;
},
{
anchors = (
{
name = top;
position = "{128, 504}";
}
);
layerId = m002;
paths = (
{
closed = 1;
nodes = (
"96 0 LINE",
"133 0 LINE",
"133 80 LINE",
"79 504 LINE",
"10 504 LINE"
);
},
{
closed = 1;
nodes = (
"246 504 LINE",
"176 504 LINE",
"123 80 LINE",
"123 0 LINE",
"160 0 LINE"
);
},
{
closed = 1;
nodes = (
"96 0 LINE",
"160 0 LINE",
"160 140 LINE",
"96 140 LINE"
);
}
);
width = 256;
},
{
anchors = (
{
name = top;
position = "{128, 504}";
}
);
layerId = m003;
paths = (
{
closed = 1;
nodes = (
"96 0 LINE",
"133 0 LINE",
"133 80 LINE",
"79 504 LINE",
"10 504 LINE"
);
},
{
closed = 1;
nodes = (
"246 504 LINE",
"176 504 LINE",
"123 80 LINE",
"123 0 LINE",
"160 0 LINE"
);
},
{
closed = 1;
nodes = (
"96 0 LINE",
"160 0 LINE",
"160 140 LINE",
"96 140 LINE"
);
}
);
width = 256;
}
);
leftKerningGroup = w;
rightKerningGroup = w;
unicode = 0076;
},
{
color = 1;
glyphname = w;
layers = (
{
anchors = (
{
name = top;
position = "{207, 504}";
}
);
background = {
anchors = (
{
name = top;
position = "{192, 504}";
}
);
paths = (
{
closed = 1;
nodes = (
"163 0 LINE",
"80 504 LINE",
"10 504 LINE",
"96 0 LINE"
);
},
{
closed = 1;
nodes = (
"312 0 LINE",
"282 97 LINE",
"226 504 LINE",
"159 504 LINE",
"245 0 LINE"
);
},
{
closed = 1;
nodes = (
"329 504 LINE",
"278 97 LINE",
"269 0 LINE",
"316 0 LINE",
"402 504 LINE"
);
},
{
closed = 1;
nodes = (
"236 408 LINE",
"220 504 LINE",
"185 504 LINE",
"141 96 LINE",
"119 0 LINE",
"166 0 LINE",
"210 310 LINE"
);
}
);
};
layerId = "2FCEC9C4-D6B8-40A6-8432-FB04296B16B9";
paths = (
{
closed = 1;
nodes = (
"94 0 LINE",
"139 0 LINE",
"139 80 LINE",
"88 504 LINE",
"20 504 LINE"
);
},
{
closed = 1;
nodes = (
"227 504 LINE",
"176 504 LINE",
"115 80 LINE",
"115 0 LINE",
"150 0 LINE"
);
},
{
closed = 1;
nodes = (
"94 134 LINE",
"158 134 LINE",
"158 187 LINE",
"94 187 LINE"
);
},
{
closed = 1;
nodes = (
"262 0 LINE",
"306 0 LINE",
"306 80 LINE",
"238 504 LINE",
"181 504 LINE"
);
},
{
closed = 1;
nodes = (
"394 504 LINE",
"325 504 LINE",
"282 80 LINE",
"282 0 LINE",
"318 0 LINE"
);
},
{
closed = 1;
nodes = (
"254 134 LINE",
"318 134 LINE",
"318 187 LINE",
"254 187 LINE"
);
},
{
closed = 1;
nodes = (
"173 344 LINE",
"237 344 LINE",
"237 402 LINE",
"173 402 LINE"
);
}
);
width = 414;
},
{
anchors = (
{
name = top;
position = "{192, 504}";
}
);
associatedMasterId = "2FCEC9C4-D6B8-40A6-8432-FB04296B16B9";
layerId = "E2A94F78-529C-4E89-A457-E86C222998D7";
name = "Oct 29 20, 22:45";
paths = (
{
closed = 1;
nodes = (
"96 0 LINE",
"151 0 LINE",
"76 504 LINE",
"10 504 LINE"
);
},
{
closed = 1;
nodes = (
"245 0 LINE",
"312 0 LINE",
"282 97 LINE",
"226 504 LINE",
"159 504 LINE"
);
},
{
closed = 1;
nodes = (
"402 504 LINE",
"329 504 LINE",
"278 97 LINE",
"269 0 LINE",
"316 0 LINE"
);
},
{
closed = 1;
nodes = (
"210 310 LINE",
"236 408 LINE",
"220 504 LINE",
"185 504 LINE",
"141 96 LINE",
"119 0 LINE",
"166 0 LINE"
);
},
{
closed = 1;
nodes = (
"96 0 LINE",
"160 0 LINE",
"160 126 LINE",
"96 126 LINE"
);
},
{
closed = 1;
nodes = (
"259 0 LINE",
"309 0 LINE",
"309 126 LINE",
"259 126 LINE"
);
}
);
width = 415;
},
{
anchors = (
{
name = top;
position = "{207, 504}";
}
);
layerId = m002;
paths = (
{
closed = 1;
nodes = (
"94 0 LINE",
"139 0 LINE",
"139 80 LINE",
"88 504 LINE",
"20 504 LINE"
);
},
{
closed = 1;
nodes = (
"227 504 LINE",
"176 504 LINE",
"115 80 LINE",
"115 0 LINE",
"150 0 LINE"
);
},
{
closed = 1;
nodes = (
"94 134 LINE",
"158 134 LINE",
"158 187 LINE",
"94 187 LINE"
);
},
{
closed = 1;
nodes = (
"262 0 LINE",
"306 0 LINE",
"306 80 LINE",
"238 504 LINE",
"181 504 LINE"
);
},
{
closed = 1;
nodes = (
"394 504 LINE",
"325 504 LINE",
"282 80 LINE",
"282 0 LINE",
"318 0 LINE"
);
},
{
closed = 1;
nodes = (
"254 134 LINE",
"318 134 LINE",
"318 187 LINE",
"254 187 LINE"
);
},
{
closed = 1;
nodes = (
"173 344 LINE",
"237 344 LINE",
"237 402 LINE",
"173 402 LINE"
);
}
);
width = 414;
},
{
anchors = (
{
name = top;
position = "{192, 504}";
}
);
associatedMasterId = m002;
layerId = "C15B8F88-547E-4B71-95DB-3201B6663267";
name = "Oct 29 20, 22:45";
paths = (
{
closed = 1;
nodes = (
"96 0 LINE",
"151 0 LINE",
"76 504 LINE",
"10 504 LINE"
);
},
{
closed = 1;
nodes = (
"245 0 LINE",
"312 0 LINE",
"282 97 LINE",
"226 504 LINE",
"159 504 LINE"
);
},
{
closed = 1;
nodes = (
"402 504 LINE",
"329 504 LINE",
"278 97 LINE",
"269 0 LINE",
"316 0 LINE"
);
},
{
closed = 1;
nodes = (
"210 310 LINE",
"236 408 LINE",
"220 504 LINE",
"185 504 LINE",
"141 96 LINE",
"119 0 LINE",
"166 0 LINE"
);
},
{
closed = 1;
nodes = (
"96 0 LINE",
"160 0 LINE",
"160 126 LINE",
"96 126 LINE"
);
},
{
closed = 1;
nodes = (
"259 0 LINE",
"309 0 LINE",
"309 126 LINE",
"259 126 LINE"
);
}
);
width = 415;
},
{
anchors = (
{
name = top;
position = "{207, 504}";
}
);
layerId = m003;
paths = (
{
closed = 1;
nodes = (
"94 0 LINE",
"139 0 LINE",
"139 80 LINE",
"88 504 LINE",
"20 504 LINE"
);
},
{
closed = 1;
nodes = (
"227 504 LINE",
"176 504 LINE",
"115 80 LINE",
"115 0 LINE",
"150 0 LINE"
);
},
{
closed = 1;
nodes = (
"94 134 LINE",
"158 134 LINE",
"158 187 LINE",
"94 187 LINE"
);
},
{
closed = 1;
nodes = (
"262 0 LINE",
"306 0 LINE",
"306 80 LINE",
"238 504 LINE",
"181 504 LINE"
);
},
{
closed = 1;
nodes = (
"394 504 LINE",
"325 504 LINE",
"282 80 LINE",
"282 0 LINE",
"318 0 LINE"
);
},
{
closed = 1;
nodes = (
"254 134 LINE",
"318 134 LINE",
"318 187 LINE",
"254 187 LINE"
);
},
{
closed = 1;
nodes = (
"173 344 LINE",
"237 344 LINE",
"237 402 LINE",
"173 402 LINE"
);
}
);
width = 414;
},
{
anchors = (
{
name = top;
position = "{192, 504}";
}
);
associatedMasterId = m003;
layerId = "FC34B3A3-B5F4-4C9D-93A6-6764C2E089EF";
name = "Oct 29 20, 22:45";
paths = (
{
closed = 1;
nodes = (
"96 0 LINE",
"151 0 LINE",
"76 504 LINE",
"10 504 LINE"
);
},
{
closed = 1;
nodes = (
"245 0 LINE",
"312 0 LINE",
"282 97 LINE",
"226 504 LINE",
"159 504 LINE"
);
},
{
closed = 1;
nodes = (
"402 504 LINE",
"329 504 LINE",
"278 97 LINE",
"269 0 LINE",
"316 0 LINE"
);
},
{
closed = 1;
nodes = (
"210 310 LINE",
"236 408 LINE",
"220 504 LINE",
"185 504 LINE",
"141 96 LINE",
"119 0 LINE",
"166 0 LINE"
);
},
{
closed = 1;
nodes = (
"96 0 LINE",
"160 0 LINE",
"160 126 LINE",
"96 126 LINE"
);
},
{
closed = 1;
nodes = (
"259 0 LINE",
"309 0 LINE",
"309 126 LINE",
"259 126 LINE"
);
}
);
width = 415;
}
);
leftKerningGroup = w;
rightKerningGroup = w;
unicode = 0077;
},
{
color = 1;
glyphname = x;
layers = (
{
anchors = (
{
name = top;
position = "{128, 504}";
}
);
background = {
anchors = (
{
name = top;
position = "{128, 504}";
}
);
paths = (
{
closed = 1;
nodes = (
"256 0 LINE",
"150 290 LINE",
"79 504 LINE",
"10 504 LINE",
"99 261 LINE",
"187 0 LINE"
);
},
{
closed = 1;
nodes = (
"0 0 LINE",
"69 0 LINE",
"133 230 LINE",
"100 320 LINE"
);
},
{
closed = 1;
nodes = (
"246 504 LINE",
"177 504 LINE",
"125 320 LINE",
"158 230 LINE"
);
}
);
};
layerId = "2FCEC9C4-D6B8-40A6-8432-FB04296B16B9";
paths = (
{
closed = 1;
nodes = (
"187 0 LINE",
"256 0 LINE",
"150 290 LINE",
"79 504 LINE",
"10 504 LINE",
"99 261 LINE"
);
},
{
closed = 1;
nodes = (
"100 320 LINE",
"0 0 LINE",
"69 0 LINE",
"133 230 LINE"
);
},
{
closed = 1;
nodes = (
"158 230 LINE",
"246 504 LINE",
"177 504 LINE",
"125 320 LINE"
);
}
);
width = 256;
},
{
anchors = (
{
name = top;
position = "{128, 504}";
}
);
layerId = m002;
paths = (
{
closed = 1;
nodes = (
"187 0 LINE",
"256 0 LINE",
"150 290 LINE",
"79 504 LINE",
"10 504 LINE",
"99 261 LINE"
);
},
{
closed = 1;
nodes = (
"100 320 LINE",
"0 0 LINE",
"69 0 LINE",
"133 230 LINE"
);
},
{
closed = 1;
nodes = (
"158 230 LINE",
"246 504 LINE",
"177 504 LINE",
"125 320 LINE"
);
}
);
width = 256;
},
{
anchors = (
{
name = top;
position = "{128, 504}";
}
);
layerId = m003;
paths = (
{
closed = 1;
nodes = (
"187 0 LINE",
"256 0 LINE",
"150 290 LINE",
"79 504 LINE",
"10 504 LINE",
"99 261 LINE"
);
},
{
closed = 1;
nodes = (
"100 320 LINE",
"0 0 LINE",
"69 0 LINE",
"133 230 LINE"
);
},
{
closed = 1;
nodes = (
"158 230 LINE",
"246 504 LINE",
"177 504 LINE",
"125 320 LINE"
);
}
);
width = 256;
}
);
unicode = 0078;
},
{
color = 7;
glyphname = y;
layers = (
{
anchors = (
{
name = top;
position = "{128, 504}";
}
);
background = {
anchors = (
{
name = top;
position = "{128, 504}";
}
);
paths = (
{
closed = 1;
nodes = (
"80 112 LINE",
"80 504 LINE",
"48 504 LINE",
"48 112 LINE"
);
},
{
closed = 1;
nodes = (
"208 -56 LINE",
"208 504 LINE",
"176 504 LINE",
"176 -56 LINE"
);
},
{
closed = 1;
nodes = (
"48 28 OFFCURVE",
"78 0 OFFCURVE",
"123 0 CURVE SMOOTH",
"150 0 OFFCURVE",
"167 11 OFFCURVE",
"178 24 CURVE",
"180 24 LINE",
"184 0 LINE",
"208 0 LINE",
"208 112 LINE",
"176 112 LINE",
"176 76 LINE SMOOTH",
"176 40 OFFCURVE",
"155 28 OFFCURVE",
"128 28 CURVE SMOOTH",
"101 28 OFFCURVE",
"80 40 OFFCURVE",
"80 76 CURVE SMOOTH",
"80 112 LINE",
"48 112 LINE",
"48 74 LINE SMOOTH"
);
},
{
closed = 1;
nodes = (
"48 -98 LINE SMOOTH",
"48 -144 OFFCURVE",
"77 -172 OFFCURVE",
"128 -172 CURVE",
"128 -144 LINE",
"101 -144 OFFCURVE",
"80 -132 OFFCURVE",
"80 -96 CURVE SMOOTH",
"80 -56 LINE",
"48 -56 LINE"
);
},
{
closed = 1;
nodes = (
"176 -56 LINE",
"176 -96 LINE SMOOTH",
"176 -132 OFFCURVE",
"155 -144 OFFCURVE",
"128 -144 CURVE",
"128 -172 LINE",
"179 -172 OFFCURVE",
"208 -144 OFFCURVE",
"208 -98 CURVE SMOOTH",
"208 -56 LINE"
);
}
);
};
components = (
{
name = _part.ansatz;
transform = "{-1, 0, 0, -1, 208, 504}";
},
{
name = _part.bogen;
transform = "{1, 0, 0, -1, 32, 336}";
},
{
name = _part.bogen;
transform = "{-1, 0, 0, -1, 224, 336}";
}
);
layerId = "2FCEC9C4-D6B8-40A6-8432-FB04296B16B9";
paths = (
{
closed = 1;
nodes = (
"48 112 LINE",
"80 112 LINE",
"80 504 LINE",
"48 504 LINE"
);
},
{
closed = 1;
nodes = (
"176 -56 LINE",
"208 -56 LINE",
"208 504 LINE",
"176 504 LINE"
);
}
);
width = 256;
},
{
anchors = (
{
name = top;
position = "{128, 504}";
}
);
components = (
{
name = _part.ansatz;
transform = "{-1, 0, 0, -1, 224, 504}";
},
{
name = _part.bogen;
transform = "{1, 0, 0, -1, 32, 336}";
},
{
name = _part.bogen;
transform = "{-1, 0, 0, -1, 224, 336}";
}
);
layerId = m002;
paths = (
{
closed = 1;
nodes = (
"32 112 LINE",
"96 112 LINE",
"96 504 LINE",
"32 504 LINE"
);
},
{
closed = 1;
nodes = (
"160 -56 LINE",
"224 -56 LINE",
"224 504 LINE",
"160 504 LINE"
);
}
);
width = 256;
},
{
anchors = (
{
name = top;
position = "{128, 504}";
}
);
components = (
{
name = _part.ansatz;
transform = "{-1, 0, 0, -1, 224, 504}";
},
{
name = _part.bogen;
transform = "{1, 0, 0, -1, 32, 336}";
},
{
name = _part.bogen;
transform = "{-1, 0, 0, -1, 224, 336}";
}
);
layerId = m003;
paths = (
{
closed = 1;
nodes = (
"32 112 LINE",
"96 112 LINE",
"96 504 LINE",
"32 504 LINE"
);
},
{
closed = 1;
nodes = (
"160 -56 LINE",
"224 -56 LINE",
"224 504 LINE",
"160 504 LINE"
);
}
);
width = 256;
}
);
leftKerningGroup = u;
leftMetricsKey = u;
rightKerningGroup = g;
rightMetricsKey = jdotless;
unicode = 0079;
userData = {
com.typemytype.robofont.mark = (
0.6,
0.609,
1,
1
);
};
},
{
glyphname = z;
layers = (
{
anchors = (
{
name = top;
position = "{128, 504}";
}
);
background = {
anchors = (
{
name = top;
position = "{128, 504}";
}
);
paths = (
{
closed = 1;
nodes = (
"160 446 LINE",
"208 459 LINE",
"208 504 LINE",
"40 504 LINE",
"40 446 LINE"
);
},
{
closed = 1;
nodes = (
"210 0 LINE",
"210 58 LINE",
"96 58 LINE",
"32 45 LINE",
"32 0 LINE"
);
},
{
closed = 1;
nodes = (
"101 56 LINE",
"208 459 LINE",
"139 448 LINE",
"32 45 LINE"
);
}
);
};
layerId = "2FCEC9C4-D6B8-40A6-8432-FB04296B16B9";
paths = (
{
closed = 1;
nodes = (
"40 446 LINE",
"160 446 LINE",
"208 459 LINE",
"208 504 LINE",
"40 504 LINE"
);
},
{
closed = 1;
nodes = (
"32 0 LINE",
"210 0 LINE",
"210 58 LINE",
"96 58 LINE",
"32 45 LINE"
);
},
{
closed = 1;
nodes = (
"32 45 LINE",
"101 56 LINE",
"208 459 LINE",
"139 448 LINE"
);
}
);
width = 240;
},
{
anchors = (
{
name = top;
position = "{128, 504}";
}
);
layerId = m002;
paths = (
{
closed = 1;
nodes = (
"40 446 LINE",
"160 446 LINE",
"208 459 LINE",
"208 504 LINE",
"40 504 LINE"
);
},
{
closed = 1;
nodes = (
"32 0 LINE",
"210 0 LINE",
"210 58 LINE",
"96 58 LINE",
"32 45 LINE"
);
},
{
closed = 1;
nodes = (
"32 45 LINE",
"101 56 LINE",
"208 459 LINE",
"139 448 LINE"
);
}
);
width = 240;
},
{
anchors = (
{
name = top;
position = "{128, 504}";
}
);
layerId = m003;
paths = (
{
closed = 1;
nodes = (
"40 446 LINE",
"160 446 LINE",
"208 459 LINE",
"208 504 LINE",
"40 504 LINE"
);
},
{
closed = 1;
nodes = (
"32 0 LINE",
"210 0 LINE",
"210 58 LINE",
"96 58 LINE",
"32 45 LINE"
);
},
{
closed = 1;
nodes = (
"32 45 LINE",
"101 56 LINE",
"208 459 LINE",
"139 448 LINE"
);
}
);
width = 240;
}
);
leftKerningGroup = z;
rightKerningGroup = z;
unicode = 007A;
},
{
color = 7;
glyphname = w.ss01;
layers = (
{
anchors = (
{
name = top;
position = "{176, 504}";
}
);
components = (
{
name = _part.bogen;
transform = "{-1, 0, 0, -1, 336, 504}";
},
{
name = _part.bogen;
transform = "{1, 0, 0, -1, 144, 504}";
},
{
name = _part.bogen;
transform = "{1, 0, 0, -1, 16, 504}";
},
{
name = _part.bogen;
transform = "{-1, 0, 0, -1, 208, 504}";
}
);
layerId = "2FCEC9C4-D6B8-40A6-8432-FB04296B16B9";
paths = (
{
closed = 1;
nodes = (
"32 112 LINE",
"64 112 LINE",
"64 504 LINE",
"32 504 LINE"
);
},
{
closed = 1;
nodes = (
"160 112 LINE",
"192 112 LINE",
"192 504 LINE",
"160 504 LINE"
);
},
{
closed = 1;
nodes = (
"288 112 LINE",
"320 112 LINE",
"320 504 LINE",
"288 504 LINE"
);
}
);
width = 352;
},
{
anchors = (
{
name = top;
position = "{288, 504}";
}
);
components = (
{
name = _part.bogen;
transform = "{-1, 0, 0, -1, 480, 500}";
},
{
name = _part.bogen;
transform = "{1, 0, 0, -1, 288, 500}";
},
{
name = _part.bogen;
transform = "{1, 0, 0, -1, 96, 500}";
},
{
name = _part.bogen;
transform = "{-1, 0, 0, -1, 288, 500}";
}
);
layerId = m002;
paths = (
{
closed = 1;
nodes = (
"32 164 LINE",
"160 164 LINE",
"160 504 LINE",
"32 504 LINE"
);
},
{
closed = 1;
nodes = (
"224 164 LINE",
"352 164 LINE",
"352 504 LINE",
"224 504 LINE"
);
},
{
closed = 1;
nodes = (
"416 164 LINE",
"544 164 LINE",
"544 504 LINE",
"416 504 LINE"
);
}
);
width = 576;
},
{
anchors = (
{
name = top;
position = "{192, 504}";
}
);
components = (
{
name = _part.bogen;
transform = "{-1, 0, 0, -1, 352, 504}";
},
{
name = _part.bogen;
transform = "{1, 0, 0, -1, 160, 504}";
},
{
name = _part.bogen;
transform = "{1, 0, 0, -1, 32, 504}";
},
{
name = _part.bogen;
transform = "{-1, 0, 0, -1, 224, 504}";
}
);
layerId = m003;
paths = (
{
closed = 1;
nodes = (
"32 112 LINE",
"96 112 LINE",
"96 504 LINE",
"32 504 LINE"
);
},
{
closed = 1;
nodes = (
"160 112 LINE",
"224 112 LINE",
"224 504 LINE",
"160 504 LINE"
);
},
{
closed = 1;
nodes = (
"288 112 LINE",
"352 112 LINE",
"352 504 LINE",
"288 504 LINE"
);
}
);
width = 384;
}
);
leftKerningGroup = u;
leftMetricsKey = o;
rightKerningGroup = w01;
rightMetricsKey = o;
userData = {
com.typemytype.robofont.mark = (
0.967,
0.6,
1,
1
);
};
},
{
color = 7;
glyphname = fi;
layers = (
{
background = {
paths = (
{
closed = 1;
nodes = (
"96 0 LINE",
"96 560 LINE",
"32 560 LINE",
"32 0 LINE"
);
},
{
closed = 1;
nodes = (
"160 448 LINE",
"160 504 LINE",
"0 504 LINE",
"0 448 LINE"
);
},
{
closed = 1;
nodes = (
"224 0 LINE",
"224 504 LINE",
"160 504 LINE",
"160 0 LINE"
);
},
{
closed = 1;
nodes = (
"80 560 LINE",
"80 600 LINE SMOOTH",
"80 636 OFFCURVE",
"101 648 OFFCURVE",
"128 648 CURVE",
"128 676 LINE",
"77 676 OFFCURVE",
"48 648 OFFCURVE",
"48 602 CURVE SMOOTH",
"48 560 LINE"
);
},
{
closed = 1;
nodes = (
"208 602 LINE SMOOTH",
"208 648 OFFCURVE",
"179 676 OFFCURVE",
"128 676 CURVE",
"128 648 LINE",
"155 648 OFFCURVE",
"176 636 OFFCURVE",
"176 600 CURVE SMOOTH",
"176 560 LINE",
"208 560 LINE"
);
}
);
};
components = (
{
name = _part.bogen;
transform = "{1, 0, 0, 1, 32, 168}";
},
{
name = _part.bogen;
transform = "{-1, 0, 0, 1, 224, 168}";
}
);
layerId = "2FCEC9C4-D6B8-40A6-8432-FB04296B16B9";
paths = (
{
closed = 1;
nodes = (
"32 0 LINE",
"96 0 LINE",
"96 560 LINE",
"32 560 LINE"
);
},
{
closed = 1;
nodes = (
"0 448 LINE",
"160 448 LINE",
"160 504 LINE",
"0 504 LINE"
);
},
{
closed = 1;
nodes = (
"160 0 LINE",
"224 0 LINE",
"224 504 LINE",
"160 504 LINE"
);
}
);
width = 256;
},
{
components = (
{
name = _part.bogen;
transform = "{1, 0, 0, 1, 32, 168}";
},
{
name = _part.bogen;
transform = "{-1, 0, 0, 1, 224, 168}";
}
);
layerId = m002;
paths = (
{
closed = 1;
nodes = (
"32 0 LINE",
"96 0 LINE",
"96 560 LINE",
"32 560 LINE"
);
},
{
closed = 1;
nodes = (
"0 448 LINE",
"160 448 LINE",
"160 504 LINE",
"0 504 LINE"
);
},
{
closed = 1;
nodes = (
"160 0 LINE",
"224 0 LINE",
"224 504 LINE",
"160 504 LINE"
);
}
);
width = 256;
},
{
components = (
{
name = _part.bogen;
transform = "{1, 0, 0, 1, 32, 168}";
},
{
name = _part.bogen;
transform = "{-1, 0, 0, 1, 224, 168}";
}
);
layerId = m003;
paths = (
{
closed = 1;
nodes = (
"32 0 LINE",
"96 0 LINE",
"96 560 LINE",
"32 560 LINE"
);
},
{
closed = 1;
nodes = (
"0 448 LINE",
"160 448 LINE",
"160 504 LINE",
"0 504 LINE"
);
},
{
closed = 1;
nodes = (
"160 0 LINE",
"224 0 LINE",
"224 504 LINE",
"160 504 LINE"
);
}
);
width = 256;
}
);
leftKerningGroup = f;
leftMetricsKey = f;
unicode = FB01;
userData = {
com.typemytype.robofont.mark = (
0.6,
0.609,
1,
1
);
};
},
{
color = 7;
glyphname = fl;
layers = (
{
background = {
paths = (
{
closed = 1;
nodes = (
"96 0 LINE",
"96 560 LINE",
"32 560 LINE",
"32 0 LINE"
);
},
{
closed = 1;
nodes = (
"131 448 LINE",
"131 504 LINE",
"0 504 LINE",
"0 448 LINE"
);
},
{
closed = 1;
nodes = (
"224 0 LINE",
"224 560 LINE",
"160 560 LINE",
"160 0 LINE"
);
},
{
closed = 1;
nodes = (
"80 560 LINE",
"80 600 LINE SMOOTH",
"80 636 OFFCURVE",
"101 648 OFFCURVE",
"128 648 CURVE",
"128 676 LINE",
"77 676 OFFCURVE",
"48 648 OFFCURVE",
"48 602 CURVE SMOOTH",
"48 560 LINE"
);
},
{
closed = 1;
nodes = (
"208 602 LINE SMOOTH",
"208 648 OFFCURVE",
"179 676 OFFCURVE",
"128 676 CURVE",
"128 648 LINE",
"155 648 OFFCURVE",
"176 636 OFFCURVE",
"176 600 CURVE SMOOTH",
"176 560 LINE",
"208 560 LINE"
);
}
);
};
components = (
{
name = _part.bogen;
transform = "{1, 0, 0, 1, 32, 168}";
},
{
name = _part.bogen;
transform = "{-1, 0, 0, 1, 224, 168}";
}
);
layerId = "2FCEC9C4-D6B8-40A6-8432-FB04296B16B9";
paths = (
{
closed = 1;
nodes = (
"32 0 LINE",
"96 0 LINE",
"96 560 LINE",
"32 560 LINE"
);
},
{
closed = 1;
nodes = (
"0 448 LINE",
"131 448 LINE",
"131 504 LINE",
"0 504 LINE"
);
},
{
closed = 1;
nodes = (
"160 0 LINE",
"224 0 LINE",
"224 560 LINE",
"160 560 LINE"
);
}
);
width = 256;
},
{
components = (
{
name = _part.bogen;
transform = "{1, 0, 0, 1, 32, 168}";
},
{
name = _part.bogen;
transform = "{-1, 0, 0, 1, 224, 168}";
}
);
layerId = m002;
paths = (
{
closed = 1;
nodes = (
"32 0 LINE",
"96 0 LINE",
"96 560 LINE",
"32 560 LINE"
);
},
{
closed = 1;
nodes = (
"0 448 LINE",
"131 448 LINE",
"131 504 LINE",
"0 504 LINE"
);
},
{
closed = 1;
nodes = (
"160 0 LINE",
"224 0 LINE",
"224 560 LINE",
"160 560 LINE"
);
}
);
width = 256;
},
{
components = (
{
name = _part.bogen;
transform = "{1, 0, 0, 1, 32, 168}";
},
{
name = _part.bogen;
transform = "{-1, 0, 0, 1, 224, 168}";
}
);
layerId = m003;
paths = (
{
closed = 1;
nodes = (
"32 0 LINE",
"96 0 LINE",
"96 560 LINE",
"32 560 LINE"
);
},
{
closed = 1;
nodes = (
"0 448 LINE",
"131 448 LINE",
"131 504 LINE",
"0 504 LINE"
);
},
{
closed = 1;
nodes = (
"160 0 LINE",
"224 0 LINE",
"224 560 LINE",
"160 560 LINE"
);
}
);
width = 256;
}
);
leftKerningGroup = f;
leftMetricsKey = f;
unicode = FB02;
userData = {
com.typemytype.robofont.mark = (
0.6,
0.609,
1,
1
);
};
},
{
color = 7;
glyphname = longs_i.liga;
layers = (
{
components = (
{
name = _part.bogen;
transform = "{1, 0, 0, 1, 32, 168}";
},
{
name = _part.bogen;
transform = "{-1, 0, 0, 1, 224, 168}";
}
);
layerId = "2FCEC9C4-D6B8-40A6-8432-FB04296B16B9";
paths = (
{
closed = 1;
nodes = (
"32 0 LINE",
"96 0 LINE",
"96 560 LINE",
"32 560 LINE"
);
},
{
closed = 1;
nodes = (
"0 448 LINE",
"32 448 LINE",
"32 504 LINE",
"0 504 LINE"
);
},
{
closed = 1;
nodes = (
"160 0 LINE",
"224 0 LINE",
"224 504 LINE",
"160 504 LINE"
);
}
);
width = 256;
},
{
components = (
{
name = _part.bogen;
transform = "{1, 0, 0, 1, 32, 168}";
},
{
name = _part.bogen;
transform = "{-1, 0, 0, 1, 224, 168}";
}
);
layerId = m002;
paths = (
{
closed = 1;
nodes = (
"32 0 LINE",
"96 0 LINE",
"96 560 LINE",
"32 560 LINE"
);
},
{
closed = 1;
nodes = (
"0 448 LINE",
"32 448 LINE",
"32 504 LINE",
"0 504 LINE"
);
},
{
closed = 1;
nodes = (
"160 0 LINE",
"224 0 LINE",
"224 504 LINE",
"160 504 LINE"
);
}
);
width = 256;
},
{
components = (
{
name = _part.bogen;
transform = "{1, 0, 0, 1, 32, 168}";
},
{
name = _part.bogen;
transform = "{-1, 0, 0, 1, 224, 168}";
}
);
layerId = m003;
paths = (
{
closed = 1;
nodes = (
"32 0 LINE",
"96 0 LINE",
"96 560 LINE",
"32 560 LINE"
);
},
{
closed = 1;
nodes = (
"0 448 LINE",
"32 448 LINE",
"32 504 LINE",
"0 504 LINE"
);
},
{
closed = 1;
nodes = (
"160 0 LINE",
"224 0 LINE",
"224 504 LINE",
"160 504 LINE"
);
}
);
width = 256;
}
);
leftKerningGroup = f;
leftMetricsKey = f;
userData = {
com.typemytype.robofont.mark = (
0.6,
0.609,
1,
1
);
};
},
{
color = 7;
glyphname = longs_t.liga;
layers = (
{
components = (
{
name = _part.bogen;
transform = "{1, 0, 0, 1, 32, 168}";
},
{
name = _part.bogen;
transform = "{-1, 0, 0, 1, 224, 168}";
},
{
name = _part.bogen;
transform = "{1, 0, 0, -1, 160, 508}";
}
);
layerId = "2FCEC9C4-D6B8-40A6-8432-FB04296B16B9";
paths = (
{
closed = 1;
nodes = (
"32 0 LINE",
"96 0 LINE",
"96 560 LINE",
"32 560 LINE"
);
},
{
closed = 1;
nodes = (
"0 448 LINE",
"32 448 LINE",
"32 504 LINE",
"0 504 LINE"
);
},
{
closed = 1;
nodes = (
"160 116 LINE",
"224 116 LINE",
"224 560 LINE",
"160 560 LINE"
);
},
{
closed = 1;
nodes = (
"256 0 LINE",
"288 0 LINE",
"288 56 LINE",
"256 56 LINE"
);
},
{
closed = 1;
nodes = (
"224 448 LINE",
"288 448 LINE",
"288 504 LINE",
"224 504 LINE"
);
}
);
width = 288;
},
{
components = (
{
name = _part.bogen;
transform = "{1, 0, 0, 1, 32, 168}";
},
{
name = _part.bogen;
transform = "{-1, 0, 0, 1, 224, 168}";
},
{
name = _part.bogen;
transform = "{1, 0, 0, -1, 160, 508}";
}
);
layerId = m002;
paths = (
{
closed = 1;
nodes = (
"32 0 LINE",
"96 0 LINE",
"96 560 LINE",
"32 560 LINE"
);
},
{
closed = 1;
nodes = (
"0 448 LINE",
"32 448 LINE",
"32 504 LINE",
"0 504 LINE"
);
},
{
closed = 1;
nodes = (
"160 116 LINE",
"224 116 LINE",
"224 560 LINE",
"160 560 LINE"
);
},
{
closed = 1;
nodes = (
"256 0 LINE",
"288 0 LINE",
"288 56 LINE",
"256 56 LINE"
);
},
{
closed = 1;
nodes = (
"224 448 LINE",
"288 448 LINE",
"288 504 LINE",
"224 504 LINE"
);
}
);
width = 288;
},
{
components = (
{
name = _part.bogen;
transform = "{1, 0, 0, 1, 32, 168}";
},
{
name = _part.bogen;
transform = "{-1, 0, 0, 1, 224, 168}";
},
{
name = _part.bogen;
transform = "{1, 0, 0, -1, 160, 508}";
}
);
layerId = m003;
paths = (
{
closed = 1;
nodes = (
"32 0 LINE",
"96 0 LINE",
"96 560 LINE",
"32 560 LINE"
);
},
{
closed = 1;
nodes = (
"0 448 LINE",
"32 448 LINE",
"32 504 LINE",
"0 504 LINE"
);
},
{
closed = 1;
nodes = (
"160 116 LINE",
"224 116 LINE",
"224 560 LINE",
"160 560 LINE"
);
},
{
closed = 1;
nodes = (
"256 0 LINE",
"288 0 LINE",
"288 56 LINE",
"256 56 LINE"
);
},
{
closed = 1;
nodes = (
"224 448 LINE",
"288 448 LINE",
"288 504 LINE",
"224 504 LINE"
);
}
);
width = 288;
}
);
leftKerningGroup = f;
leftMetricsKey = f;
rightMetricsKey = t;
userData = {
com.typemytype.robofont.mark = (
0.6,
0.609,
1,
1
);
};
},
{
color = 7;
glyphname = zero;
layers = (
{
background = {
paths = (
{
closed = 1;
nodes = (
"96 112 LINE",
"96 560 LINE",
"32 560 LINE",
"32 112 LINE"
);
},
{
closed = 1;
nodes = (
"224 112 LINE",
"224 560 LINE",
"160 560 LINE",
"160 112 LINE"
);
},
{
closed = 1;
nodes = (
"208 602 LINE SMOOTH",
"208 648 OFFCURVE",
"179 676 OFFCURVE",
"128 676 CURVE",
"128 648 LINE",
"155 648 OFFCURVE",
"176 636 OFFCURVE",
"176 600 CURVE SMOOTH",
"176 560 LINE",
"208 560 LINE"
);
},
{
closed = 1;
nodes = (
"80 560 LINE",
"80 600 LINE SMOOTH",
"80 636 OFFCURVE",
"101 648 OFFCURVE",
"128 648 CURVE",
"128 676 LINE",
"77 676 OFFCURVE",
"48 648 OFFCURVE",
"48 602 CURVE SMOOTH",
"48 560 LINE"
);
},
{
closed = 1;
nodes = (
"48 70 LINE SMOOTH",
"48 24 OFFCURVE",
"77 -4 OFFCURVE",
"128 -4 CURVE",
"128 24 LINE",
"101 24 OFFCURVE",
"80 36 OFFCURVE",
"80 72 CURVE SMOOTH",
"80 112 LINE",
"48 112 LINE"
);
},
{
closed = 1;
nodes = (
"176 112 LINE",
"176 72 LINE SMOOTH",
"176 36 OFFCURVE",
"155 24 OFFCURVE",
"128 24 CURVE",
"128 -4 LINE",
"179 -4 OFFCURVE",
"208 24 OFFCURVE",
"208 70 CURVE SMOOTH",
"208 112 LINE"
);
}
);
};
components = (
{
name = _part.bogen;
transform = "{-1, 0, 0, 1, 222, 172}";
},
{
name = _part.bogen;
transform = "{1, 0, 0, 1, 30, 172}";
},
{
name = _part.bogen;
transform = "{1, 0, 0, -1, 30, 500}";
},
{
name = _part.bogen;
transform = "{-1, 0, 0, -1, 222, 500}";
}
);
layerId = "2FCEC9C4-D6B8-40A6-8432-FB04296B16B9";
paths = (
{
closed = 1;
nodes = (
"222 108 LINE",
"222 564 LINE",
"158 564 LINE",
"158 108 LINE"
);
},
{
closed = 1;
nodes = (
"94 108 LINE",
"94 564 LINE",
"30 564 LINE",
"30 108 LINE"
);
}
);
width = 252;
},
{
components = (
{
name = _part.bogen;
transform = "{-1, 0, 0, 1, 222, 172}";
},
{
name = _part.bogen;
transform = "{1, 0, 0, 1, 30, 172}";
},
{
name = _part.bogen;
transform = "{1, 0, 0, -1, 30, 500}";
},
{
name = _part.bogen;
transform = "{-1, 0, 0, -1, 222, 500}";
}
);
layerId = m002;
paths = (
{
closed = 1;
nodes = (
"222 108 LINE",
"222 564 LINE",
"158 564 LINE",
"158 108 LINE"
);
},
{
closed = 1;
nodes = (
"94 108 LINE",
"94 564 LINE",
"30 564 LINE",
"30 108 LINE"
);
}
);
width = 252;
},
{
components = (
{
name = _part.bogen;
transform = "{-1, 0, 0, 1, 222, 172}";
},
{
name = _part.bogen;
transform = "{1, 0, 0, 1, 30, 172}";
},
{
name = _part.bogen;
transform = "{1, 0, 0, -1, 30, 500}";
},
{
name = _part.bogen;
transform = "{-1, 0, 0, -1, 222, 500}";
}
);
layerId = m003;
paths = (
{
closed = 1;
nodes = (
"222 108 LINE",
"222 564 LINE",
"158 564 LINE",
"158 108 LINE"
);
},
{
closed = 1;
nodes = (
"94 108 LINE",
"94 564 LINE",
"30 564 LINE",
"30 108 LINE"
);
}
);
width = 252;
}
);
leftMetricsKey = O;
rightMetricsKey = O;
unicode = 0030;
userData = {
com.typemytype.robofont.mark = (
0.6,
0.609,
1,
1
);
};
},
{
glyphname = one;
layers = (
{
background = {
paths = (
{
closed = 1;
nodes = (
"160 56 LINE",
"160 672 LINE",
"121 672 LINE",
"96 616 LINE",
"96 56 LINE"
);
},
{
closed = 1;
nodes = (
"224 0 LINE",
"224 58 LINE",
"32 58 LINE",
"32 0 LINE"
);
},
{
closed = 1;
nodes = (
"96 568 LINE",
"121 672 LINE",
"101 634 OFFCURVE",
"75 616 OFFCURVE",
"32 616 CURVE",
"32 568 LINE"
);
}
);
};
layerId = "2FCEC9C4-D6B8-40A6-8432-FB04296B16B9";
paths = (
{
closed = 1;
nodes = (
"80 28 LINE",
"144 28 LINE",
"144 672 LINE",
"105 672 LINE",
"80 616 LINE"
);
},
{
closed = 1;
nodes = (
"16 0 LINE",
"208 0 LINE",
"208 48 LINE",
"16 48 LINE"
);
},
{
closed = 1;
nodes = (
"16 568 LINE",
"80 568 LINE",
"105 672 LINE",
"85 634 OFFCURVE",
"59 616 OFFCURVE",
"16 616 CURVE"
);
}
);
width = 216;
},
{
layerId = m002;
paths = (
{
closed = 1;
nodes = (
"80 28 LINE",
"144 28 LINE",
"144 672 LINE",
"105 672 LINE",
"80 616 LINE"
);
},
{
closed = 1;
nodes = (
"16 0 LINE",
"208 0 LINE",
"208 48 LINE",
"16 48 LINE"
);
},
{
closed = 1;
nodes = (
"16 568 LINE",
"80 568 LINE",
"105 672 LINE",
"85 634 OFFCURVE",
"59 616 OFFCURVE",
"16 616 CURVE"
);
}
);
width = 216;
},
{
layerId = m003;
paths = (
{
closed = 1;
nodes = (
"80 28 LINE",
"144 28 LINE",
"144 672 LINE",
"105 672 LINE",
"80 616 LINE"
);
},
{
closed = 1;
nodes = (
"16 0 LINE",
"208 0 LINE",
"208 48 LINE",
"16 48 LINE"
);
},
{
closed = 1;
nodes = (
"16 568 LINE",
"80 568 LINE",
"105 672 LINE",
"85 634 OFFCURVE",
"59 616 OFFCURVE",
"16 616 CURVE"
);
}
);
width = 216;
}
);
unicode = 0031;
},
{
color = 7;
glyphname = two;
layers = (
{
background = {
paths = (
{
closed = 1;
nodes = (
"96 504 LINE",
"96 560 LINE",
"32 560 LINE",
"32 504 LINE"
);
},
{
closed = 1;
nodes = (
"224 0 LINE",
"224 58 LINE",
"85 58 LINE",
"32 48 LINE",
"32 0 LINE"
);
},
{
closed = 1;
nodes = (
"98 56 LINE",
"206 392 LINE SMOOTH",
"218 428 OFFCURVE",
"224 459 OFFCURVE",
"224 504 CURVE SMOOTH",
"224 560 LINE",
"160 560 LINE",
"160 504 LINE SMOOTH",
"160 458 OFFCURVE",
"155 438 OFFCURVE",
"145 406 CURVE SMOOTH",
"32 48 LINE"
);
},
{
closed = 1;
nodes = (
"208 602 LINE SMOOTH",
"208 648 OFFCURVE",
"179 676 OFFCURVE",
"128 676 CURVE",
"128 648 LINE",
"155 648 OFFCURVE",
"176 636 OFFCURVE",
"176 600 CURVE SMOOTH",
"176 560 LINE",
"208 560 LINE"
);
},
{
closed = 1;
nodes = (
"80 560 LINE",
"80 600 LINE SMOOTH",
"80 636 OFFCURVE",
"101 648 OFFCURVE",
"128 648 CURVE",
"128 676 LINE",
"77 676 OFFCURVE",
"48 648 OFFCURVE",
"48 602 CURVE SMOOTH",
"48 560 LINE"
);
}
);
};
components = (
{
name = _part.bogen;
transform = "{-1, 0, 0, 1, 224, 172}";
},
{
name = _part.bogen;
transform = "{1, 0, 0, 1, 32, 172}";
}
);
layerId = "2FCEC9C4-D6B8-40A6-8432-FB04296B16B9";
paths = (
{
closed = 1;
nodes = (
"32 504 LINE",
"96 504 LINE",
"96 564 LINE",
"32 564 LINE"
);
},
{
closed = 1;
nodes = (
"32 0 LINE",
"224 0 LINE",
"224 58 LINE",
"85 58 LINE",
"32 48 LINE"
);
},
{
closed = 1;
nodes = (
"32 48 LINE",
"98 56 LINE",
"206 392 LINE SMOOTH",
"218 428 OFFCURVE",
"224 459 OFFCURVE",
"224 504 CURVE SMOOTH",
"224 564 LINE",
"160 564 LINE",
"160 504 LINE SMOOTH",
"160 458 OFFCURVE",
"155 438 OFFCURVE",
"145 406 CURVE SMOOTH"
);
}
);
width = 256;
},
{
components = (
{
name = _part.bogen;
transform = "{-1, 0, 0, 1, 224, 172}";
},
{
name = _part.bogen;
transform = "{1, 0, 0, 1, 32, 172}";
}
);
layerId = m002;
paths = (
{
closed = 1;
nodes = (
"32 504 LINE",
"96 504 LINE",
"96 564 LINE",
"32 564 LINE"
);
},
{
closed = 1;
nodes = (
"32 0 LINE",
"224 0 LINE",
"224 58 LINE",
"85 58 LINE",
"32 48 LINE"
);
},
{
closed = 1;
nodes = (
"32 48 LINE",
"98 56 LINE",
"206 392 LINE SMOOTH",
"218 428 OFFCURVE",
"224 459 OFFCURVE",
"224 504 CURVE SMOOTH",
"224 564 LINE",
"160 564 LINE",
"160 504 LINE SMOOTH",
"160 458 OFFCURVE",
"155 438 OFFCURVE",
"145 406 CURVE SMOOTH"
);
}
);
width = 256;
},
{
components = (
{
name = _part.bogen;
transform = "{-1, 0, 0, 1, 224, 172}";
},
{
name = _part.bogen;
transform = "{1, 0, 0, 1, 32, 172}";
}
);
layerId = m003;
paths = (
{
closed = 1;
nodes = (
"32 504 LINE",
"96 504 LINE",
"96 564 LINE",
"32 564 LINE"
);
},
{
closed = 1;
nodes = (
"32 0 LINE",
"224 0 LINE",
"224 58 LINE",
"85 58 LINE",
"32 48 LINE"
);
},
{
closed = 1;
nodes = (
"32 48 LINE",
"98 56 LINE",
"206 392 LINE SMOOTH",
"218 428 OFFCURVE",
"224 459 OFFCURVE",
"224 504 CURVE SMOOTH",
"224 564 LINE",
"160 564 LINE",
"160 504 LINE SMOOTH",
"160 458 OFFCURVE",
"155 438 OFFCURVE",
"145 406 CURVE SMOOTH"
);
}
);
width = 256;
}
);
unicode = 0032;
userData = {
com.typemytype.robofont.mark = (
0.6,
0.609,
1,
1
);
};
},
{
color = 7;
glyphname = three;
layers = (
{
background = {
paths = (
{
closed = 1;
nodes = (
"224 112 LINE",
"224 259 LINE",
"160 259 LINE",
"160 112 LINE"
);
},
{
closed = 1;
nodes = (
"224 431 LINE",
"224 560 LINE",
"160 560 LINE",
"160 431 LINE"
);
},
{
closed = 1;
nodes = (
"224 648 OFFCURVE",
"189 676 OFFCURVE",
"128 676 CURVE",
"128 620 LINE",
"149 620 OFFCURVE",
"160 613 OFFCURVE",
"160 591 CURVE SMOOTH",
"160 560 LINE",
"224 560 LINE",
"224 595 LINE"
);
},
{
closed = 1;
nodes = (
"96 504 LINE",
"96 591 LINE SMOOTH",
"96 613 OFFCURVE",
"107 620 OFFCURVE",
"128 620 CURVE",
"128 676 LINE",
"67 676 OFFCURVE",
"32 648 OFFCURVE",
"32 595 CURVE SMOOTH",
"32 504 LINE"
);
},
{
closed = 1;
nodes = (
"32 24 OFFCURVE",
"67 -4 OFFCURVE",
"128 -4 CURVE",
"128 52 LINE",
"107 52 OFFCURVE",
"96 59 OFFCURVE",
"96 81 CURVE SMOOTH",
"96 168 LINE",
"32 168 LINE",
"32 77 LINE"
);
},
{
closed = 1;
nodes = (
"160 112 LINE",
"160 81 LINE SMOOTH",
"160 59 OFFCURVE",
"149 52 OFFCURVE",
"128 52 CURVE",
"128 -4 LINE",
"189 -4 OFFCURVE",
"224 24 OFFCURVE",
"224 77 CURVE SMOOTH",
"224 112 LINE"
);
},
{
closed = 1;
nodes = (
"160 431 LINE",
"160 404 LINE SMOOTH",
"160 382 OFFCURVE",
"149 375 OFFCURVE",
"128 375 CURVE",
"128 319 LINE",
"189 319 OFFCURVE",
"224 347 OFFCURVE",
"224 400 CURVE SMOOTH",
"224 431 LINE"
);
},
{
closed = 1;
nodes = (
"224 347 OFFCURVE",
"189 375 OFFCURVE",
"128 375 CURVE",
"128 319 LINE",
"149 319 OFFCURVE",
"160 312 OFFCURVE",
"160 290 CURVE SMOOTH",
"160 259 LINE",
"224 259 LINE",
"224 294 LINE"
);
},
{
closed = 1;
nodes = (
"128 319 LINE",
"128 375 LINE",
"96 375 LINE",
"96 319 LINE"
);
}
);
};
components = (
{
name = _part.bogen;
transform = "{-1, 0, 0, 1, 210, 172}";
},
{
name = _part.bogen;
transform = "{-1, 0, 0, -1, 210, 500}";
},
{
name = _part.bogen;
piece = {
Optical = 34;
};
transform = "{-1, 0, 0, 1, 210, -136}";
},
{
name = _part.bogen;
piece = {
Optical = 34;
};
transform = "{-1, 0, 0, -1, 210, 824}";
},
{
name = _part.bogen;
transform = "{1, 0, 0, -1, 18, 500}";
},
{
name = _part.bogen;
transform = "{1, 0, 0, 1, 18, 172}";
}
);
layerId = "2FCEC9C4-D6B8-40A6-8432-FB04296B16B9";
paths = (
{
closed = 1;
nodes = (
"210 108 LINE",
"210 256 LINE",
"146 256 LINE",
"146 108 LINE"
);
},
{
closed = 1;
nodes = (
"82 108 LINE",
"82 168 LINE",
"18 168 LINE",
"18 108 LINE"
);
},
{
closed = 1;
nodes = (
"169 316 LINE",
"169 372 LINE",
"82 372 LINE",
"82 316 LINE"
);
},
{
closed = 1;
nodes = (
"82 504 LINE",
"82 564 LINE",
"18 564 LINE",
"18 504 LINE"
);
},
{
closed = 1;
nodes = (
"210 432 LINE",
"210 564 LINE",
"146 564 LINE",
"146 432 LINE"
);
}
);
width = 240;
},
{
background = {
paths = (
{
closed = 1;
nodes = (
"146 112 LINE",
"210 112 LINE",
"210 256 LINE",
"146 256 LINE"
);
},
{
closed = 1;
nodes = (
"146 431 LINE",
"210 431 LINE",
"210 560 LINE",
"146 560 LINE"
);
},
{
closed = 1;
nodes = (
"210 597 LINE",
"210 650 OFFCURVE",
"175 678 OFFCURVE",
"114 678 CURVE",
"114 622 LINE",
"135 622 OFFCURVE",
"146 615 OFFCURVE",
"146 593 CURVE SMOOTH",
"146 560 LINE",
"210 560 LINE"
);
},
{
closed = 1;
nodes = (
"18 504 LINE",
"82 504 LINE",
"82 593 LINE SMOOTH",
"82 615 OFFCURVE",
"93 622 OFFCURVE",
"114 622 CURVE",
"114 678 LINE",
"53 678 OFFCURVE",
"18 650 OFFCURVE",
"18 597 CURVE SMOOTH"
);
},
{
closed = 1;
nodes = (
"18 75 LINE",
"18 22 OFFCURVE",
"53 -6 OFFCURVE",
"114 -6 CURVE",
"114 50 LINE",
"93 50 OFFCURVE",
"82 57 OFFCURVE",
"82 79 CURVE SMOOTH",
"82 168 LINE",
"18 168 LINE"
);
},
{
closed = 1;
nodes = (
"210 112 LINE",
"146 112 LINE",
"146 79 LINE SMOOTH",
"146 57 OFFCURVE",
"135 50 OFFCURVE",
"114 50 CURVE",
"114 -6 LINE",
"175 -6 OFFCURVE",
"210 22 OFFCURVE",
"210 75 CURVE SMOOTH"
);
},
{
closed = 1;
nodes = (
"82 316 LINE",
"154 316 LINE",
"154 372 LINE",
"82 372 LINE"
);
},
{
closed = 1;
nodes = (
"210 275 LINE SMOOTH",
"210 317 OFFCURVE",
"197 342 OFFCURVE",
"150 342 CURVE",
"114 316 LINE",
"132 316 OFFCURVE",
"146 306 OFFCURVE",
"146 283 CURVE SMOOTH",
"146 256 LINE",
"210 256 LINE"
);
},
{
closed = 1;
nodes = (
"210 431 LINE",
"146 431 LINE",
"146 407 LINE SMOOTH",
"146 383 OFFCURVE",
"132 372 OFFCURVE",
"114 372 CURVE",
"150 346 LINE",
"197 346 OFFCURVE",
"210 375 OFFCURVE",
"210 406 CURVE SMOOTH"
);
}
);
};
components = (
{
name = _part.bogen;
transform = "{-1, 0, 0, 1, 210, 172}";
},
{
name = _part.bogen;
transform = "{-1, 0, 0, -1, 210, 500}";
},
{
name = _part.bogen;
piece = {
Optical = 34;
};
transform = "{-1, 0, 0, 1, 210, -136}";
},
{
name = _part.bogen;
piece = {
Optical = 34;
};
transform = "{-1, 0, 0, -1, 210, 824}";
},
{
name = _part.bogen;
transform = "{1, 0, 0, -1, 18, 500}";
},
{
name = _part.bogen;
transform = "{1, 0, 0, 1, 18, 172}";
}
);
layerId = m002;
paths = (
{
closed = 1;
nodes = (
"210 108 LINE",
"210 256 LINE",
"146 256 LINE",
"146 108 LINE"
);
},
{
closed = 1;
nodes = (
"82 108 LINE",
"82 168 LINE",
"18 168 LINE",
"18 108 LINE"
);
},
{
closed = 1;
nodes = (
"169 316 LINE",
"169 372 LINE",
"82 372 LINE",
"82 316 LINE"
);
},
{
closed = 1;
nodes = (
"82 504 LINE",
"82 564 LINE",
"18 564 LINE",
"18 504 LINE"
);
},
{
closed = 1;
nodes = (
"210 432 LINE",
"210 564 LINE",
"146 564 LINE",
"146 432 LINE"
);
}
);
width = 240;
},
{
background = {
paths = (
{
closed = 1;
nodes = (
"146 112 LINE",
"210 112 LINE",
"210 256 LINE",
"146 256 LINE"
);
},
{
closed = 1;
nodes = (
"146 431 LINE",
"210 431 LINE",
"210 560 LINE",
"146 560 LINE"
);
},
{
closed = 1;
nodes = (
"210 597 LINE",
"210 650 OFFCURVE",
"175 678 OFFCURVE",
"114 678 CURVE",
"114 622 LINE",
"135 622 OFFCURVE",
"146 615 OFFCURVE",
"146 593 CURVE SMOOTH",
"146 560 LINE",
"210 560 LINE"
);
},
{
closed = 1;
nodes = (
"18 504 LINE",
"82 504 LINE",
"82 593 LINE SMOOTH",
"82 615 OFFCURVE",
"93 622 OFFCURVE",
"114 622 CURVE",
"114 678 LINE",
"53 678 OFFCURVE",
"18 650 OFFCURVE",
"18 597 CURVE SMOOTH"
);
},
{
closed = 1;
nodes = (
"18 75 LINE",
"18 22 OFFCURVE",
"53 -6 OFFCURVE",
"114 -6 CURVE",
"114 50 LINE",
"93 50 OFFCURVE",
"82 57 OFFCURVE",
"82 79 CURVE SMOOTH",
"82 168 LINE",
"18 168 LINE"
);
},
{
closed = 1;
nodes = (
"210 112 LINE",
"146 112 LINE",
"146 79 LINE SMOOTH",
"146 57 OFFCURVE",
"135 50 OFFCURVE",
"114 50 CURVE",
"114 -6 LINE",
"175 -6 OFFCURVE",
"210 22 OFFCURVE",
"210 75 CURVE SMOOTH"
);
},
{
closed = 1;
nodes = (
"82 316 LINE",
"154 316 LINE",
"154 372 LINE",
"82 372 LINE"
);
},
{
closed = 1;
nodes = (
"210 275 LINE SMOOTH",
"210 317 OFFCURVE",
"197 342 OFFCURVE",
"150 342 CURVE",
"114 316 LINE",
"132 316 OFFCURVE",
"146 306 OFFCURVE",
"146 283 CURVE SMOOTH",
"146 256 LINE",
"210 256 LINE"
);
},
{
closed = 1;
nodes = (
"210 431 LINE",
"146 431 LINE",
"146 407 LINE SMOOTH",
"146 383 OFFCURVE",
"132 372 OFFCURVE",
"114 372 CURVE",
"150 346 LINE",
"197 346 OFFCURVE",
"210 375 OFFCURVE",
"210 406 CURVE SMOOTH"
);
}
);
};
components = (
{
name = _part.bogen;
transform = "{-1, 0, 0, 1, 210, 172}";
},
{
name = _part.bogen;
transform = "{-1, 0, 0, -1, 210, 500}";
},
{
name = _part.bogen;
piece = {
Optical = 34;
};
transform = "{-1, 0, 0, 1, 210, -136}";
},
{
name = _part.bogen;
piece = {
Optical = 34;
};
transform = "{-1, 0, 0, -1, 210, 824}";
},
{
name = _part.bogen;
transform = "{1, 0, 0, -1, 18, 500}";
},
{
name = _part.bogen;
transform = "{1, 0, 0, 1, 18, 172}";
}
);
layerId = m003;
paths = (
{
closed = 1;
nodes = (
"210 108 LINE",
"210 256 LINE",
"146 256 LINE",
"146 108 LINE"
);
},
{
closed = 1;
nodes = (
"82 108 LINE",
"82 168 LINE",
"18 168 LINE",
"18 108 LINE"
);
},
{
closed = 1;
nodes = (
"169 316 LINE",
"169 372 LINE",
"82 372 LINE",
"82 316 LINE"
);
},
{
closed = 1;
nodes = (
"82 504 LINE",
"82 564 LINE",
"18 564 LINE",
"18 504 LINE"
);
},
{
closed = 1;
nodes = (
"210 432 LINE",
"210 564 LINE",
"146 564 LINE",
"146 432 LINE"
);
}
);
width = 240;
}
);
rightMetricsKey = O;
unicode = 0033;
},
{
glyphname = four;
layers = (
{
background = {
paths = (
{
closed = 1;
nodes = (
"224 0 LINE",
"224 672 LINE",
"170 672 LINE",
"160 392 LINE",
"160 0 LINE"
);
},
{
closed = 1;
nodes = (
"256 139 LINE",
"256 198 LINE",
"75 198 LINE",
"24 188 LINE",
"24 139 LINE"
);
},
{
closed = 1;
nodes = (
"86 196 LINE",
"189 672 LINE",
"144 672 LINE",
"24 188 LINE"
);
}
);
};
layerId = "2FCEC9C4-D6B8-40A6-8432-FB04296B16B9";
paths = (
{
closed = 1;
nodes = (
"146 0 LINE",
"210 0 LINE",
"210 672 LINE",
"156 672 LINE",
"146 392 LINE"
);
},
{
closed = 1;
nodes = (
"10 139 LINE",
"242 139 LINE",
"242 198 LINE",
"61 198 LINE",
"10 188 LINE"
);
},
{
closed = 1;
nodes = (
"10 188 LINE",
"72 196 LINE",
"175 672 LINE",
"130 672 LINE"
);
}
);
width = 256;
},
{
layerId = m002;
paths = (
{
closed = 1;
nodes = (
"146 0 LINE",
"210 0 LINE",
"210 672 LINE",
"156 672 LINE",
"146 392 LINE"
);
},
{
closed = 1;
nodes = (
"10 139 LINE",
"242 139 LINE",
"242 198 LINE",
"61 198 LINE",
"10 188 LINE"
);
},
{
closed = 1;
nodes = (
"10 188 LINE",
"72 196 LINE",
"175 672 LINE",
"130 672 LINE"
);
}
);
width = 256;
},
{
layerId = m003;
paths = (
{
closed = 1;
nodes = (
"146 0 LINE",
"210 0 LINE",
"210 672 LINE",
"156 672 LINE",
"146 392 LINE"
);
},
{
closed = 1;
nodes = (
"10 139 LINE",
"242 139 LINE",
"242 198 LINE",
"61 198 LINE",
"10 188 LINE"
);
},
{
closed = 1;
nodes = (
"10 188 LINE",
"72 196 LINE",
"175 672 LINE",
"130 672 LINE"
);
}
);
width = 256;
}
);
unicode = 0034;
},
{
color = 7;
glyphname = five;
layers = (
{
background = {
paths = (
{
closed = 1;
nodes = (
"96 333 LINE",
"96 616 LINE",
"32 616 LINE",
"32 333 LINE"
);
},
{
closed = 1;
nodes = (
"224 112 LINE",
"224 273 LINE",
"160 273 LINE",
"160 112 LINE"
);
},
{
closed = 1;
nodes = (
"96 112 LINE",
"96 168 LINE",
"32 168 LINE",
"32 112 LINE"
);
},
{
closed = 1;
nodes = (
"224 616 LINE",
"224 672 LINE",
"32 672 LINE",
"32 616 LINE"
);
},
{
closed = 1;
nodes = (
"128 333 LINE",
"128 389 LINE",
"96 389 LINE",
"96 333 LINE"
);
},
{
closed = 1;
nodes = (
"48 70 LINE SMOOTH",
"48 24 OFFCURVE",
"77 -4 OFFCURVE",
"128 -4 CURVE",
"128 24 LINE",
"101 24 OFFCURVE",
"80 36 OFFCURVE",
"80 72 CURVE SMOOTH",
"80 112 LINE",
"48 112 LINE"
);
},
{
closed = 1;
nodes = (
"176 112 LINE",
"176 72 LINE SMOOTH",
"176 36 OFFCURVE",
"155 24 OFFCURVE",
"128 24 CURVE",
"128 -4 LINE",
"179 -4 OFFCURVE",
"208 24 OFFCURVE",
"208 70 CURVE SMOOTH",
"208 112 LINE"
);
},
{
closed = 1;
nodes = (
"208 315 LINE SMOOTH",
"208 361 OFFCURVE",
"179 389 OFFCURVE",
"128 389 CURVE",
"128 361 LINE",
"155 361 OFFCURVE",
"176 349 OFFCURVE",
"176 313 CURVE SMOOTH",
"176 273 LINE",
"208 273 LINE"
);
}
);
};
components = (
{
name = _part.bogen;
transform = "{1, 0, 0, -1, 32, 500}";
},
{
name = _part.bogen;
transform = "{-1, 0, 0, -1, 224, 500}";
}
);
layerId = "2FCEC9C4-D6B8-40A6-8432-FB04296B16B9";
paths = (
{
closed = 1;
nodes = (
"160 108 LINE",
"224 108 LINE",
"224 288 LINE",
"160 288 LINE"
);
},
{
closed = 1;
nodes = (
"32 108 LINE",
"96 108 LINE",
"96 168 LINE",
"32 168 LINE"
);
},
{
closed = 1;
nodes = (
"32 616 LINE",
"224 616 LINE",
"224 672 LINE",
"32 672 LINE"
);
},
{
closed = 1;
nodes = (
"224 323 LINE SMOOTH",
"224 376 OFFCURVE",
"190 402 OFFCURVE",
"143 402 CURVE SMOOTH",
"116 402 OFFCURVE",
"98 390 OFFCURVE",
"88 375 CURVE",
"85 375 LINE",
"96 364 LINE",
"96 616 LINE",
"32 616 LINE",
"32 316 LINE",
"96 316 LINE",
"96 319 LINE SMOOTH",
"96 341 OFFCURVE",
"107 348 OFFCURVE",
"128 348 CURVE SMOOTH",
"149 348 OFFCURVE",
"160 341 OFFCURVE",
"160 319 CURVE SMOOTH",
"160 288 LINE",
"224 288 LINE"
);
}
);
width = 256;
},
{
associatedMasterId = "2FCEC9C4-D6B8-40A6-8432-FB04296B16B9";
components = (
{
name = _part.bogen;
transform = "{1, 0, 0, -1, 32, 500}";
},
{
name = _part.bogen;
transform = "{-1, 0, 0, -1, 224, 500}";
}
);
layerId = "A8948E0D-D897-4083-9D1A-2F60228360F5";
name = "Apr 11 18, 20:44";
paths = (
{
closed = 1;
nodes = (
"160 108 LINE",
"224 108 LINE",
"224 274 LINE",
"160 274 LINE"
);
},
{
closed = 1;
nodes = (
"32 108 LINE",
"96 108 LINE",
"96 168 LINE",
"32 168 LINE"
);
},
{
closed = 1;
nodes = (
"32 616 LINE",
"224 616 LINE",
"224 672 LINE",
"32 672 LINE"
);
},
{
closed = 1;
nodes = (
"224 309 LINE SMOOTH",
"224 362 OFFCURVE",
"190 388 OFFCURVE",
"143 388 CURVE SMOOTH",
"116 388 OFFCURVE",
"98 376 OFFCURVE",
"88 361 CURVE",
"85 361 LINE",
"96 350 LINE",
"96 616 LINE",
"32 616 LINE",
"32 302 LINE",
"96 302 LINE",
"96 305 LINE SMOOTH",
"96 327 OFFCURVE",
"107 334 OFFCURVE",
"128 334 CURVE SMOOTH",
"149 334 OFFCURVE",
"160 327 OFFCURVE",
"160 305 CURVE SMOOTH",
"160 274 LINE",
"224 274 LINE"
);
}
);
width = 256;
},
{
components = (
{
name = _part.bogen;
transform = "{1, 0, 0, -1, 32, 500}";
},
{
name = _part.bogen;
transform = "{-1, 0, 0, -1, 224, 500}";
}
);
layerId = m002;
paths = (
{
closed = 1;
nodes = (
"160 108 LINE",
"224 108 LINE",
"224 288 LINE",
"160 288 LINE"
);
},
{
closed = 1;
nodes = (
"32 108 LINE",
"96 108 LINE",
"96 168 LINE",
"32 168 LINE"
);
},
{
closed = 1;
nodes = (
"32 616 LINE",
"224 616 LINE",
"224 672 LINE",
"32 672 LINE"
);
},
{
closed = 1;
nodes = (
"224 323 LINE SMOOTH",
"224 376 OFFCURVE",
"190 402 OFFCURVE",
"143 402 CURVE SMOOTH",
"116 402 OFFCURVE",
"98 390 OFFCURVE",
"88 375 CURVE",
"85 375 LINE",
"96 364 LINE",
"96 616 LINE",
"32 616 LINE",
"32 316 LINE",
"96 316 LINE",
"96 319 LINE SMOOTH",
"96 341 OFFCURVE",
"107 348 OFFCURVE",
"128 348 CURVE SMOOTH",
"149 348 OFFCURVE",
"160 341 OFFCURVE",
"160 319 CURVE SMOOTH",
"160 288 LINE",
"224 288 LINE"
);
}
);
width = 256;
},
{
associatedMasterId = m002;
components = (
{
name = _part.bogen;
transform = "{1, 0, 0, -1, 32, 500}";
},
{
name = _part.bogen;
transform = "{-1, 0, 0, -1, 224, 500}";
}
);
layerId = "EBB97EAD-32A3-469C-995B-9D1BFFA800F2";
name = "Apr 11 18, 20:44";
paths = (
{
closed = 1;
nodes = (
"160 108 LINE",
"224 108 LINE",
"224 274 LINE",
"160 274 LINE"
);
},
{
closed = 1;
nodes = (
"32 108 LINE",
"96 108 LINE",
"96 168 LINE",
"32 168 LINE"
);
},
{
closed = 1;
nodes = (
"32 616 LINE",
"224 616 LINE",
"224 672 LINE",
"32 672 LINE"
);
},
{
closed = 1;
nodes = (
"224 309 LINE SMOOTH",
"224 362 OFFCURVE",
"190 388 OFFCURVE",
"143 388 CURVE SMOOTH",
"116 388 OFFCURVE",
"98 376 OFFCURVE",
"88 361 CURVE",
"85 361 LINE",
"96 350 LINE",
"96 616 LINE",
"32 616 LINE",
"32 302 LINE",
"96 302 LINE",
"96 305 LINE SMOOTH",
"96 327 OFFCURVE",
"107 334 OFFCURVE",
"128 334 CURVE SMOOTH",
"149 334 OFFCURVE",
"160 327 OFFCURVE",
"160 305 CURVE SMOOTH",
"160 274 LINE",
"224 274 LINE"
);
}
);
width = 256;
},
{
components = (
{
name = _part.bogen;
transform = "{1, 0, 0, -1, 32, 500}";
},
{
name = _part.bogen;
transform = "{-1, 0, 0, -1, 224, 500}";
}
);
layerId = m003;
paths = (
{
closed = 1;
nodes = (
"160 108 LINE",
"224 108 LINE",
"224 288 LINE",
"160 288 LINE"
);
},
{
closed = 1;
nodes = (
"32 108 LINE",
"96 108 LINE",
"96 168 LINE",
"32 168 LINE"
);
},
{
closed = 1;
nodes = (
"32 616 LINE",
"224 616 LINE",
"224 672 LINE",
"32 672 LINE"
);
},
{
closed = 1;
nodes = (
"224 323 LINE SMOOTH",
"224 376 OFFCURVE",
"190 402 OFFCURVE",
"143 402 CURVE SMOOTH",
"116 402 OFFCURVE",
"98 390 OFFCURVE",
"88 375 CURVE",
"85 375 LINE",
"96 364 LINE",
"96 616 LINE",
"32 616 LINE",
"32 316 LINE",
"96 316 LINE",
"96 319 LINE SMOOTH",
"96 341 OFFCURVE",
"107 348 OFFCURVE",
"128 348 CURVE SMOOTH",
"149 348 OFFCURVE",
"160 341 OFFCURVE",
"160 319 CURVE SMOOTH",
"160 288 LINE",
"224 288 LINE"
);
}
);
width = 256;
},
{
associatedMasterId = m003;
components = (
{
name = _part.bogen;
transform = "{1, 0, 0, -1, 32, 500}";
},
{
name = _part.bogen;
transform = "{-1, 0, 0, -1, 224, 500}";
}
);
layerId = "4A0838E6-1F1B-4174-A923-ED3A88509DD4";
name = "Apr 11 18, 20:44";
paths = (
{
closed = 1;
nodes = (
"160 108 LINE",
"224 108 LINE",
"224 274 LINE",
"160 274 LINE"
);
},
{
closed = 1;
nodes = (
"32 108 LINE",
"96 108 LINE",
"96 168 LINE",
"32 168 LINE"
);
},
{
closed = 1;
nodes = (
"32 616 LINE",
"224 616 LINE",
"224 672 LINE",
"32 672 LINE"
);
},
{
closed = 1;
nodes = (
"224 309 LINE SMOOTH",
"224 362 OFFCURVE",
"190 388 OFFCURVE",
"143 388 CURVE SMOOTH",
"116 388 OFFCURVE",
"98 376 OFFCURVE",
"88 361 CURVE",
"85 361 LINE",
"96 350 LINE",
"96 616 LINE",
"32 616 LINE",
"32 302 LINE",
"96 302 LINE",
"96 305 LINE SMOOTH",
"96 327 OFFCURVE",
"107 334 OFFCURVE",
"128 334 CURVE SMOOTH",
"149 334 OFFCURVE",
"160 327 OFFCURVE",
"160 305 CURVE SMOOTH",
"160 274 LINE",
"224 274 LINE"
);
}
);
width = 256;
}
);
unicode = 0035;
userData = {
com.typemytype.robofont.mark = (
0.6,
0.609,
1,
1
);
};
},
{
color = 7;
glyphname = six;
layers = (
{
background = {
paths = (
{
closed = 1;
nodes = (
"96 112 LINE",
"96 560 LINE",
"32 560 LINE",
"32 112 LINE"
);
},
{
closed = 1;
nodes = (
"224 112 LINE",
"224 280 LINE",
"160 280 LINE",
"160 112 LINE"
);
},
{
closed = 1;
nodes = (
"224 504 LINE",
"224 560 LINE",
"160 560 LINE",
"160 504 LINE"
);
},
{
closed = 1;
nodes = (
"160 560 LINE",
"160 591 LINE SMOOTH",
"160 613 OFFCURVE",
"149 620 OFFCURVE",
"128 620 CURVE",
"128 676 LINE",
"189 676 OFFCURVE",
"224 648 OFFCURVE",
"224 595 CURVE SMOOTH",
"224 560 LINE"
);
},
{
closed = 1;
nodes = (
"96 560 LINE",
"96 591 LINE SMOOTH",
"96 613 OFFCURVE",
"107 620 OFFCURVE",
"128 620 CURVE",
"128 676 LINE",
"67 676 OFFCURVE",
"32 648 OFFCURVE",
"32 595 CURVE SMOOTH",
"32 560 LINE"
);
},
{
closed = 1;
nodes = (
"96 112 LINE",
"96 81 LINE SMOOTH",
"96 59 OFFCURVE",
"107 52 OFFCURVE",
"128 52 CURVE",
"128 -4 LINE",
"67 -4 OFFCURVE",
"32 24 OFFCURVE",
"32 77 CURVE SMOOTH",
"32 112 LINE"
);
},
{
closed = 1;
nodes = (
"160 112 LINE",
"160 81 LINE SMOOTH",
"160 59 OFFCURVE",
"149 52 OFFCURVE",
"128 52 CURVE",
"128 -4 LINE",
"189 -4 OFFCURVE",
"224 24 OFFCURVE",
"224 77 CURVE SMOOTH",
"224 112 LINE"
);
},
{
closed = 1;
nodes = (
"224 347 OFFCURVE",
"190 373 OFFCURVE",
"141 373 CURVE SMOOTH",
"110 373 OFFCURVE",
"96 361 OFFCURVE",
"88 346 CURVE",
"85 346 LINE",
"80 371 LINE",
"32 371 LINE",
"32 259 LINE",
"96 259 LINE",
"96 290 LINE SMOOTH",
"96 312 OFFCURVE",
"107 319 OFFCURVE",
"128 319 CURVE SMOOTH",
"149 319 OFFCURVE",
"160 312 OFFCURVE",
"160 290 CURVE SMOOTH",
"160 259 LINE",
"224 259 LINE",
"224 294 LINE SMOOTH"
);
}
);
};
components = (
{
name = _part.bogen;
transform = "{-1, 0, 0, 1, 222, 172}";
},
{
name = _part.bogen;
transform = "{1, 0, 0, 1, 30, 172}";
},
{
name = _part.bogen;
transform = "{1, 0, 0, -1, 30, 500}";
},
{
name = _part.bogen;
transform = "{-1, 0, 0, -1, 222, 500}";
},
{
name = _part.ansatz;
transform = "{1, 0, 0, 1, 30, -121}";
}
);
layerId = "2FCEC9C4-D6B8-40A6-8432-FB04296B16B9";
paths = (
{
closed = 1;
nodes = (
"30 108 LINE",
"94 108 LINE",
"94 564 LINE",
"30 564 LINE"
);
},
{
closed = 1;
nodes = (
"158 108 LINE",
"222 108 LINE",
"222 271 LINE",
"158 271 LINE"
);
},
{
closed = 1;
nodes = (
"158 504 LINE",
"222 504 LINE",
"222 564 LINE",
"158 564 LINE"
);
}
);
width = 252;
},
{
components = (
{
name = _part.bogen;
transform = "{-1, 0, 0, 1, 286, 172}";
},
{
name = _part.bogen;
transform = "{1, 0, 0, 1, 94, 172}";
},
{
name = _part.bogen;
transform = "{1, 0, 0, -1, 94, 500}";
},
{
name = _part.bogen;
transform = "{-1, 0, 0, -1, 286, 500}";
},
{
name = _part.ansatz;
transform = "{1, 0, 0, 1, -2, -121}";
}
);
layerId = m002;
paths = (
{
closed = 1;
nodes = (
"30 164 LINE",
"158 164 LINE",
"158 508 LINE",
"30 508 LINE"
);
},
{
closed = 1;
nodes = (
"222 164 LINE",
"350 164 LINE",
"350 215 LINE",
"222 215 LINE"
);
},
{
closed = 1;
nodes = (
"222 472 LINE",
"350 472 LINE",
"350 508 LINE",
"222 508 LINE"
);
}
);
width = 380;
},
{
components = (
{
name = _part.bogen;
transform = "{-1, 0, 0, 1, 222, 172}";
},
{
name = _part.bogen;
transform = "{1, 0, 0, 1, 30, 172}";
},
{
name = _part.bogen;
transform = "{1, 0, 0, -1, 30, 500}";
},
{
name = _part.bogen;
transform = "{-1, 0, 0, -1, 222, 500}";
},
{
name = _part.ansatz;
transform = "{1, 0, 0, 1, 30, -121}";
}
);
layerId = m003;
paths = (
{
closed = 1;
nodes = (
"30 108 LINE",
"94 108 LINE",
"94 564 LINE",
"30 564 LINE"
);
},
{
closed = 1;
nodes = (
"158 108 LINE",
"222 108 LINE",
"222 271 LINE",
"158 271 LINE"
);
},
{
closed = 1;
nodes = (
"158 504 LINE",
"222 504 LINE",
"222 564 LINE",
"158 564 LINE"
);
}
);
width = 252;
}
);
leftMetricsKey = O;
rightMetricsKey = O;
unicode = 0036;
},
{
glyphname = seven;
layers = (
{
background = {
paths = (
{
closed = 1;
nodes = (
"160 614 LINE",
"224 626 LINE",
"224 672 LINE",
"32 672 LINE",
"32 614 LINE"
);
},
{
closed = 1;
nodes = (
"130 0 LINE",
"224 626 LINE",
"159 626 LINE",
"65 0 LINE"
);
},
{
closed = 1;
nodes = (
"96 564 LINE",
"96 616 LINE",
"32 616 LINE",
"32 564 LINE"
);
}
);
};
layerId = "2FCEC9C4-D6B8-40A6-8432-FB04296B16B9";
paths = (
{
closed = 1;
nodes = (
"22 614 LINE",
"158 614 LINE",
"222 626 LINE",
"222 672 LINE",
"22 672 LINE"
);
},
{
closed = 1;
nodes = (
"63 0 LINE",
"128 0 LINE",
"222 626 LINE",
"157 626 LINE"
);
},
{
closed = 1;
nodes = (
"22 564 LINE",
"86 564 LINE",
"86 616 LINE",
"22 616 LINE"
);
}
);
width = 248;
},
{
layerId = m002;
paths = (
{
closed = 1;
nodes = (
"22 614 LINE",
"158 614 LINE",
"222 626 LINE",
"222 672 LINE",
"22 672 LINE"
);
},
{
closed = 1;
nodes = (
"63 0 LINE",
"128 0 LINE",
"222 626 LINE",
"157 626 LINE"
);
},
{
closed = 1;
nodes = (
"22 564 LINE",
"86 564 LINE",
"86 616 LINE",
"22 616 LINE"
);
}
);
width = 248;
},
{
layerId = m003;
paths = (
{
closed = 1;
nodes = (
"22 614 LINE",
"158 614 LINE",
"222 626 LINE",
"222 672 LINE",
"22 672 LINE"
);
},
{
closed = 1;
nodes = (
"63 0 LINE",
"128 0 LINE",
"222 626 LINE",
"157 626 LINE"
);
},
{
closed = 1;
nodes = (
"22 564 LINE",
"86 564 LINE",
"86 616 LINE",
"22 616 LINE"
);
}
);
width = 248;
}
);
unicode = 0037;
},
